<svg width="52" height="51" viewBox="0 0 52 51" fill="none" xmlns="http://www.w3.org/2000/svg">
<path fill-rule="evenodd" clip-rule="evenodd" d="M26.0002 0C11.6426 0 0 11.6416 0 26.0034C0 37.4925 7.44985 47.2399 17.7805 50.6783C19.0799 50.919 19.557 50.1142 19.557 49.4274C19.557 48.8073 19.5329 46.7589 19.5217 44.586C12.2884 46.159 10.7621 41.5179 10.7621 41.5179C9.57937 38.5122 7.87524 37.713 7.87524 37.713C5.51624 36.0991 8.05306 36.1322 8.05306 36.1322C10.6639 36.3152 12.0387 38.8119 12.0387 38.8119C14.3576 42.7873 18.1211 41.638 19.6048 40.9736C19.8381 39.2933 20.512 38.1453 21.2555 37.4964C15.4805 36.8389 9.40973 34.6091 9.40973 24.6452C9.40973 21.8062 10.4254 19.4865 12.0886 17.6654C11.8187 17.01 10.9287 14.3656 12.3405 10.7838C12.3405 10.7838 14.5238 10.0849 19.4924 13.4493C21.5664 12.8731 23.7906 12.5842 26.0002 12.5743C28.2098 12.5842 30.4358 12.8731 32.5136 13.4493C37.4762 10.0849 39.6565 10.7838 39.6565 10.7838C41.0717 14.3656 40.1813 17.01 39.9114 17.6654C41.5785 19.4865 42.5873 21.8062 42.5873 24.6452C42.5873 34.6328 36.5048 36.832 30.7152 37.4757C31.6478 38.2827 32.4787 39.8652 32.4787 42.2913C32.4787 45.7702 32.4486 48.5704 32.4486 49.4274C32.4486 50.1194 32.9166 50.9302 34.2345 50.6749C44.5596 47.2325 52 37.4886 52 26.0034C52 11.6416 40.3591 0 26.0002 0" fill="#011526"/>
<path fill-rule="evenodd" clip-rule="evenodd" d="M9.84769 37.3353C9.79042 37.465 9.5872 37.5033 9.40206 37.4146C9.21348 37.3298 9.10757 37.1536 9.16871 37.024C9.22468 36.891 9.42833 36.8544 9.61648 36.9426C9.80549 37.0279 9.91313 37.2057 9.84769 37.3353" fill="#011526"/>
<path fill-rule="evenodd" clip-rule="evenodd" d="M10.9009 38.5101C10.7769 38.625 10.5345 38.5716 10.37 38.3899C10.1999 38.2086 10.1681 37.9662 10.2938 37.8495C10.4217 37.7345 10.6567 37.7884 10.8272 37.9696C10.9973 38.1531 11.0305 38.3938 10.9009 38.5101" fill="#011526"/>
<path fill-rule="evenodd" clip-rule="evenodd" d="M11.9257 40.0077C11.7664 40.1184 11.5059 40.0146 11.3449 39.7834C11.1856 39.5521 11.1856 39.2748 11.3483 39.1637C11.5098 39.0526 11.7664 39.1525 11.9296 39.3821C12.0884 39.6167 12.0884 39.8945 11.9257 40.0077" fill="#011526"/>
<path fill-rule="evenodd" clip-rule="evenodd" d="M13.3303 41.4546C13.1878 41.6118 12.8842 41.5696 12.6621 41.3551C12.4347 41.1454 12.3715 40.8479 12.5144 40.6907C12.6586 40.5331 12.9639 40.5774 13.1878 40.7902C13.4134 40.9994 13.4823 41.2991 13.3303 41.4546" fill="#011526"/>
<path fill-rule="evenodd" clip-rule="evenodd" d="M15.2678 42.2947C15.2049 42.4984 14.9126 42.591 14.6181 42.5044C14.324 42.4153 14.1315 42.1767 14.1909 41.9709C14.2521 41.7659 14.5457 41.6695 14.8424 41.762C15.136 41.8507 15.3289 42.0876 15.2678 42.2947" fill="#011526"/>
<path fill-rule="evenodd" clip-rule="evenodd" d="M17.3956 42.4506C17.4029 42.665 17.1532 42.8429 16.8441 42.8463C16.5332 42.8536 16.2818 42.6801 16.2783 42.4691C16.2783 42.2525 16.5224 42.0764 16.8333 42.0712C17.1424 42.0652 17.3956 42.2374 17.3956 42.4506" fill="#011526"/>
<path fill-rule="evenodd" clip-rule="evenodd" d="M19.3759 42.1134C19.4129 42.3227 19.1981 42.5376 18.8911 42.5944C18.5893 42.65 18.3098 42.5208 18.2715 42.3132C18.2341 42.0988 18.4528 41.8839 18.7542 41.8284C19.0616 41.775 19.3367 41.9007 19.3759 42.1134" fill="#011526"/>
</svg>
