<svg width="54" height="54" viewBox="0 0 54 54" fill="none" xmlns="http://www.w3.org/2000/svg">
<g opacity="1">
<path fill-rule="evenodd" clip-rule="evenodd" d="M26.6779 0.471191C11.9943 0.471191 0.0874023 12.6768 0.0874023 27.7344C0.0874023 39.7802 7.70638 49.9998 18.2716 53.6048C19.6005 53.8572 20.0884 53.0134 20.0884 52.2933C20.0884 51.6432 20.0637 49.4955 20.0523 47.2173C12.6548 48.8666 11.0938 44.0006 11.0938 44.0006C9.88424 40.8493 8.14142 40.0114 8.14142 40.0114C5.72887 38.3192 8.32328 38.354 8.32328 38.354C10.9934 38.5459 12.3994 41.1635 12.3994 41.1635C14.771 45.3315 18.6199 44.1265 20.1372 43.4299C20.3759 41.6683 21.065 40.4646 21.8255 39.7843C15.9194 39.0949 9.71075 36.7571 9.71075 26.3104C9.71075 23.3339 10.7495 20.9018 12.4505 18.9925C12.1744 18.3053 11.2642 15.5328 12.7081 11.7775C12.7081 11.7775 14.9409 11.0447 20.0223 14.5721C22.1434 13.968 24.4181 13.6651 26.6779 13.6547C28.9376 13.6651 31.2141 13.968 33.3391 14.5721C38.4143 11.0447 40.6441 11.7775 40.6441 11.7775C42.0915 15.5328 41.1809 18.3053 40.9048 18.9925C42.6098 20.9018 43.6415 23.3339 43.6415 26.3104C43.6415 36.782 37.421 39.0876 31.4999 39.7626C32.4536 40.6087 33.3035 42.2678 33.3035 44.8114C33.3035 48.4589 33.2726 51.3948 33.2726 52.2933C33.2726 53.0188 33.7513 53.8689 35.0991 53.6012C45.6586 49.9921 53.2679 39.7761 53.2679 27.7344C53.2679 12.6768 41.3628 0.471191 26.6779 0.471191Z" fill="white"/>
</g>
</svg>
