<svg width="54" height="54" viewBox="0 0 54 54" fill="none" xmlns="http://www.w3.org/2000/svg">
<g opacity="1">
<path fill-rule="evenodd" clip-rule="evenodd" d="M26.8002 53.8253C41.4853 53.9218 53.4681 42.0955 53.5646 27.4104C53.6611 12.7253 41.8348 0.742483 27.1497 0.645961C12.4647 0.549438 0.481812 12.3758 0.385289 27.0609C0.288767 41.7459 12.1151 53.7288 26.8002 53.8253ZM32.6561 27.569L16.7601 11.2513C16.0981 11.3963 15.5526 11.9722 15.5449 13.1369L15.3563 41.8316C15.3491 42.9284 15.7702 43.7026 16.5577 43.7847L16.558 43.7844C16.9188 43.8332 17.3537 43.7391 17.855 43.4655L37.6271 32.6726L33.3752 28.2217L16.5602 43.7821L32.6561 27.569ZM37.6895 22.4984L33.3847 26.8018L16.7604 11.2505C17.1737 11.1602 17.6394 11.2457 18.0655 11.4849L37.6895 22.4984ZM34.1151 27.5518L38.9118 31.9723C38.9118 31.9723 44.3972 28.9779 44.6321 28.8496C45.4239 28.4174 46.2579 27.3066 44.6481 26.4037C44.2392 26.1739 38.9943 23.2311 38.9943 23.2311L34.1151 27.5518Z" fill="white"/>
</g>
</svg>
