<svg width="54" height="54" viewBox="0 0 54 54" fill="none" xmlns="http://www.w3.org/2000/svg">
<path fill-rule="evenodd" clip-rule="evenodd" d="M0 26.59C0 11.9047 11.9047 0 26.59 0C41.2753 0 53.18 11.9047 53.18 26.59C53.18 41.2753 41.2753 53.18 26.59 53.18C11.9047 53.18 0 41.2753 0 26.59ZM26.5516 19.523C28.7121 19.523 30.1695 20.4576 31.0005 21.2385L34.2477 18.0635C32.2533 16.2071 29.6582 15.0677 26.5516 15.0677C22.0516 15.0677 18.1652 17.6538 16.2732 21.4178L16.2733 21.4179C15.4936 22.9798 15.0461 24.7337 15.0461 26.59C15.0461 28.4464 15.4936 30.2003 16.2734 31.7622L19.9186 28.9369L16.2859 31.7622C18.1779 35.5262 22.0515 38.1123 26.5515 38.1123C29.6581 38.1123 32.266 37.0881 34.1709 35.3214L30.5402 32.5048C29.5686 33.1833 28.2646 33.657 26.5515 33.657C23.509 33.657 20.9266 31.6471 20.0061 28.869L20.0064 28.8688C19.7635 28.1519 19.6229 27.3837 19.6229 26.59C19.6229 25.7962 19.7635 25.0281 19.9936 24.3111L19.9934 24.311C20.9267 21.5329 23.5091 19.523 26.5516 19.523ZM37.3543 24.4904C37.5205 25.2073 37.5972 25.8987 37.5972 26.846C37.5972 30.354 36.3444 33.3114 34.1711 35.3214L30.5404 32.5048C32.0745 31.4294 32.7648 29.829 32.8927 28.7664H26.5518V24.4904H37.3543Z" fill="white"/>
</svg>
