<svg width="54" height="54" viewBox="0 0 54 54" fill="none" xmlns="http://www.w3.org/2000/svg">
<path fill-rule="evenodd" clip-rule="evenodd" d="M26.59 0C11.9047 0 0 11.9047 0 26.59C0 41.2753 11.9047 53.18 26.59 53.18C41.2753 53.18 53.18 41.2753 53.18 26.59C53.18 11.9047 41.2753 0 26.59 0ZM20.7439 12.4943C22.2565 12.4255 22.7399 12.4087 26.5914 12.4087H26.5869C30.4396 12.4087 30.9211 12.4255 32.4338 12.4943C33.9436 12.5635 34.9747 12.8025 35.8787 13.1532C36.8124 13.5151 37.6012 13.9997 38.3901 14.7885C39.1789 15.5768 39.6634 16.368 40.0268 17.3007C40.3755 18.2024 40.6148 19.2329 40.6857 20.7427C40.7536 22.2553 40.7714 22.7387 40.7714 26.5901C40.7714 30.4416 40.7536 30.9238 40.6857 32.4365C40.6148 33.9456 40.3755 34.9764 40.0268 35.8784C39.6634 36.8109 39.1789 37.6021 38.3901 38.3903C37.6021 39.1792 36.8121 39.6649 35.8796 40.0271C34.9773 40.3778 33.9456 40.6168 32.4359 40.6859C30.9232 40.7548 30.4413 40.7716 26.5896 40.7716C22.7384 40.7716 22.2554 40.7548 20.7427 40.6859C19.2332 40.6168 18.2024 40.3778 17.3001 40.0271C16.368 39.6649 15.5768 39.1792 14.7888 38.3903C14.0003 37.6021 13.5157 36.8109 13.1532 35.8781C12.8028 34.9764 12.5638 33.9459 12.4944 32.4362C12.4258 30.9235 12.4087 30.4416 12.4087 26.5901C12.4087 22.7387 12.4264 22.255 12.4941 20.7424C12.562 19.2332 12.8013 18.2024 13.1529 17.3004C13.5163 16.368 14.0009 15.5768 14.7897 14.7885C15.578 13.9999 16.3692 13.5154 17.3019 13.1532C18.2036 12.8025 19.2341 12.5635 20.7439 12.4943Z" fill="white"/>
<path fill-rule="evenodd" clip-rule="evenodd" d="M25.3192 14.9643C25.5663 14.9639 25.832 14.964 26.1188 14.9641L26.5914 14.9643C30.3779 14.9643 30.8267 14.9779 32.3219 15.0458C33.7046 15.1091 34.4551 15.3401 34.955 15.5342C35.6168 15.7912 36.0886 16.0985 36.5847 16.5949C37.081 17.0912 37.3883 17.5639 37.6459 18.2257C37.84 18.725 38.0713 19.4755 38.1343 20.8582C38.2022 22.3531 38.217 22.8022 38.217 26.5869C38.217 30.3716 38.2022 30.8207 38.1343 32.3156C38.071 33.6983 37.84 34.4488 37.6459 34.9481C37.3889 35.6099 37.081 36.0811 36.5847 36.5772C36.0883 37.0735 35.6171 37.3808 34.955 37.6378C34.4557 37.8328 33.7046 38.0633 32.3219 38.1265C30.827 38.1944 30.3779 38.2092 26.5914 38.2092C22.8047 38.2092 22.3559 38.1944 20.8609 38.1265C19.4782 38.0627 18.7278 37.8316 18.2276 37.6375C17.5658 37.3805 17.0931 37.0732 16.5967 36.5769C16.1004 36.0805 15.7931 35.609 15.5355 34.9469C15.3414 34.4476 15.1101 33.6971 15.0471 32.3144C14.9792 30.8195 14.9656 30.3704 14.9656 26.5834C14.9656 22.7963 14.9792 22.3496 15.0471 20.8546C15.1103 19.4719 15.3414 18.7215 15.5355 18.2216C15.7925 17.5598 16.1004 17.0871 16.5967 16.5907C17.0931 16.0944 17.5658 15.7871 18.2276 15.5295C18.7275 15.3345 19.4782 15.104 20.8609 15.0405C22.1692 14.9814 22.6762 14.9637 25.3192 14.9607V14.9643ZM34.1613 17.319C33.2217 17.319 32.4595 18.0804 32.4595 19.0202C32.4595 19.9597 33.2217 20.722 34.1613 20.722C35.1008 20.722 35.863 19.9597 35.863 19.0202C35.863 18.0807 35.1008 17.3184 34.1613 17.3184V17.319ZM19.3086 26.5901C19.3086 22.5682 22.5694 19.3074 26.5914 19.3074H26.5911C30.613 19.3074 33.873 22.5682 33.873 26.5901C33.873 30.6121 30.6133 33.8715 26.5914 33.8715C22.5694 33.8715 19.3086 30.6121 19.3086 26.5901Z" fill="white"/>
<path fill-rule="evenodd" clip-rule="evenodd" d="M26.5914 21.863C29.202 21.863 31.3186 23.9793 31.3186 26.5901C31.3186 29.2007 29.202 31.3173 26.5914 31.3173C23.9805 31.3173 21.8643 29.2007 21.8643 26.5901C21.8643 23.9793 23.9805 21.863 26.5914 21.863V21.863Z" fill="white"/>
</svg>
