<svg width="55" height="54" viewBox="0 0 55 54" fill="none" xmlns="http://www.w3.org/2000/svg">
<g opacity="1">
<path fill-rule="evenodd" clip-rule="evenodd" d="M27.534 0.174769C12.8489 0.0782468 0.866089 11.9046 0.769567 26.5897C0.673045 41.2747 12.4994 53.2576 27.1845 53.3541C41.8695 53.4506 53.8524 41.6243 53.9489 26.9392C54.0454 12.2541 42.2191 0.271291 27.534 0.174769ZM13.5641 22.1068L19.5899 22.1464L19.4709 40.2514L13.4451 40.2118L13.5641 22.1068ZM20.0235 16.5488C19.9961 14.7734 18.7355 13.413 16.6742 13.3994C14.6128 13.3859 13.2562 14.7291 13.2445 16.5043C13.2331 18.2427 14.5318 19.6423 16.5548 19.6556L16.5933 19.6559C18.6944 19.6697 20.0121 18.2873 20.0235 16.5488ZM34.3861 21.8172C38.3513 21.8433 41.307 24.4511 41.2705 30.0121L41.202 40.393L35.1764 40.3534L35.2401 30.6672C35.2561 28.2342 34.395 26.5683 32.2137 26.554C30.5489 26.543 29.55 27.6557 29.1074 28.7339C28.9455 29.1202 28.9028 29.6598 28.8993 30.2009L28.8328 40.3122L22.8063 40.2726C22.8063 40.2726 22.9936 23.867 22.9253 22.1676L28.9518 22.2072L28.935 24.7716C29.7428 23.5441 31.1868 21.7962 34.3861 21.8172Z" fill="white"/>
</g>
</svg>
