<svg width="54" height="54" viewBox="0 0 54 54" fill="none" xmlns="http://www.w3.org/2000/svg">
<g opacity="0.9">
<path fill-rule="evenodd" clip-rule="evenodd" d="M0.682129 27.0614C0.682129 12.376 12.587 0.471191 27.2724 0.471191C41.9578 0.471191 53.8626 12.376 53.8626 27.0614C53.8626 41.7468 41.9578 53.6517 27.2724 53.6517C12.587 53.6517 0.682129 41.7468 0.682129 27.0614ZM22.9963 19.9009L14.483 15.6947C14.4101 15.6586 14.3407 15.6416 14.278 15.6416C14.1886 15.6416 14.113 15.6764 14.0598 15.7397C14.0078 15.8017 13.9773 15.8914 13.9773 16.0035V34.061C13.9773 34.3684 14.2048 34.7322 14.483 34.8696L22.3503 38.7567C22.4596 38.8107 22.5637 38.8363 22.6578 38.8363C22.9229 38.8363 23.1088 38.6336 23.1088 38.2934V20.0809C23.1088 20.0047 23.0653 19.935 22.9963 19.9009ZM40.6125 38.7506L32.9677 34.9735L41.371 21.4798V38.2873C41.371 38.7483 41.0297 38.9568 40.6125 38.7506ZM23.9156 21.2525V30.5067L32.2402 34.6197L23.9156 21.2525ZM32.4934 15.5696L41.1711 19.8571C41.2792 19.9105 41.3176 20.0439 41.2543 20.1457L32.7144 33.8588L26.7437 24.2713L32.0923 15.6826C32.1492 15.5914 32.2543 15.539 32.3598 15.539C32.3626 15.539 32.3654 15.5399 32.3682 15.54C32.4111 15.5411 32.454 15.5501 32.4934 15.5696Z" fill="white"/>
</g>
</svg>
