<svg width="52" height="52" viewBox="0 0 52 52" fill="none" xmlns="http://www.w3.org/2000/svg">
<path fill-rule="evenodd" clip-rule="evenodd" d="M52 26C52 40.3594 40.3594 52 26 52C11.6406 52 0 40.3594 0 26C0 11.6406 11.6406 0 26 0C40.3594 0 52 11.6406 52 26ZM29.4866 17.2993L17.8359 22.7735C16.8685 21.7365 15.4946 21.0889 13.9707 21.0889C11.0413 21.0889 8.66667 23.4817 8.66667 26.4333C8.66667 29.385 11.0413 31.7778 13.9707 31.7778C15.4946 31.7778 16.8685 31.1302 17.8359 30.0932L29.4866 35.5674C29.3384 36.0594 29.2587 36.5814 29.2587 37.1222C29.2587 40.0739 31.6333 42.4667 34.5627 42.4667C37.492 42.4667 39.8667 40.0739 39.8667 37.1222C39.8667 34.1706 37.492 31.7778 34.5627 31.7778C33.317 31.7778 32.1716 32.2105 31.2664 32.9349L19.21 27.27C19.2526 26.9974 19.2747 26.718 19.2747 26.4333C19.2747 26.1487 19.2526 25.8692 19.21 25.5966L31.2664 19.9318C32.1716 20.6562 33.317 21.0889 34.5627 21.0889C37.492 21.0889 39.8667 18.6961 39.8667 15.7444C39.8667 12.7928 37.492 10.4 34.5627 10.4C31.6333 10.4 29.2587 12.7928 29.2587 15.7444C29.2587 16.2852 29.3384 16.8073 29.4866 17.2993Z" fill="#011526"/>
</svg>
