<svg width="54" height="54" viewBox="0 0 54 54" fill="none" xmlns="http://www.w3.org/2000/svg">
<path fill-rule="evenodd" clip-rule="evenodd" d="M26.59 0C11.9047 0 0 11.9047 0 26.59C0 41.2753 11.9047 53.18 26.59 53.18C41.2753 53.18 53.18 41.2753 53.18 26.59C53.18 11.9047 41.2753 0 26.59 0ZM25.8494 22.5328L25.7936 21.6127C25.6262 19.228 27.0955 17.0499 29.4204 16.2049C30.2759 15.9045 31.7267 15.8669 32.6752 16.1298C33.0472 16.2425 33.754 16.618 34.2562 16.956L35.1675 17.5756L36.1719 17.2564C36.7299 17.0874 37.4738 16.8058 37.8086 16.618C38.1248 16.449 38.4038 16.3551 38.4038 16.4115C38.4038 16.7307 37.7156 17.8197 37.139 18.4206C36.3579 19.2656 36.5811 19.3407 38.162 18.7774C39.1105 18.4581 39.1292 18.4581 38.9432 18.8149C38.8316 19.0027 38.255 19.6599 37.6412 20.2607C36.5997 21.2935 36.5439 21.4061 36.5439 22.2699C36.5439 23.603 35.9115 26.382 35.2791 27.903C34.1074 30.7571 31.5965 33.7051 29.0856 35.1885C25.5518 37.2727 20.8462 37.7985 16.8846 36.578C15.564 36.1649 13.2949 35.1134 13.2949 34.9256C13.2949 34.8693 13.9831 34.7942 14.8201 34.7754C16.5684 34.7378 18.3167 34.2496 19.8046 33.3859L20.809 32.785L19.6558 32.3907C18.0191 31.8274 16.5498 30.5318 16.1778 29.3113C16.0662 28.9169 16.1034 28.8982 17.1449 28.8982L18.2237 28.8794L17.3123 28.4475C16.2336 27.903 15.2478 26.9829 14.7643 26.0441C14.4109 25.3681 13.9645 23.6594 14.0947 23.5279C14.1319 23.4716 14.5225 23.5843 14.9688 23.7345C16.2522 24.2039 16.4196 24.0913 15.6756 23.3026C14.2807 21.8756 13.8529 19.7538 14.5225 17.7446L14.8387 16.8433L16.0662 18.0638C18.5771 20.5236 21.5343 21.9882 24.9194 22.4201L25.8494 22.5328Z" fill="white"/>
</svg>
