<svg width="1534" height="558" viewBox="0 0 1534 558" fill="none" xmlns="http://www.w3.org/2000/svg">
<path d="M1921.57 557.456L1857.48 526.486C1793.39 495.517 1665.21 433.577 1537.22 433.577C1409.22 433.577 1281.41 495.517 1153.45 505.775C1025.49 516.808 897.367 474.225 769.19 412.866C641.011 350.346 512.775 269.05 384.565 196.078C256.356 123.879 128.178 61.9397 64.0891 30.9699L0.000197955 0.00013947H63.9974C127.995 0.00013947 255.989 0.00013947 383.984 0.00013947C511.978 0.00013947 639.973 0.00013947 767.967 0.00013947C895.962 0.00013947 1023.96 0.00013947 1151.95 0.00013947C1279.95 0.00013947 1407.94 0.00013947 1535.93 0.00013947C1663.93 0.00013947 1791.92 0.00013947 1855.92 0.00013947H1919.92L1921.57 557.456Z" fill="#A2D9FF"/>
</svg>