<svg xmlns="http://www.w3.org/2000/svg" viewBox="0 0 1080 225.96"><defs><style>.cls-1{fill:#ff3abf;}.cls-2{fill:#fe3abf;}.cls-3{fill:#fe3ac0;}.cls-4{fill:#fd39c0;}.cls-5{fill:#fc39c0;}.cls-6{fill:#fb39c0;}.cls-7{fill:#fb39c1;}.cls-8{fill:#fa38c1;}.cls-9{fill:#f938c1;}.cls-10{fill:#f838c2;}.cls-11{fill:#f837c2;}.cls-12{fill:#f737c2;}.cls-13{fill:#f637c2;}.cls-14{fill:#f637c3;}.cls-15{fill:#f537c3;}.cls-16{fill:#f536c3;}.cls-17{fill:#f436c3;}.cls-18{fill:#f336c3;}.cls-19{fill:#f336c4;}.cls-20{fill:#f236c4;}.cls-21{fill:#f135c4;}.cls-22{fill:#f035c4;}.cls-23{fill:#f035c5;}.cls-24{fill:#ef35c5;}.cls-25{fill:#ee34c5;}.cls-26{fill:#ed34c6;}.cls-27{fill:#ec34c6;}.cls-28{fill:#ec33c6;}.cls-29{fill:#eb33c6;}.cls-30{fill:#eb33c7;}.cls-31{fill:#ea33c7;}.cls-32{fill:#e933c7;}.cls-33{fill:#e932c7;}.cls-34{fill:#e832c7;}.cls-35{fill:#e832c8;}.cls-36{fill:#e732c8;}.cls-37{fill:#e632c8;}.cls-38{fill:#e631c8;}.cls-39{fill:#e531c9;}.cls-40{fill:#e431c9;}.cls-41{fill:#e331c9;}.cls-42{fill:#e330ca;}.cls-43{fill:#e230ca;}.cls-44{fill:#e130ca;}.cls-45{fill:#e030ca;}.cls-46{fill:#e02fcb;}.cls-47{fill:#df2fcb;}.cls-48{fill:#de2fcb;}.cls-49{fill:#dd2fcb;}.cls-50{fill:#dd2fcc;}.cls-51{fill:#dd2ecc;}.cls-52{fill:#dc2ecc;}.cls-53{fill:#db2ecc;}.cls-54{fill:#da2ecd;}.cls-55{fill:#da2dcd;}.cls-56{fill:#d92dcd;}.cls-57{fill:#d82dcd;}.cls-58{fill:#d82dce;}.cls-59{fill:#d72dce;}.cls-60{fill:#d72cce;}.cls-61{fill:#d62cce;}.cls-62{fill:#d52cce;}.cls-63{fill:#d52ccf;}.cls-64{fill:#d42ccf;}.cls-65{fill:#d42bcf;}.cls-66{fill:#d32bcf;}.cls-67{fill:#d32bd0;}.cls-68{fill:#d22bd0;}.cls-69{fill:#d12bd0;}.cls-70{fill:#d12ad0;}.cls-71{fill:#d02ad0;}.cls-72{fill:#d02ad1;}.cls-73{fill:#cf2ad1;}.cls-74{fill:#ce2ad1;}.cls-75{fill:#ce29d1;}.cls-76{fill:#cd29d2;}.cls-77{fill:#cc29d2;}.cls-78{fill:#cb29d2;}.cls-79{fill:#cb28d2;}.cls-80{fill:#cb28d3;}.cls-81{fill:#ca28d3;}.cls-82{fill:#c928d3;}.cls-83{fill:#c828d3;}.cls-84{fill:#c827d4;}.cls-85{fill:#c727d4;}.cls-86{fill:#c627d4;}.cls-87{fill:#c527d4;}.cls-88{fill:#c526d5;}.cls-89{fill:#c426d5;}.cls-90{fill:#c326d5;}.cls-91{fill:#c226d6;}.cls-92{fill:#c225d6;}.cls-93{fill:#c125d6;}.cls-94{fill:#c025d6;}.cls-95{fill:#c025d7;}.cls-96{fill:#bf25d7;}.cls-97{fill:#bf24d7;}.cls-98{fill:#be24d7;}.cls-99{fill:#bd24d7;}.cls-100{fill:#bd24d8;}.cls-101{fill:#bc24d8;}.cls-102{fill:#bc23d8;}.cls-103{fill:#bb23d8;}.cls-104{fill:#ba23d9;}.cls-105{fill:#b922d9;}.cls-106{fill:#b822d9;}.cls-107{fill:#b822da;}.cls-108{fill:#b722da;}.cls-109{fill:#b621da;}.cls-110{fill:#b521da;}.cls-111{fill:#b521db;}.cls-112{fill:#b421db;}.cls-113{fill:#b321db;}.cls-114{fill:#b320db;}.cls-115{fill:#b220db;}.cls-116{fill:#b220dc;}.cls-117{fill:#b120dc;}.cls-118{fill:#b020dc;}.cls-119{fill:#b01fdc;}.cls-120{fill:#af1fdd;}.cls-121{fill:#ae1fdd;}.cls-122{fill:#ad1edd;}.cls-123{fill:#ad1ede;}.cls-124{fill:#ac1ede;}.cls-125{fill:#ab1ede;}.cls-126{fill:#aa1dde;}.cls-127{fill:#aa1ddf;}.cls-128{fill:#a91ddf;}.cls-129{fill:#a81ddf;}.cls-130{fill:#a81de0;}.cls-131{fill:#a71ce0;}.cls-132{fill:#a61ce0;}.cls-133{fill:#a51ce0;}.cls-134{fill:#a51ce1;}.cls-135{fill:#a41be1;}.cls-136{fill:#a31be1;}.cls-137{fill:#a21be2;}.cls-138{fill:#a21ae2;}.cls-139{fill:#a11ae2;}.cls-140{fill:#a01ae2;}.cls-141{fill:#a01ae3;}.cls-142{fill:#9f1ae3;}.cls-143{fill:#9f19e3;}.cls-144{fill:#9e19e3;}.cls-145{fill:#9d19e3;}.cls-146{fill:#9d19e4;}.cls-147{fill:#9c19e4;}.cls-148{fill:#9b18e4;}.cls-149{fill:#9a18e4;}.cls-150{fill:#9a18e5;}.cls-151{fill:#9918e5;}.cls-152{fill:#9817e5;}.cls-153{fill:#9717e6;}.cls-154{fill:#9617e6;}.cls-155{fill:#9616e6;}.cls-156{fill:#9516e6;}.cls-157{fill:#9516e7;}.cls-158{fill:#9416e7;}.cls-159{fill:#9316e7;}.cls-160{fill:#9315e7;}.cls-161{fill:#9215e7;}.cls-162{fill:#9215e8;}.cls-163{fill:#9115e8;}.cls-164{fill:#9015e8;}.cls-165{fill:#9014e8;}.cls-166{fill:#8f14e9;}.cls-167{fill:#8e14e9;}.cls-168{fill:#8d14e9;}.cls-169{fill:#8d13ea;}.cls-170{fill:#8c13ea;}.cls-171{fill:#8b13ea;}.cls-172{fill:#8a13ea;}.cls-173{fill:#8a12eb;}.cls-174{fill:#8912eb;}.cls-175{fill:#8812eb;}.cls-176{fill:#8712eb;}.cls-177{fill:#8712ec;}.cls-178{fill:#8711ec;}.cls-179{fill:#8611ec;}.cls-180{fill:#8511ec;}.cls-181{fill:#8411ed;}.cls-182{fill:#8410ed;}.cls-183{fill:#8310ed;}.cls-184{fill:#8210ed;}.cls-185{fill:#8210ee;}.cls-186{fill:#8110ee;}.cls-187{fill:#810fee;}.cls-188{fill:#800fee;}.cls-189{fill:#7f0fee;}.cls-190{fill:#7f0fef;}.cls-191{fill:#7e0fef;}.cls-192{fill:#7e0eef;}.cls-193{fill:#7d0eef;}.cls-194{fill:#7d0ef0;}.cls-195{fill:#7c0ef0;}.cls-196{fill:#7b0ef0;}.cls-197{fill:#7b0df0;}.cls-198{fill:#7a0df0;}.cls-199{fill:#7a0df1;}.cls-200{fill:#790df1;}.cls-201{fill:#780df1;}.cls-202{fill:#780cf1;}.cls-203{fill:#770cf2;}.cls-204{fill:#760cf2;}.cls-205{fill:#750cf2;}.cls-206{fill:#750bf2;}.cls-207{fill:#750bf3;}.cls-208{fill:#740bf3;}.cls-209{fill:#730bf3;}.cls-210{fill:#720bf3;}.cls-211{fill:#720af4;}.cls-212{fill:#710af4;}.cls-213{fill:#700af4;}.cls-214{fill:#6f0af4;}.cls-215{fill:#6f09f5;}.cls-216{fill:#6e09f5;}.cls-217{fill:#6d09f5;}.cls-218{fill:#6c09f6;}.cls-219{fill:#6c08f6;}.cls-220{fill:#6b08f6;}.cls-221{fill:#6a08f6;}.cls-222{fill:#6a08f7;}.cls-223{fill:#6908f7;}.cls-224{fill:#6907f7;}.cls-225{fill:#6807f7;}.cls-226{fill:#6707f7;}.cls-227{fill:#6707f8;}.cls-228{fill:#6607f8;}.cls-229{fill:#6606f8;}.cls-230{fill:#6506f8;}.cls-231{fill:#6406f9;}.cls-232{fill:#6305f9;}.cls-233{fill:#6205f9;}.cls-234{fill:#6205fa;}.cls-235{fill:#6105fa;}.cls-236{fill:#6004fa;}.cls-237{fill:#5f04fa;}.cls-238{fill:#5f04fb;}.cls-239{fill:#5e04fb;}.cls-240{fill:#5d04fb;}.cls-241{fill:#5d03fb;}.cls-242{fill:#5c03fb;}.cls-243{fill:#5c03fc;}.cls-244{fill:#5b03fc;}.cls-245{fill:#5a03fc;}.cls-246{fill:#5a02fc;}.cls-247{fill:#5902fd;}.cls-248{fill:#5802fd;}.cls-249{fill:#5701fd;}.cls-250{fill:#5701fe;}.cls-251{fill:#5601fe;}.cls-252{fill:#5501fe;}.cls-253{fill:#5400fe;}.cls-254{fill:#5400ff;}.cls-255{fill:#5300ff;}.cls-256{fill:none;}.cls-257{fill:#011526;}</style></defs><title>logo</title><g id="Layer_3" data-name="Layer 3"><circle class="cls-1" cx="257.88" cy="90.92" r="49.2"/><circle class="cls-1" cx="256.92" cy="90.63" r="49.2"/><circle class="cls-2" cx="255.96" cy="90.35" r="49.2"/><circle class="cls-2" cx="255.01" cy="90.06" r="49.2"/><circle class="cls-3" cx="254.05" cy="89.77" r="49.2"/><circle class="cls-4" cx="253.09" cy="89.48" r="49.2"/><circle class="cls-4" cx="252.13" cy="89.2" r="49.2"/><circle class="cls-4" cx="251.17" cy="88.91" r="49.2"/><circle class="cls-5" cx="250.22" cy="88.62" r="49.2"/><circle class="cls-5" cx="249.26" cy="88.33" r="49.2"/><circle class="cls-5" cx="248.3" cy="88.05" r="49.2"/><circle class="cls-6" cx="247.34" cy="87.76" r="49.2"/><circle class="cls-7" cx="246.38" cy="87.47" r="49.2"/><circle class="cls-7" cx="245.43" cy="87.18" r="49.2"/><circle class="cls-8" cx="244.47" cy="86.9" r="49.2"/><circle class="cls-8" cx="243.51" cy="86.61" r="49.2"/><circle class="cls-8" cx="242.55" cy="86.32" r="49.2"/><circle class="cls-9" cx="241.6" cy="86.04" r="49.2"/><circle class="cls-9" cx="240.64" cy="85.75" r="49.2"/><circle class="cls-9" cx="239.68" cy="85.46" r="49.2"/><circle class="cls-10" cx="238.72" cy="85.17" r="49.2"/><circle class="cls-10" cx="237.76" cy="84.89" r="49.2"/><circle class="cls-11" cx="236.81" cy="84.6" r="49.2"/><circle class="cls-12" cx="235.85" cy="84.31" r="49.2"/><circle class="cls-12" cx="234.89" cy="84.02" r="49.2"/><circle class="cls-12" cx="233.93" cy="83.74" r="49.2"/><circle class="cls-13" cx="232.97" cy="83.45" r="49.2"/><circle class="cls-13" cx="232.02" cy="83.16" r="49.2"/><circle class="cls-14" cx="231.06" cy="82.87" r="49.2"/><circle class="cls-15" cx="230.1" cy="82.59" r="49.2"/><circle class="cls-15" cx="229.14" cy="82.3" r="49.2"/><circle class="cls-16" cx="228.19" cy="82.01" r="49.2"/><circle class="cls-17" cx="227.23" cy="81.73" r="49.2"/><circle class="cls-17" cx="226.27" cy="81.44" r="49.2"/><circle class="cls-18" cx="225.31" cy="81.15" r="49.2"/><circle class="cls-18" cx="224.35" cy="80.86" r="49.2"/><circle class="cls-19" cx="223.4" cy="80.58" r="49.2"/><circle class="cls-20" cx="222.44" cy="80.29" r="49.2"/><circle class="cls-20" cx="221.48" cy="80" r="49.2"/><circle class="cls-20" cx="220.52" cy="79.71" r="49.2"/><circle class="cls-21" cx="219.57" cy="79.43" r="49.2"/><circle class="cls-21" cx="218.61" cy="79.14" r="49.2"/><circle class="cls-21" cx="217.65" cy="78.85" r="49.2"/><circle class="cls-22" cx="216.69" cy="78.56" r="49.2"/><circle class="cls-23" cx="215.73" cy="78.28" r="49.2"/><circle class="cls-23" cx="214.78" cy="77.99" r="49.2"/><circle class="cls-24" cx="213.82" cy="77.7" r="49.2"/><circle class="cls-24" cx="212.86" cy="77.41" r="49.2"/><circle class="cls-24" cx="211.9" cy="77.13" r="49.2"/><circle class="cls-25" cx="210.94" cy="76.84" r="49.2"/><circle class="cls-25" cx="209.99" cy="76.55" r="49.2"/><circle class="cls-25" cx="209.03" cy="76.27" r="49.2"/><circle class="cls-26" cx="208.07" cy="75.98" r="49.2"/><circle class="cls-26" cx="207.11" cy="75.69" r="49.2"/><circle class="cls-26" cx="206.16" cy="75.4" r="49.2"/><circle class="cls-27" cx="205.2" cy="75.12" r="49.2"/><circle class="cls-27" cx="204.24" cy="74.83" r="49.2"/><circle class="cls-28" cx="203.28" cy="74.54" r="49.2"/><circle class="cls-29" cx="202.32" cy="74.25" r="49.2"/><circle class="cls-29" cx="201.37" cy="73.97" r="49.2"/><circle class="cls-30" cx="200.41" cy="73.68" r="49.2"/><circle class="cls-31" cx="199.45" cy="73.39" r="49.2"/><circle class="cls-31" cx="198.49" cy="73.1" r="49.2"/><circle class="cls-31" cx="197.53" cy="72.82" r="49.2"/><circle class="cls-32" cx="196.58" cy="72.53" r="49.2"/><circle class="cls-32" cx="195.62" cy="72.24" r="49.2"/><circle class="cls-33" cx="194.66" cy="71.96" r="49.2"/><circle class="cls-34" cx="193.7" cy="71.67" r="49.2"/><circle class="cls-35" cx="192.75" cy="71.38" r="49.2"/><circle class="cls-35" cx="191.79" cy="71.09" r="49.2"/><circle class="cls-36" cx="190.83" cy="70.81" r="49.2"/><circle class="cls-36" cx="189.87" cy="70.52" r="49.2"/><circle class="cls-36" cx="188.91" cy="70.23" r="49.2"/><circle class="cls-37" cx="187.96" cy="69.94" r="49.2"/><circle class="cls-37" cx="187" cy="69.66" r="49.2"/><circle class="cls-38" cx="186.04" cy="69.37" r="49.2"/><circle class="cls-39" cx="185.08" cy="69.08" r="49.2"/><circle class="cls-39" cx="184.13" cy="68.79" r="49.2"/><circle class="cls-39" cx="183.17" cy="68.51" r="49.2"/><circle class="cls-40" cx="182.21" cy="68.22" r="49.2"/><circle class="cls-40" cx="181.25" cy="67.93" r="49.2"/><circle class="cls-40" cx="180.29" cy="67.64" r="49.2"/><circle class="cls-41" cx="179.34" cy="67.36" r="49.2"/><circle class="cls-41" cx="178.38" cy="67.07" r="49.2"/><circle class="cls-42" cx="177.42" cy="66.78" r="49.2"/><circle class="cls-43" cx="176.46" cy="66.5" r="49.2"/><circle class="cls-43" cx="175.5" cy="66.21" r="49.2"/><circle class="cls-43" cx="174.55" cy="65.92" r="49.2"/><circle class="cls-44" cx="173.59" cy="65.63" r="49.2"/><circle class="cls-44" cx="172.63" cy="65.35" r="49.2"/><circle class="cls-44" cx="171.67" cy="65.06" r="49.2"/><circle class="cls-45" cx="170.72" cy="64.77" r="49.2"/><circle class="cls-46" cx="169.76" cy="64.48" r="49.2"/><circle class="cls-46" cx="168.8" cy="64.2" r="49.2"/><circle class="cls-47" cx="167.84" cy="63.91" r="49.2"/><circle class="cls-47" cx="166.88" cy="63.62" r="49.2"/><circle class="cls-48" cx="165.93" cy="63.33" r="49.2"/><circle class="cls-48" cx="164.97" cy="63.05" r="49.2"/><circle class="cls-48" cx="164.01" cy="62.76" r="49.2"/><circle class="cls-49" cx="163.05" cy="62.47" r="49.2"/><circle class="cls-50" cx="162.09" cy="62.19" r="49.2"/><circle class="cls-51" cx="161.14" cy="61.9" r="49.2"/><circle class="cls-52" cx="160.18" cy="61.61" r="49.2"/><circle class="cls-52" cx="159.22" cy="61.32" r="49.2"/><circle class="cls-52" cx="158.26" cy="61.04" r="49.2"/><circle class="cls-53" cx="157.31" cy="60.75" r="49.2"/><circle class="cls-53" cx="156.35" cy="60.46" r="49.2"/><circle class="cls-53" cx="155.39" cy="60.17" r="49.2"/><circle class="cls-54" cx="154.43" cy="59.89" r="49.2"/><circle class="cls-54" cx="153.47" cy="59.6" r="49.2"/><circle class="cls-55" cx="152.52" cy="59.31" r="49.2"/><circle class="cls-56" cx="151.56" cy="59.02" r="49.2"/><circle class="cls-56" cx="150.6" cy="58.74" r="49.2"/><circle class="cls-56" cx="149.64" cy="58.45" r="49.2"/><circle class="cls-57" cx="148.68" cy="58.16" r="49.2"/><circle class="cls-57" cx="147.73" cy="57.87" r="49.2"/><circle class="cls-58" cx="146.77" cy="57.59" r="49.2"/><circle class="cls-59" cx="145.81" cy="57.3" r="49.2"/><circle class="cls-59" cx="144.85" cy="57.01" r="49.2"/><circle class="cls-60" cx="143.9" cy="56.73" r="49.2"/><circle class="cls-61" cx="142.94" cy="56.44" r="49.2"/><circle class="cls-61" cx="141.98" cy="56.15" r="49.2"/><circle class="cls-61" cx="141.02" cy="55.86" r="49.2"/><circle class="cls-62" cx="140.06" cy="55.58" r="49.2"/><circle class="cls-63" cx="139.11" cy="55.29" r="49.2"/><circle class="cls-63" cx="138.15" cy="55" r="49.2"/><circle class="cls-64" cx="137.19" cy="54.71" r="49.2"/><circle class="cls-64" cx="136.23" cy="54.43" r="49.2"/><circle class="cls-65" cx="135.28" cy="54.14" r="49.2"/><circle class="cls-66" cx="134.32" cy="53.85" r="49.2"/><circle class="cls-66" cx="133.36" cy="53.56" r="49.2"/><circle class="cls-67" cx="132.4" cy="53.28" r="49.2"/><circle class="cls-68" cx="131.44" cy="52.99" r="49.2"/><circle class="cls-68" cx="130.49" cy="52.7" r="49.2"/><circle class="cls-68" cx="129.53" cy="52.41" r="49.2"/><circle class="cls-69" cx="128.57" cy="52.13" r="49.2"/><circle class="cls-70" cx="127.61" cy="51.84" r="49.2"/><circle class="cls-70" cx="126.65" cy="51.55" r="49.2"/><circle class="cls-71" cx="125.7" cy="51.27" r="49.2"/><circle class="cls-72" cx="124.74" cy="50.98" r="49.2"/><circle class="cls-72" cx="123.78" cy="50.69" r="49.2"/><circle class="cls-73" cx="122.82" cy="50.4" r="49.2"/><circle class="cls-73" cx="121.87" cy="50.12" r="49.2"/><circle class="cls-73" cx="120.91" cy="49.83" r="49.2"/><circle class="cls-74" cx="119.95" cy="49.54" r="49.2"/><circle class="cls-75" cx="118.99" cy="49.25" r="49.2"/><circle class="cls-75" cx="119.17" cy="49.71" r="49.2"/><circle class="cls-76" cx="119.81" cy="50.48" r="49.2"/><circle class="cls-76" cx="120.45" cy="51.25" r="49.2"/><circle class="cls-76" cx="121.09" cy="52.02" r="49.2"/><circle class="cls-77" cx="121.73" cy="52.79" r="49.2"/><circle class="cls-77" cx="122.37" cy="53.56" r="49.2"/><circle class="cls-77" cx="123.01" cy="54.32" r="49.2"/><circle class="cls-78" cx="123.65" cy="55.09" r="49.2"/><circle class="cls-79" cx="124.29" cy="55.86" r="49.2"/><circle class="cls-80" cx="124.93" cy="56.63" r="49.2"/><circle class="cls-81" cx="125.57" cy="57.4" r="49.2"/><circle class="cls-81" cx="126.21" cy="58.16" r="49.2"/><circle class="cls-81" cx="126.85" cy="58.93" r="49.2"/><circle class="cls-82" cx="127.49" cy="59.7" r="49.2"/><circle class="cls-82" cx="128.13" cy="60.47" r="49.2"/><circle class="cls-83" cx="128.77" cy="61.24" r="49.2"/><circle class="cls-83" cx="129.41" cy="62.01" r="49.2"/><circle class="cls-84" cx="130.05" cy="62.77" r="49.2"/><circle class="cls-85" cx="130.69" cy="63.54" r="49.2"/><circle class="cls-85" cx="131.33" cy="64.31" r="49.2"/><circle class="cls-85" cx="131.97" cy="65.08" r="49.2"/><circle class="cls-86" cx="132.61" cy="65.85" r="49.2"/><circle class="cls-86" cx="133.25" cy="66.62" r="49.2"/><circle class="cls-86" cx="133.89" cy="67.38" r="49.2"/><circle class="cls-87" cx="134.53" cy="68.15" r="49.2"/><circle class="cls-88" cx="135.17" cy="68.92" r="49.2"/><circle class="cls-88" cx="135.81" cy="69.69" r="49.2"/><circle class="cls-89" cx="136.45" cy="70.46" r="49.2"/><circle class="cls-89" cx="137.09" cy="71.22" r="49.2"/><circle class="cls-89" cx="137.73" cy="71.99" r="49.2"/><circle class="cls-90" cx="138.37" cy="72.76" r="49.2"/><circle class="cls-90" cx="139.01" cy="73.53" r="49.2"/><circle class="cls-90" cx="139.65" cy="74.3" r="49.2"/><circle class="cls-91" cx="140.29" cy="75.07" r="49.2"/><circle class="cls-92" cx="140.93" cy="75.83" r="49.2"/><circle class="cls-92" cx="141.57" cy="76.6" r="49.2"/><circle class="cls-93" cx="142.21" cy="77.37" r="49.2"/><circle class="cls-93" cx="142.85" cy="78.14" r="49.2"/><circle class="cls-93" cx="143.49" cy="78.91" r="49.2"/><circle class="cls-94" cx="144.13" cy="79.68" r="49.2"/><circle class="cls-94" cx="144.77" cy="80.44" r="49.2"/><circle class="cls-95" cx="145.41" cy="81.21" r="49.2"/><circle class="cls-96" cx="146.05" cy="81.98" r="49.2"/><circle class="cls-97" cx="146.69" cy="82.75" r="49.2"/><circle class="cls-97" cx="147.33" cy="83.52" r="49.2"/><circle class="cls-98" cx="147.97" cy="84.28" r="49.2"/><circle class="cls-98" cx="148.61" cy="85.05" r="49.2"/><circle class="cls-98" cx="149.26" cy="85.82" r="49.2"/><circle class="cls-99" cx="149.9" cy="86.59" r="49.2"/><circle class="cls-100" cx="150.54" cy="87.36" r="49.2"/><circle class="cls-100" cx="151.18" cy="88.13" r="49.2"/><circle class="cls-101" cx="151.82" cy="88.89" r="49.2"/><circle class="cls-102" cx="152.46" cy="89.66" r="49.2"/><circle class="cls-102" cx="153.1" cy="90.43" r="49.2"/><circle class="cls-103" cx="153.74" cy="91.2" r="49.2"/><circle class="cls-103" cx="154.38" cy="91.97" r="49.2"/><circle class="cls-103" cx="155.02" cy="92.74" r="49.2"/><circle class="cls-104" cx="155.66" cy="93.5" r="49.2"/><circle class="cls-104" cx="156.3" cy="94.27" r="49.2"/><circle class="cls-104" cx="156.94" cy="95.04" r="49.2"/><circle class="cls-105" cx="157.58" cy="95.81" r="49.2"/><circle class="cls-105" cx="158.22" cy="96.58" r="49.2"/><circle class="cls-105" cx="158.86" cy="97.34" r="49.2"/><circle class="cls-106" cx="159.5" cy="98.11" r="49.2"/><circle class="cls-106" cx="160.14" cy="98.88" r="49.2"/><circle class="cls-107" cx="160.78" cy="99.65" r="49.2"/><circle class="cls-108" cx="161.42" cy="100.42" r="49.2"/><circle class="cls-108" cx="162.06" cy="101.19" r="49.2"/><circle class="cls-108" cx="162.7" cy="101.95" r="49.2"/><circle class="cls-109" cx="163.34" cy="102.72" r="49.2"/><circle class="cls-109" cx="163.98" cy="103.49" r="49.2"/><circle class="cls-109" cx="164.62" cy="104.26" r="49.2"/><circle class="cls-110" cx="165.26" cy="105.03" r="49.2"/><circle class="cls-111" cx="165.9" cy="105.8" r="49.2"/><circle class="cls-111" cx="166.54" cy="106.56" r="49.2"/><circle class="cls-112" cx="167.18" cy="107.33" r="49.2"/><circle class="cls-112" cx="167.82" cy="108.1" r="49.2"/><circle class="cls-113" cx="168.46" cy="108.87" r="49.2"/><circle class="cls-114" cx="169.1" cy="109.64" r="49.2"/><circle class="cls-114" cx="169.74" cy="110.4" r="49.2"/><circle class="cls-115" cx="170.38" cy="111.17" r="49.2"/><circle class="cls-116" cx="171.02" cy="111.94" r="49.2"/><circle class="cls-116" cx="171.66" cy="112.71" r="49.2"/><circle class="cls-117" cx="172.3" cy="113.48" r="49.2"/><circle class="cls-117" cx="172.94" cy="114.25" r="49.2"/><circle class="cls-117" cx="173.58" cy="115.01" r="49.2"/><circle class="cls-118" cx="174.22" cy="115.78" r="49.2"/><circle class="cls-119" cx="174.86" cy="116.55" r="49.2"/><circle class="cls-119" cx="175.5" cy="117.32" r="49.2"/><circle class="cls-120" cx="176.14" cy="118.09" r="49.2"/><circle class="cls-120" cx="176.78" cy="118.86" r="49.2"/><circle class="cls-120" cx="177.42" cy="119.62" r="49.2"/><circle class="cls-121" cx="178.06" cy="120.39" r="49.2"/><circle class="cls-121" cx="178.7" cy="121.16" r="49.2"/><circle class="cls-121" cx="179.34" cy="121.93" r="49.2"/><circle class="cls-122" cx="179.98" cy="122.7" r="49.2"/><circle class="cls-122" cx="180.62" cy="123.46" r="49.2"/><circle class="cls-123" cx="181.26" cy="124.23" r="49.2"/><circle class="cls-124" cx="181.9" cy="125" r="49.2"/><circle class="cls-124" cx="182.55" cy="125.77" r="49.2"/><circle class="cls-124" cx="183.19" cy="126.54" r="49.2"/><circle class="cls-125" cx="183.83" cy="127.31" r="49.2"/><circle class="cls-125" cx="184.47" cy="128.07" r="49.2"/><circle class="cls-125" cx="185.11" cy="128.84" r="49.2"/><circle class="cls-126" cx="185.75" cy="129.61" r="49.2"/><circle class="cls-127" cx="186.39" cy="130.38" r="49.2"/><circle class="cls-127" cx="187.03" cy="131.15" r="49.2"/><circle class="cls-128" cx="187.67" cy="131.92" r="49.2"/><circle class="cls-128" cx="188.3" cy="132.67" r="49.2"/><circle class="cls-128" cx="187.32" cy="132.38" r="49.2"/><circle class="cls-129" cx="186.36" cy="132.09" r="49.2"/><circle class="cls-129" cx="185.41" cy="131.8" r="49.2"/><circle class="cls-130" cx="184.45" cy="131.52" r="49.2"/><circle class="cls-131" cx="183.49" cy="131.23" r="49.2"/><circle class="cls-131" cx="182.53" cy="130.94" r="49.2"/><circle class="cls-131" cx="181.57" cy="130.65" r="49.2"/><circle class="cls-132" cx="180.62" cy="130.37" r="49.2"/><circle class="cls-132" cx="179.66" cy="130.08" r="49.2"/><circle class="cls-132" cx="178.7" cy="129.79" r="49.2"/><circle class="cls-133" cx="177.74" cy="129.5" r="49.2"/><circle class="cls-134" cx="176.78" cy="129.22" r="49.2"/><circle class="cls-134" cx="175.83" cy="128.93" r="49.2"/><circle class="cls-135" cx="174.87" cy="128.64" r="49.2"/><circle class="cls-135" cx="173.91" cy="128.35" r="49.2"/><circle class="cls-135" cx="172.95" cy="128.07" r="49.2"/><circle class="cls-136" cx="172" cy="127.78" r="49.2"/><circle class="cls-136" cx="171.04" cy="127.49" r="49.2"/><circle class="cls-136" cx="170.08" cy="127.21" r="49.2"/><circle class="cls-137" cx="169.12" cy="126.92" r="49.2"/><circle class="cls-137" cx="168.16" cy="126.63" r="49.2"/><circle class="cls-138" cx="167.21" cy="126.34" r="49.2"/><circle class="cls-139" cx="166.25" cy="126.06" r="49.2"/><circle class="cls-139" cx="165.29" cy="125.77" r="49.2"/><circle class="cls-139" cx="164.33" cy="125.48" r="49.2"/><circle class="cls-140" cx="163.38" cy="125.19" r="49.2"/><circle class="cls-140" cx="162.42" cy="124.91" r="49.2"/><circle class="cls-141" cx="161.46" cy="124.62" r="49.2"/><circle class="cls-142" cx="160.5" cy="124.33" r="49.2"/><circle class="cls-142" cx="159.54" cy="124.04" r="49.2"/><circle class="cls-143" cx="158.59" cy="123.76" r="49.2"/><circle class="cls-144" cx="157.63" cy="123.47" r="49.2"/><circle class="cls-144" cx="156.67" cy="123.18" r="49.2"/><circle class="cls-145" cx="155.71" cy="122.9" r="49.2"/><circle class="cls-145" cx="154.75" cy="122.61" r="49.2"/><circle class="cls-146" cx="153.8" cy="122.32" r="49.2"/><circle class="cls-147" cx="152.84" cy="122.03" r="49.2"/><circle class="cls-147" cx="151.88" cy="121.75" r="49.2"/><circle class="cls-147" cx="150.92" cy="121.46" r="49.2"/><circle class="cls-148" cx="149.97" cy="121.17" r="49.2"/><circle class="cls-148" cx="149.01" cy="120.88" r="49.2"/><circle class="cls-148" cx="148.05" cy="120.6" r="49.2"/><circle class="cls-149" cx="147.09" cy="120.31" r="49.2"/><circle class="cls-150" cx="146.13" cy="120.02" r="49.2"/><circle class="cls-150" cx="145.18" cy="119.73" r="49.2"/><circle class="cls-151" cx="144.22" cy="119.45" r="49.2"/><circle class="cls-151" cx="143.26" cy="119.16" r="49.2"/><circle class="cls-151" cx="142.3" cy="118.87" r="49.2"/><circle class="cls-152" cx="141.34" cy="118.58" r="49.2"/><circle class="cls-152" cx="140.39" cy="118.3" r="49.2"/><circle class="cls-152" cx="139.43" cy="118.01" r="49.2"/><circle class="cls-153" cx="138.47" cy="117.72" r="49.2"/><circle class="cls-153" cx="137.51" cy="117.44" r="49.2"/><circle class="cls-153" cx="136.56" cy="117.15" r="49.2"/><circle class="cls-154" cx="135.6" cy="116.86" r="49.2"/><circle class="cls-154" cx="134.64" cy="116.57" r="49.2"/><circle class="cls-155" cx="133.68" cy="116.29" r="49.2"/><circle class="cls-156" cx="132.72" cy="116" r="49.2"/><circle class="cls-156" cx="131.77" cy="115.71" r="49.2"/><circle class="cls-157" cx="130.81" cy="115.42" r="49.2"/><circle class="cls-158" cx="129.85" cy="115.14" r="49.2"/><circle class="cls-158" cx="128.89" cy="114.85" r="49.2"/><circle class="cls-158" cx="127.93" cy="114.56" r="49.2"/><circle class="cls-159" cx="126.98" cy="114.27" r="49.2"/><circle class="cls-159" cx="126.02" cy="113.99" r="49.2"/><circle class="cls-160" cx="125.06" cy="113.7" r="49.2"/><circle class="cls-161" cx="124.1" cy="113.41" r="49.2"/><circle class="cls-162" cx="123.15" cy="113.13" r="49.2"/><circle class="cls-162" cx="122.19" cy="112.84" r="49.2"/><circle class="cls-163" cx="121.23" cy="112.55" r="49.2"/><circle class="cls-163" cx="120.27" cy="112.26" r="49.2"/><circle class="cls-163" cx="119.31" cy="111.98" r="49.2"/><circle class="cls-164" cx="118.36" cy="111.69" r="49.2"/><circle class="cls-164" cx="117.4" cy="111.4" r="49.2"/><circle class="cls-165" cx="116.44" cy="111.11" r="49.2"/><circle class="cls-166" cx="115.48" cy="110.83" r="49.2"/><circle class="cls-166" cx="114.53" cy="110.54" r="49.2"/><circle class="cls-166" cx="113.57" cy="110.25" r="49.2"/><circle class="cls-167" cx="112.61" cy="109.96" r="49.2"/><circle class="cls-167" cx="111.65" cy="109.68" r="49.2"/><circle class="cls-167" cx="110.69" cy="109.39" r="49.2"/><circle class="cls-168" cx="109.74" cy="109.1" r="49.2"/><circle class="cls-168" cx="108.78" cy="108.81" r="49.2"/><circle class="cls-169" cx="107.82" cy="108.53" r="49.2"/><circle class="cls-170" cx="106.86" cy="108.24" r="49.2"/><circle class="cls-170" cx="105.9" cy="107.95" r="49.2"/><circle class="cls-170" cx="104.95" cy="107.67" r="49.2"/><circle class="cls-171" cx="103.99" cy="107.38" r="49.2"/><circle class="cls-171" cx="103.03" cy="107.09" r="49.2"/><circle class="cls-171" cx="102.07" cy="106.8" r="49.2"/><circle class="cls-172" cx="101.12" cy="106.52" r="49.2"/><circle class="cls-173" cx="100.16" cy="106.23" r="49.2"/><circle class="cls-173" cx="99.2" cy="105.94" r="49.2"/><circle class="cls-174" cx="98.24" cy="105.65" r="49.2"/><circle class="cls-174" cx="97.28" cy="105.37" r="49.2"/><circle class="cls-175" cx="96.33" cy="105.08" r="49.2"/><circle class="cls-175" cx="95.37" cy="104.79" r="49.2"/><circle class="cls-175" cx="94.41" cy="104.5" r="49.2"/><circle class="cls-176" cx="93.45" cy="104.22" r="49.2"/><circle class="cls-177" cx="92.49" cy="103.93" r="49.2"/><circle class="cls-178" cx="91.54" cy="103.64" r="49.2"/><circle class="cls-179" cx="90.58" cy="103.36" r="49.2"/><circle class="cls-179" cx="89.62" cy="103.07" r="49.2"/><circle class="cls-179" cx="88.66" cy="102.78" r="49.2"/><circle class="cls-180" cx="87.71" cy="102.49" r="49.2"/><circle class="cls-180" cx="86.75" cy="102.21" r="49.2"/><circle class="cls-180" cx="85.79" cy="101.92" r="49.2"/><circle class="cls-181" cx="84.83" cy="101.63" r="49.2"/><circle class="cls-181" cx="83.87" cy="101.34" r="49.2"/><circle class="cls-182" cx="82.92" cy="101.06" r="49.2"/><circle class="cls-183" cx="81.96" cy="100.77" r="49.2"/><circle class="cls-183" cx="81" cy="100.48" r="49.2"/><circle class="cls-183" cx="80.04" cy="100.19" r="49.2"/><circle class="cls-184" cx="79.09" cy="99.91" r="49.2"/><circle class="cls-184" cx="78.13" cy="99.62" r="49.2"/><circle class="cls-185" cx="77.17" cy="99.33" r="49.2"/><circle class="cls-186" cx="76.21" cy="99.04" r="49.2"/><circle class="cls-186" cx="75.25" cy="98.76" r="49.2"/><circle class="cls-187" cx="74.3" cy="98.47" r="49.2"/><circle class="cls-188" cx="73.34" cy="98.18" r="49.2"/><circle class="cls-188" cx="72.38" cy="97.9" r="49.2"/><circle class="cls-188" cx="71.42" cy="97.61" r="49.2"/><circle class="cls-189" cx="70.46" cy="97.32" r="49.2"/><circle class="cls-190" cx="69.51" cy="97.03" r="49.2"/><circle class="cls-190" cx="68.55" cy="96.75" r="49.2"/><circle class="cls-191" cx="67.59" cy="96.46" r="49.2"/><circle class="cls-192" cx="66.63" cy="96.17" r="49.2"/><circle class="cls-192" cx="65.68" cy="95.88" r="49.2"/><circle class="cls-193" cx="64.72" cy="95.6" r="49.2"/><circle class="cls-193" cx="63.76" cy="95.31" r="49.2"/><circle class="cls-194" cx="62.8" cy="95.02" r="49.2"/><circle class="cls-195" cx="61.84" cy="94.73" r="49.2"/><circle class="cls-195" cx="60.89" cy="94.45" r="49.2"/><circle class="cls-195" cx="59.93" cy="94.16" r="49.2"/><circle class="cls-196" cx="58.97" cy="93.87" r="49.2"/><circle class="cls-197" cx="58.01" cy="93.59" r="49.2"/><circle class="cls-197" cx="57.05" cy="93.3" r="49.2"/><circle class="cls-198" cx="56.1" cy="93.01" r="49.2"/><circle class="cls-199" cx="55.14" cy="92.72" r="49.2"/><circle class="cls-199" cx="54.18" cy="92.44" r="49.2"/><circle class="cls-200" cx="53.22" cy="92.15" r="49.2"/><circle class="cls-200" cx="52.27" cy="91.86" r="49.2"/><circle class="cls-200" cx="51.31" cy="91.57" r="49.2"/><circle class="cls-201" cx="50.35" cy="91.29" r="49.2"/><circle class="cls-202" cx="49.39" cy="91" r="49.2"/><circle class="cls-202" cx="49.14" cy="90.93" r="49.2"/><circle class="cls-203" cx="49.18" cy="90.98" r="49.2"/><circle class="cls-203" cx="49.25" cy="91.07" r="49.2"/><circle class="cls-203" cx="49.36" cy="91.2" r="49.2"/><circle class="cls-204" cx="49.49" cy="91.37" r="49.2"/><circle class="cls-204" cx="49.66" cy="91.57" r="49.2"/><circle class="cls-204" cx="49.86" cy="91.82" r="49.2"/><circle class="cls-205" cx="50.09" cy="92.1" r="49.2"/><circle class="cls-206" cx="50.34" cy="92.41" r="49.2"/><circle class="cls-207" cx="50.63" cy="92.76" r="49.2"/><circle class="cls-208" cx="50.94" cy="93.14" r="49.2"/><circle class="cls-208" cx="51.28" cy="93.56" r="49.2"/><circle class="cls-208" cx="51.64" cy="94.01" r="49.2"/><circle class="cls-209" cx="52.03" cy="94.49" r="49.2"/><circle class="cls-209" cx="52.45" cy="95" r="49.2"/><circle class="cls-210" cx="52.89" cy="95.55" r="49.2"/><circle class="cls-210" cx="53.36" cy="96.12" r="49.2"/><circle class="cls-211" cx="53.85" cy="96.72" r="49.2"/><circle class="cls-212" cx="54.36" cy="97.35" r="49.2"/><circle class="cls-212" cx="54.89" cy="98" r="49.2"/><circle class="cls-212" cx="55.45" cy="98.69" r="49.2"/><circle class="cls-213" cx="56.03" cy="99.39" r="49.2"/><circle class="cls-213" cx="56.63" cy="100.13" r="49.2"/><circle class="cls-213" cx="57.24" cy="100.89" r="49.2"/><circle class="cls-214" cx="57.88" cy="101.67" r="49.2"/><circle class="cls-215" cx="58.54" cy="102.47" r="49.2"/><circle class="cls-215" cx="59.21" cy="103.3" r="49.2"/><circle class="cls-216" cx="59.9" cy="104.14" r="49.2"/><circle class="cls-216" cx="60.61" cy="105.01" r="49.2"/><circle class="cls-216" cx="61.34" cy="105.9" r="49.2"/><circle class="cls-217" cx="62.08" cy="106.81" r="49.2"/><circle class="cls-217" cx="62.83" cy="107.73" r="49.2"/><circle class="cls-217" cx="63.6" cy="108.67" r="49.2"/><circle class="cls-218" cx="64.38" cy="109.63" r="49.2"/><circle class="cls-219" cx="65.18" cy="110.61" r="49.2"/><circle class="cls-219" cx="65.99" cy="111.6" r="49.2"/><circle class="cls-220" cx="66.81" cy="112.6" r="49.2"/><circle class="cls-220" cx="67.65" cy="113.62" r="49.2"/><circle class="cls-220" cx="68.49" cy="114.65" r="49.2"/><circle class="cls-221" cx="69.35" cy="115.7" r="49.2"/><circle class="cls-221" cx="70.21" cy="116.75" r="49.2"/><circle class="cls-222" cx="71.08" cy="117.82" r="49.2"/><circle class="cls-223" cx="71.96" cy="118.9" r="49.2"/><circle class="cls-224" cx="72.85" cy="119.98" r="49.2"/><circle class="cls-224" cx="73.75" cy="121.08" r="49.2"/><circle class="cls-225" cx="74.65" cy="122.18" r="49.2"/><circle class="cls-225" cx="75.56" cy="123.29" r="49.2"/><circle class="cls-225" cx="76.48" cy="124.4" r="49.2"/><circle class="cls-226" cx="77.4" cy="125.52" r="49.2"/><circle class="cls-227" cx="78.32" cy="126.65" r="49.2"/><circle class="cls-227" cx="79.25" cy="127.78" r="49.2"/><circle class="cls-228" cx="80.18" cy="128.91" r="49.2"/><circle class="cls-229" cx="81.11" cy="130.04" r="49.2"/><circle class="cls-229" cx="82.05" cy="131.18" r="49.2"/><circle class="cls-230" cx="82.99" cy="132.32" r="49.2"/><circle class="cls-230" cx="83.92" cy="133.46" r="49.2"/><circle class="cls-230" cx="84.86" cy="134.59" r="49.2"/><circle class="cls-231" cx="85.8" cy="135.73" r="49.2"/><circle class="cls-231" cx="86.73" cy="136.86" r="49.2"/><circle class="cls-231" cx="87.67" cy="138" r="49.2"/><circle class="cls-232" cx="88.6" cy="139.12" r="49.2"/><circle class="cls-232" cx="89.53" cy="140.25" r="49.2"/><circle class="cls-232" cx="90.45" cy="141.37" r="49.2"/><circle class="cls-233" cx="91.37" cy="142.48" r="49.2"/><circle class="cls-233" cx="92.29" cy="143.59" r="49.2"/><circle class="cls-234" cx="93.2" cy="144.69" r="49.2"/><circle class="cls-235" cx="94.1" cy="145.78" r="49.2"/><circle class="cls-235" cx="95" cy="146.86" r="49.2"/><circle class="cls-235" cx="95.89" cy="147.93" r="49.2"/><circle class="cls-236" cx="96.77" cy="148.99" r="49.2"/><circle class="cls-236" cx="97.65" cy="150.05" r="49.2"/><circle class="cls-236" cx="98.51" cy="151.09" r="49.2"/><circle class="cls-237" cx="99.37" cy="152.11" r="49.2"/><circle class="cls-238" cx="100.21" cy="153.13" r="49.2"/><circle class="cls-238" cx="101.05" cy="154.13" r="49.2"/><circle class="cls-239" cx="101.87" cy="155.11" r="49.2"/><circle class="cls-239" cx="102.68" cy="156.08" r="49.2"/><circle class="cls-240" cx="103.48" cy="157.04" r="49.2"/><circle class="cls-241" cx="104.27" cy="157.97" r="49.2"/><circle class="cls-241" cx="105.04" cy="158.89" r="49.2"/><circle class="cls-242" cx="105.8" cy="159.79" r="49.2"/><circle class="cls-243" cx="106.54" cy="160.67" r="49.2"/><circle class="cls-243" cx="107.27" cy="161.53" r="49.2"/><circle class="cls-244" cx="107.98" cy="162.37" r="49.2"/><circle class="cls-244" cx="108.67" cy="163.19" r="49.2"/><circle class="cls-244" cx="109.35" cy="163.99" r="49.2"/><circle class="cls-245" cx="110.01" cy="164.76" r="49.2"/><circle class="cls-246" cx="110.65" cy="165.51" r="49.2"/><circle class="cls-246" cx="111.27" cy="166.23" r="49.2"/><circle class="cls-247" cx="111.87" cy="166.93" r="49.2"/><circle class="cls-247" cx="112.45" cy="167.61" r="49.2"/><circle class="cls-247" cx="113.01" cy="168.25" r="49.2"/><circle class="cls-248" cx="113.54" cy="168.87" r="49.2"/><circle class="cls-248" cx="114.06" cy="169.46" r="49.2"/><circle class="cls-248" cx="114.55" cy="170.03" r="49.2"/><circle class="cls-249" cx="115.02" cy="170.56" r="49.2"/><circle class="cls-249" cx="115.47" cy="171.06" r="49.2"/><circle class="cls-250" cx="115.89" cy="171.53" r="49.2"/><circle class="cls-251" cx="116.28" cy="171.97" r="49.2"/><circle class="cls-251" cx="116.65" cy="172.37" r="49.2"/><circle class="cls-251" cx="116.99" cy="172.74" r="49.2"/><circle class="cls-252" cx="117.31" cy="173.08" r="49.2"/><circle class="cls-252" cx="117.6" cy="173.38" r="49.2"/><circle class="cls-252" cx="117.86" cy="173.65" r="49.2"/><circle class="cls-253" cx="118.09" cy="173.88" r="49.2"/><circle class="cls-254" cx="118.29" cy="174.07" r="49.2"/><circle class="cls-254" cx="118.46" cy="174.23" r="49.2"/><circle class="cls-255" cx="118.6" cy="174.34" r="49.2"/><circle class="cls-255" cx="118.71" cy="174.42" r="49.2"/><rect class="cls-256" width="307.08" height="223.62"/><path class="cls-257" d="M395.47,70.39,425.08,141l29.76-70.63h27V174h-20V100l-26.95,65.3h-19.4L388.51,100v74h-20V70.39Z"/><path class="cls-257" d="M501.19,86.31a12,12,0,0,1,0-16.74,11.59,11.59,0,0,1,8.44-3.33,11.8,11.8,0,0,1,8.59,3.33,12,12,0,0,1,0,16.74,11.8,11.8,0,0,1-8.59,3.33A11.59,11.59,0,0,1,501.19,86.31ZM499.56,174V96.6H520V174Z"/><path class="cls-257" d="M576.85,94.67q26.8,0,26.81,34.65V174H583.22V127a13.81,13.81,0,0,0-3.77-10.07,12.33,12.33,0,0,0-9.11-3.85,13,13,0,0,0-10,4.07,14.76,14.76,0,0,0-3.78,10.44V174H536.13V96.6h20v9a24.81,24.81,0,0,1,20.72-11Z"/><path class="cls-257" d="M694.87,67V174H675.62v-8a22.5,22.5,0,0,1-3.93,3.84,31.13,31.13,0,0,1-7.77,4A30.81,30.81,0,0,1,652.67,176q-16.74,0-27.32-11.32t-10.59-29.25q0-18.06,10.07-29.39t26.65-11.33q8.74,0,14.66,3.41t8.3,6.66V67ZM675,135.54q0-10.66-5.56-16.73a18.47,18.47,0,0,0-14.29-6.07,18,18,0,0,0-14.36,6.36q-5.48,6.38-5.48,16.44,0,10.22,5.56,16.29a18.46,18.46,0,0,0,14.28,6.07q9,0,14.44-6.44T675,135.54Z"/><path class="cls-257" d="M712.78,174V70.39h20.88v84.84h33.76V174Z"/><path class="cls-257" d="M773.79,150.05a23.22,23.22,0,0,1,8.29-18.51q8.29-7.11,21.77-7.1,10.51,0,16.73,4.29v-5a10.32,10.32,0,0,0-3.7-8.3q-3.71-3.11-10.37-3.11-9.91,0-20.58,5.48l-7.7-13.92a54.22,54.22,0,0,1,13.85-6.51,53.59,53.59,0,0,1,16.65-2.67q17.47,0,24.88,8.07T841,125v49H823l-1.33-5q-6.52,7-18.81,7t-20.66-7Q773.8,161.91,773.79,150.05Zm24.13-8.37a9.65,9.65,0,0,0-3.7,7.78,9.26,9.26,0,0,0,3.85,7.7,17.3,17.3,0,0,0,19.25.07,9.32,9.32,0,0,0,3.7-7.77,9.48,9.48,0,0,0-3.7-7.92q-3.71-2.89-9.77-2.89A14.78,14.78,0,0,0,797.92,141.68Z"/><path class="cls-257" d="M856.11,174V67h20.44v37.76q2.37-3.26,8.29-6.66t14.66-3.41q16.57,0,26.65,11.33t10.07,29.39q0,17.93-10.58,29.25T898.32,176q-8.6,0-14.44-3.33a30.34,30.34,0,0,1-8.51-6.58v8ZM876,135.54a24,24,0,0,0,5.4,15.92q5.4,6.43,14.44,6.44a18.48,18.48,0,0,0,14.29-6.07q5.55-6.08,5.55-16.29,0-10.06-5.48-16.44a18,18,0,0,0-14.36-6.36,18.47,18.47,0,0,0-14.29,6.07Q876,124.89,876,135.54Z"/><path class="cls-257" d="M955.4,164.56q-11.77-11.4-11.77-29t11.92-29.25q11.91-11.61,29.68-11.62t29.77,11.7q12,11.7,12,29.17,0,17.63-11.77,29t-30,11.4Q967.17,176,955.4,164.56Zm8.66-29q0,9.78,6,16.07a20,20,0,0,0,15.17,6.29,20.24,20.24,0,0,0,15.33-6.29q6-6.3,6-16.07t-6.07-16.36a20.08,20.08,0,0,0-15.26-6.44,19.79,19.79,0,0,0-15.17,6.44Q964.06,125.62,964.06,135.54Z"/><path class="cls-257" d="M1080,94.67V115.4q-20.88,0-20.88,24.88V174h-20.43V96.6h20v11.25A21.81,21.81,0,0,1,1067,98.3,23.49,23.49,0,0,1,1080,94.67Z"/></g></svg>