<svg xmlns="http://www.w3.org/2000/svg" viewBox="0 0 1080 731.29"><defs><style>.cls-1{fill:#fff;}</style></defs><title>logo-ver-mono-white</title><g id="Layer_3" data-name="Layer 3"><path class="cls-1" d="M40.91,571l45,107.22L131,571H172V728.37H141.61V616L100.7,715.11H71.25L30.34,616V728.37H0V571Z"/><path class="cls-1" d="M201.39,595.2a18.18,18.18,0,0,1,0-25.4,17.59,17.59,0,0,1,12.81-5.06,17.91,17.91,0,0,1,13,5.06,18.18,18.18,0,0,1,0,25.4,17.91,17.91,0,0,1-13,5.06A17.59,17.59,0,0,1,201.39,595.2Zm-2.48,133.17V610.82h31V728.37Z"/><path class="cls-1" d="M316.25,607.9q40.68,0,40.68,52.59v67.88h-31V656.9q0-9.45-5.73-15.29a18.68,18.68,0,0,0-13.82-5.84q-9.45,0-15.18,6.18t-5.73,15.85v70.57h-31V610.82h30.34v13.71a36.64,36.64,0,0,1,12.59-11.69A36.26,36.26,0,0,1,316.25,607.9Z"/><path class="cls-1" d="M495.39,565.86V728.37H466.17V716.24a34.54,34.54,0,0,1-6,5.84q-3.7,2.92-11.8,6.07a46.69,46.69,0,0,1-17.08,3.14q-25.41,0-41.47-17.19t-16.07-44.39q0-27.42,15.28-44.62t40.46-17.19q13.26,0,22.25,5.17t12.59,10.11V565.86ZM465.27,669.93q0-16.18-8.43-25.4t-21.69-9.21q-13.48,0-21.8,9.66T405,669.93q0,15.51,8.43,24.73t21.69,9.21q13.69,0,21.91-9.77T465.27,669.93Z"/><path class="cls-1" d="M522.58,728.37V571h31.69v128.8h51.25v28.54Z"/><path class="cls-1" d="M615.18,692q0-17.31,12.59-28.09t33-10.79q16,0,25.4,6.51V652a15.61,15.61,0,0,0-5.62-12.58q-5.62-4.73-15.73-4.73-15.06,0-31.25,8.32l-11.69-21.13a82.25,82.25,0,0,1,21-9.89,81.34,81.34,0,0,1,25.28-4q26.52,0,37.76,12.25T717.23,654v74.4H689.81l-2-7.64q-9.9,10.57-28.55,10.56t-31.36-10.67Q615.19,709.94,615.18,692Zm36.64-12.7a14.58,14.58,0,0,0-5.62,11.8A14.08,14.08,0,0,0,652,702.75q5.85,4.5,14.61,4.49,9,0,14.61-4.38a14.17,14.17,0,0,0,5.62-11.8,14.4,14.4,0,0,0-5.62-12q-5.61-4.38-14.83-4.39Q657.45,674.65,651.82,679.26Z"/><path class="cls-1" d="M740.15,728.37V565.86h31v57.32q3.58-4.93,12.59-10.11T806,607.9q25.17,0,40.46,17.19t15.28,44.62q0,27.19-16.07,44.39t-41.47,17.19q-13,0-21.91-5t-12.93-10v12.13Zm30.12-58.44q0,14.4,8.21,24.17t21.91,9.77q13.26,0,21.69-9.21t8.43-24.73q0-15.28-8.32-24.95t-21.8-9.66q-13.26,0-21.69,9.21T770.27,669.93Z"/><path class="cls-1" d="M890.86,714Q873,696.68,873,669.93t18.1-44.39q18.09-17.64,45.06-17.64t45.18,17.75q18.21,17.76,18.21,44.28,0,26.76-17.87,44.06t-45.52,17.3Q908.73,731.29,890.86,714ZM904,669.93q0,14.84,9.1,24.39t23,9.55q14.16,0,23.26-9.55t9.11-24.39q0-15-9.22-24.83a30.46,30.46,0,0,0-23.15-9.78q-13.93,0-23,9.78T904,669.93Z"/><path class="cls-1" d="M1080,607.9v31.47q-31.7,0-31.69,37.75v51.25h-31V610.82h30.34V627.9a33.29,33.29,0,0,1,12.59-14.5A35.72,35.72,0,0,1,1080,607.9Z"/><path class="cls-1" d="M462.63,468.53a102.6,102.6,0,0,1-52.93-14.71C391.39,442.84,387,440.23,237,255.53A103.07,103.07,0,0,1,346.59,91.82l13.33,4A103.07,103.07,0,0,1,492.34,4.37L783.85,91.82a103.07,103.07,0,0,1-59.23,197.44l-13.33-4a103.08,103.08,0,0,1-132.43,91.45l-13.31-4a103.15,103.15,0,0,1-102.92,95.81Z"/></g></svg>