<svg xmlns="http://www.w3.org/2000/svg" viewBox="0 0 1080 1080"><defs><style>.cls-1{fill:#fff;}</style></defs><title>icon-white</title><g id="Layer_3" data-name="Layer 3"><path class="cls-1" d="M417.49,933.21a172.21,172.21,0,0,1-88.85-24.68c-30.73-18.44-38-22.82-289.91-332.85a173,173,0,0,1,184-274.79l22.38,6.72A173,173,0,0,1,467.36,154.1L956.67,300.89a173,173,0,0,1,116,215.42c-27.45,91.51-123.9,143.43-215.41,116l-22.38-6.72A173,173,0,0,1,612.59,779.09l-22.34-6.7A173.14,173.14,0,0,1,417.49,933.21Z"/></g></svg>