<svg xmlns="http://www.w3.org/2000/svg" viewBox="0 0 1080 225.96"><defs><style>.cls-1{fill:#fff;}</style></defs><title>logo-mono-white</title><g id="Layer_3" data-name="Layer 3"><path class="cls-1" d="M395.47,70.39,425.08,141l29.76-70.63h27V174h-20V100l-26.95,65.3h-19.4L388.51,100v74h-20V70.39Z"/><path class="cls-1" d="M501.19,86.31a12,12,0,0,1,0-16.74,11.59,11.59,0,0,1,8.44-3.33,11.8,11.8,0,0,1,8.59,3.33,12,12,0,0,1,0,16.74,11.8,11.8,0,0,1-8.59,3.33A11.59,11.59,0,0,1,501.19,86.31ZM499.56,174V96.6H520V174Z"/><path class="cls-1" d="M576.85,94.67q26.8,0,26.81,34.65V174H583.22V127a13.81,13.81,0,0,0-3.77-10.07,12.33,12.33,0,0,0-9.11-3.85,13,13,0,0,0-10,4.07,14.76,14.76,0,0,0-3.78,10.44V174H536.13V96.6h20v9a24.81,24.81,0,0,1,20.72-11Z"/><path class="cls-1" d="M694.87,67V174H675.62v-8a22.5,22.5,0,0,1-3.93,3.84,31.13,31.13,0,0,1-7.77,4A30.81,30.81,0,0,1,652.67,176q-16.74,0-27.32-11.32t-10.59-29.25q0-18.06,10.07-29.39t26.65-11.33q8.74,0,14.66,3.41t8.3,6.66V67ZM675,135.54q0-10.66-5.56-16.73a18.47,18.47,0,0,0-14.29-6.07,18,18,0,0,0-14.36,6.36q-5.48,6.38-5.48,16.44,0,10.22,5.56,16.29a18.46,18.46,0,0,0,14.28,6.07q9,0,14.44-6.44T675,135.54Z"/><path class="cls-1" d="M712.78,174V70.39h20.88v84.84h33.76V174Z"/><path class="cls-1" d="M773.79,150.05a23.22,23.22,0,0,1,8.29-18.51q8.29-7.11,21.77-7.1,10.51,0,16.73,4.29v-5a10.32,10.32,0,0,0-3.7-8.3q-3.71-3.11-10.37-3.11-9.91,0-20.58,5.48l-7.7-13.92a54.22,54.22,0,0,1,13.85-6.51,53.59,53.59,0,0,1,16.65-2.67q17.47,0,24.88,8.07T841,125v49H823l-1.33-5q-6.52,7-18.81,7t-20.66-7Q773.8,161.91,773.79,150.05Zm24.13-8.37a9.65,9.65,0,0,0-3.7,7.78,9.26,9.26,0,0,0,3.85,7.7,17.3,17.3,0,0,0,19.25.07,9.32,9.32,0,0,0,3.7-7.77,9.48,9.48,0,0,0-3.7-7.92q-3.71-2.89-9.77-2.89A14.78,14.78,0,0,0,797.92,141.68Z"/><path class="cls-1" d="M856.11,174V67h20.44v37.76q2.37-3.26,8.29-6.66t14.66-3.41q16.57,0,26.65,11.33t10.07,29.39q0,17.93-10.58,29.25T898.32,176q-8.6,0-14.44-3.33a30.34,30.34,0,0,1-8.51-6.58v8ZM876,135.54a24,24,0,0,0,5.4,15.92q5.4,6.43,14.44,6.44a18.48,18.48,0,0,0,14.29-6.07q5.55-6.08,5.55-16.29,0-10.06-5.48-16.44a18,18,0,0,0-14.36-6.36,18.47,18.47,0,0,0-14.29,6.07Q876,124.89,876,135.54Z"/><path class="cls-1" d="M955.4,164.56q-11.77-11.4-11.77-29t11.92-29.25q11.91-11.61,29.68-11.62t29.77,11.7q12,11.7,12,29.17,0,17.63-11.77,29t-30,11.4Q967.17,176,955.4,164.56Zm8.66-29q0,9.78,6,16.07a20,20,0,0,0,15.17,6.29,20.24,20.24,0,0,0,15.33-6.29q6-6.3,6-16.07t-6.07-16.36a20.08,20.08,0,0,0-15.26-6.44,19.79,19.79,0,0,0-15.17,6.44Q964.06,125.62,964.06,135.54Z"/><path class="cls-1" d="M1080,94.67V115.4q-20.88,0-20.88,24.88V174h-20.43V96.6h20v11.25A21.81,21.81,0,0,1,1067,98.3,23.49,23.49,0,0,1,1080,94.67Z"/><path class="cls-1" d="M118.71,223.6a49,49,0,0,1-25.27-7C84.71,211.34,82.63,210.1,11,122A49.19,49.19,0,0,1,63.32,43.82l6.37,1.9a49.18,49.18,0,0,1,63.2-43.64L272,43.82a49.19,49.19,0,0,1-28.26,94.23l-6.37-1.91a49.18,49.18,0,0,1-63.2,43.64l-6.35-1.9a49.22,49.22,0,0,1-49.12,45.72Z"/></g></svg>