<svg width="1920" height="1080" viewBox="0 0 1920 1080" fill="none" xmlns="http://www.w3.org/2000/svg">
<g clip-path="url(#clip0)">
<rect width="1920" height="1080" fill="white"/>
<path d="M1919.5 1080C1919.5 1080 2155.85 423.952 1919.5 465.5C1770.19 491.747 1789.01 673.23 1662 756C1536.8 837.587 1426.5 840 1298 874C1169.5 908 1129 1012.5 1129 1080C1129 1388.71 1919.5 1080 1919.5 1080Z" fill="#7289DA" fill-opacity="0.5"/>
<path d="M-2.95413 2.20421C-2.95413 2.20421 -239.307 658.253 -2.95413 616.704C146.357 590.457 127.535 408.974 254.546 326.204C379.741 244.617 490.046 242.204 618.546 208.204C747.046 174.204 787.546 69.7042 787.546 2.20421C787.546 -306.505 -2.95413 2.20421 -2.95413 2.20421Z" fill="black"/>
<path d="M26.3718 -35.0533C26.3718 -35.0533 -282.729 590.022 -43.1916 575.497C108.131 566.321 109.975 383.874 245.539 316.014C379.165 249.124 489.034 259.213 620.557 239.978C752.08 220.744 804.149 121.5 811.79 54.4339C846.737 -252.291 26.3718 -35.0533 26.3718 -35.0533Z" fill="black"/>
<path d="M67.9523 -75.9759C67.9523 -75.9759 -325.134 499.998 -85.9063 518.951C65.2204 530.924 92.4381 350.51 236.127 302.177C377.763 254.535 485.158 279.817 618.078 279.074C750.998 278.331 816.372 187.299 833.273 121.949C910.568 -176.927 67.9523 -75.9759 67.9523 -75.9759Z" fill="black"/>
<path d="M1944.42 1039.66C1944.42 1039.66 2104.99 361.075 1874.86 429.112C1729.48 472.093 1768.72 650.279 1651.9 746.895C1536.74 842.13 1427.42 857.014 1303.6 905.342C1179.77 953.67 1151.36 1062.08 1159 1129.15C1193.95 1435.87 1944.42 1039.66 1944.42 1039.66Z" fill="#7289DA" fill-opacity="0.5"/>
<path d="M1963.23 1000.14C1963.23 1000.14 2051.99 308.487 1830.23 400.207C1690.14 458.149 1747.8 631.256 1641.71 739.554C1537.14 846.305 1429.97 872.535 1311.88 933.541C1193.78 994.548 1176.86 1105.34 1191.47 1171.24C1258.29 1472.63 1963.23 1000.14 1963.23 1000.14Z" fill="#7289DA" fill-opacity="0.5"/>
<rect width="1920" height="1080" fill="url(#paint0_linear)"/>
<path opacity="0.32" d="M238.672 793.096C240.592 784.136 242.384 775.432 244.048 766.984C244.688 763.336 245.36 759.56 246.064 755.656C246.768 751.752 247.408 747.88 247.984 744.04C248.624 740.2 249.168 736.488 249.616 732.904C250.128 729.256 250.512 725.96 250.768 723.016C252.24 723.144 253.904 723.272 255.76 723.4C257.616 723.464 259.344 723.56 260.944 723.688C262.864 723.816 264.784 723.88 266.704 723.88C266.64 724.136 266.544 724.616 266.416 725.32C266.288 726.024 266.128 726.888 265.936 727.912C265.744 728.872 265.52 729.96 265.264 731.176C265.072 732.392 264.848 733.608 264.592 734.824C264.08 737.64 263.504 740.808 262.864 744.328L263.44 744.232C264.08 743.208 264.976 741.8 266.128 740.008C267.344 738.152 268.592 736.2 269.872 734.152C271.152 732.104 272.4 730.152 273.616 728.296C274.832 726.376 275.856 724.744 276.688 723.4C279.888 723.144 283.088 722.856 286.288 722.536C289.488 722.216 292.688 721.8 295.888 721.288C292.88 725.32 289.968 729.288 287.152 733.192C285.936 734.856 284.688 736.584 283.408 738.376C282.192 740.168 280.976 741.928 279.76 743.656C278.544 745.384 277.392 747.048 276.304 748.648C275.28 750.248 274.352 751.72 273.52 753.064C274.928 759.528 276.592 765.768 278.512 771.784C280.432 777.8 282.384 783.944 284.368 790.216C282.896 790.152 281.392 790.12 279.856 790.12C278.32 790.056 276.816 790.024 275.344 790.024C273.488 790.024 271.696 790.056 269.968 790.12C268.24 790.12 266.448 790.152 264.592 790.216C264.016 786.056 263.376 781.704 262.672 777.16C262.032 772.552 261.424 768.168 260.848 764.008L259.12 766.024C258.672 767.944 258.16 770.312 257.584 773.128C257.072 775.944 256.56 778.664 256.048 781.288C255.472 784.36 254.864 787.528 254.224 790.792L238.672 793.096ZM287.432 793.096L300.008 724.84L330.344 722.248C329.896 723.656 329.512 725.096 329.192 726.568C328.872 727.784 328.552 729.064 328.232 730.408C327.976 731.688 327.752 732.84 327.56 733.864C326.92 733.928 325.992 733.992 324.776 734.056C323.624 734.056 322.376 734.088 321.032 734.152C319.688 734.152 318.312 734.152 316.904 734.152C315.56 734.152 314.376 734.152 313.352 734.152L309.992 751.336C311.976 751.208 313.832 751.112 315.56 751.048C316.968 750.984 318.408 750.952 319.88 750.952C321.352 750.952 322.44 750.92 323.144 750.856C322.888 752.648 322.632 754.408 322.376 756.136C322.184 757.864 321.928 759.624 321.608 761.416C320.968 761.48 319.912 761.544 318.44 761.608C317.032 761.608 315.592 761.64 314.12 761.704C312.456 761.768 310.632 761.832 308.648 761.896L305.384 779.56L319.4 777.352L318.44 788.296L287.432 793.096ZM324.47 793.096L337.047 724.84L367.383 722.248C366.935 723.656 366.551 725.096 366.231 726.568C365.911 727.784 365.591 729.064 365.271 730.408C365.015 731.688 364.791 732.84 364.599 733.864C363.959 733.928 363.031 733.992 361.815 734.056C360.663 734.056 359.415 734.088 358.071 734.152C356.727 734.152 355.351 734.152 353.943 734.152C352.599 734.152 351.415 734.152 350.391 734.152L347.031 751.336C349.015 751.208 350.871 751.112 352.599 751.048C354.007 750.984 355.447 750.952 356.919 750.952C358.391 750.952 359.479 750.92 360.183 750.856C359.927 752.648 359.671 754.408 359.415 756.136C359.223 757.864 358.967 759.624 358.647 761.416C358.007 761.48 356.951 761.544 355.479 761.608C354.071 761.608 352.631 761.64 351.159 761.704C349.495 761.768 347.671 761.832 345.687 761.896L342.423 779.56L356.439 777.352L355.479 788.296L324.47 793.096ZM360.453 793.096C362.373 784.456 364.197 776.008 365.925 767.752C366.629 764.296 367.365 760.648 368.133 756.808C368.901 752.968 369.637 749.192 370.341 745.48C371.045 741.768 371.717 738.184 372.357 734.728C372.997 731.272 373.541 728.104 373.989 725.224C375.845 724.648 377.669 724.168 379.461 723.784C381.253 723.336 383.077 722.952 384.933 722.632C386.853 722.312 388.645 722.152 390.309 722.152C393.189 722.152 395.589 722.632 397.509 723.592C399.493 724.552 401.093 725.864 402.309 727.528C403.525 729.128 404.389 731.016 404.901 733.192C405.413 735.368 405.669 737.704 405.669 740.2C405.669 743.784 404.997 747.24 403.653 750.568C402.373 753.896 400.613 756.872 398.373 759.496C396.197 762.056 393.669 764.104 390.789 765.64C387.973 767.176 385.029 767.944 381.957 767.944H380.901C380.389 770.12 379.909 772.488 379.461 775.048C379.013 777.608 378.629 779.976 378.309 782.152C377.861 784.712 377.445 787.272 377.061 789.832L360.453 793.096ZM387.237 733.768C386.533 737.992 385.829 741.992 385.125 745.768C384.421 749.544 383.653 753.576 382.821 757.864C383.845 757.608 384.901 757.032 385.989 756.136C387.141 755.176 388.197 753.96 389.157 752.488C390.117 750.952 390.885 749.192 391.461 747.208C392.037 745.224 392.325 743.144 392.325 740.968C392.325 738.6 391.781 736.808 390.693 735.592C389.669 734.376 388.517 733.768 387.237 733.768ZM431.898 791.56L436.314 772.264C436.314 769.512 436.25 766.536 436.122 763.336C436.058 760.072 435.93 756.808 435.738 753.544C435.546 750.28 435.354 747.144 435.162 744.136C434.97 741.064 434.81 738.376 434.682 736.072C434.554 733.704 434.426 731.816 434.298 730.408C434.17 729 434.106 728.296 434.106 728.296L449.754 722.344V734.056C449.754 735.656 449.754 737.288 449.754 738.952C449.754 740.616 449.722 742.248 449.658 743.848C449.658 745.448 449.658 746.952 449.658 748.36C449.658 749.768 449.658 750.952 449.658 751.912C450.49 749.736 451.482 747.048 452.634 743.848C453.85 740.648 454.97 737.544 455.994 734.536C457.21 731.016 458.458 727.304 459.738 723.4L474.618 726.76C471.866 732.264 469.178 737.736 466.554 743.176C465.466 745.544 464.314 748.008 463.098 750.568C461.882 753.064 460.666 755.592 459.45 758.152C458.234 760.648 457.05 763.08 455.898 765.448C454.746 767.816 453.69 770.024 452.73 772.072C452.41 773.736 451.994 775.56 451.482 777.544C451.034 779.528 450.586 781.416 450.138 783.208C449.562 785.32 448.954 787.432 448.314 789.544L431.898 791.56ZM517.367 741.064C517.367 746.312 516.792 751.272 515.64 755.944C514.552 760.552 513.08 764.808 511.224 768.712C509.367 772.552 507.191 776.008 504.696 779.08C502.264 782.088 499.703 784.68 497.016 786.856C494.328 788.968 491.608 790.6 488.855 791.752C486.103 792.84 483.479 793.384 480.983 793.384C478.871 793.384 476.951 793 475.223 792.232C473.495 791.4 471.991 790.216 470.711 788.68C469.431 787.08 468.407 785.064 467.639 782.632C466.935 780.136 466.583 777.16 466.583 773.704C466.583 770.12 467.031 766.344 467.927 762.376C468.823 758.408 470.039 754.472 471.575 750.568C473.111 746.664 474.999 742.952 477.239 739.432C479.479 735.912 481.943 732.808 484.631 730.12C487.319 727.368 490.199 725.192 493.271 723.592C496.344 721.992 499.543 721.192 502.871 721.192C505.752 721.192 508.12 721.8 509.975 723.016C511.895 724.168 513.368 725.704 514.392 727.624C515.479 729.48 516.247 731.592 516.696 733.96C517.143 736.328 517.367 738.696 517.367 741.064ZM480.887 771.208C480.887 771.912 481.015 772.648 481.271 773.416C481.527 774.184 481.879 774.856 482.327 775.432C482.775 776.008 483.319 776.52 483.959 776.968C484.663 777.352 485.399 777.544 486.167 777.544C489.047 777.544 491.607 776.552 493.848 774.568C496.088 772.584 497.944 770.152 499.416 767.272C500.888 764.392 502.008 761.32 502.776 758.056C503.608 754.792 504.024 751.816 504.024 749.128C504.024 748.36 503.96 747.528 503.832 746.632C503.767 745.736 503.575 744.904 503.255 744.136C502.999 743.368 502.551 742.728 501.911 742.216C501.335 741.64 500.535 741.352 499.511 741.352C497.463 741.352 495.575 741.864 493.848 742.888C492.12 743.912 490.551 745.288 489.143 747.016C487.799 748.68 486.615 750.6 485.591 752.776C484.567 754.888 483.671 757.064 482.903 759.304C482.199 761.48 481.687 763.624 481.367 765.736C481.047 767.848 480.887 769.672 480.887 771.208ZM555.207 774.28C554.311 777.928 553.031 781.032 551.367 783.592C549.767 786.152 547.847 788.264 545.607 789.928C543.431 791.592 541.095 792.808 538.599 793.576C536.103 794.344 533.607 794.728 531.111 794.728C529.639 794.728 528.135 794.472 526.599 793.96C525.063 793.512 523.687 792.808 522.471 791.848C521.255 790.888 520.231 789.672 519.399 788.2C518.631 786.728 518.247 785 518.247 783.016C518.247 782.76 518.247 782.504 518.247 782.248C518.247 781.992 518.279 781.736 518.343 781.48C518.599 778.856 519.015 775.688 519.591 771.976C520.167 768.264 520.775 764.392 521.415 760.36C522.055 756.328 522.759 752.296 523.527 748.264C524.295 744.168 524.967 740.456 525.543 737.128C526.183 733.8 526.727 731.048 527.175 728.872C527.623 726.632 527.911 725.256 528.039 724.744C529.383 724.616 530.983 724.456 532.839 724.264C534.695 724.072 536.423 723.912 538.023 723.784C540.007 723.592 541.959 723.4 543.879 723.208C542.215 730.952 540.743 737.96 539.463 744.232C538.887 746.92 538.311 749.608 537.735 752.296C537.223 754.984 536.711 757.448 536.199 759.688C535.751 761.928 535.335 763.88 534.951 765.544C534.631 767.144 534.343 768.456 534.087 769.48C533.895 770.504 533.639 771.816 533.319 773.416C533.063 774.952 532.935 776.36 532.935 777.64C532.935 778.664 533.191 779.528 533.703 780.232C534.215 780.872 534.855 781.192 535.623 781.192C536.711 781.192 537.607 780.776 538.311 779.944C539.015 779.048 539.591 777.992 540.039 776.776C540.551 775.56 540.903 774.344 541.095 773.128C541.351 771.848 541.575 770.856 541.767 770.152C542.151 768.296 542.567 766.248 543.015 764.008C543.527 761.704 544.007 759.336 544.455 756.904C544.967 754.408 545.447 751.88 545.895 749.32C546.407 746.76 546.887 744.264 547.335 741.832C548.423 736.2 549.479 730.376 550.503 724.36L565.095 723.4C565.095 723.4 564.935 724.232 564.615 725.896C564.295 727.56 563.879 729.768 563.367 732.52C562.855 735.272 562.279 738.408 561.639 741.928C561.063 745.448 560.391 749.128 559.623 752.968C558.855 756.744 558.087 760.488 557.319 764.2C556.615 767.848 555.911 771.208 555.207 774.28ZM560.194 793.096C561.922 784.584 563.586 776.264 565.186 768.136C565.762 764.68 566.402 761.096 567.106 757.384C567.81 753.608 568.45 749.896 569.026 746.248C569.666 742.536 570.242 738.984 570.754 735.592C571.33 732.136 571.778 729 572.098 726.184C575.746 725.032 579.682 724.2 583.906 723.688C588.13 723.112 592.322 722.824 596.482 722.824C598.978 722.824 601.026 723.112 602.626 723.688C604.29 724.264 605.57 725.096 606.466 726.184C607.426 727.208 608.098 728.424 608.482 729.832C608.866 731.24 609.058 732.808 609.058 734.536C609.058 737.096 608.61 739.624 607.714 742.12C606.818 744.552 605.602 746.888 604.066 749.128C602.594 751.304 600.866 753.32 598.882 755.176C596.962 756.968 594.882 758.44 592.642 759.592C593.794 762.152 595.01 764.968 596.29 768.04C597.634 771.048 598.882 773.928 600.034 776.68C601.314 779.88 602.626 783.08 603.97 786.28L589.09 791.464C587.81 787.048 586.658 782.888 585.634 778.984C585.186 777.384 584.738 775.752 584.29 774.088C583.842 772.36 583.426 770.76 583.042 769.288C582.658 767.752 582.338 766.408 582.082 765.256C581.826 764.104 581.666 763.208 581.602 762.568L580.354 762.952C579.97 765 579.49 767.496 578.914 770.44C578.402 773.384 577.922 776.232 577.474 778.984C576.898 782.248 576.322 785.608 575.746 789.064L560.194 793.096ZM582.754 751.432C583.97 751.304 585.442 750.792 587.17 749.896C588.962 749 590.658 747.944 592.258 746.728C593.858 745.448 595.234 744.136 596.386 742.792C597.538 741.448 598.114 740.264 598.114 739.24C598.114 738.536 597.89 737.992 597.442 737.608C596.994 737.16 596.354 736.84 595.522 736.648C594.754 736.392 593.89 736.232 592.93 736.168C591.97 736.104 590.978 736.072 589.954 736.072C589.25 736.072 588.514 736.104 587.746 736.168C587.042 736.168 586.402 736.168 585.826 736.168L582.754 751.432ZM670.848 772.36C669.312 775.88 667.584 778.952 665.664 781.576C663.808 784.136 661.824 786.312 659.712 788.104C657.664 789.832 655.584 791.112 653.472 791.944C651.36 792.776 649.312 793.192 647.328 793.192C645.344 793.192 643.52 792.744 641.856 791.848C640.256 790.952 638.848 789.608 637.632 787.816C636.416 786.024 635.424 783.816 634.656 781.192C633.952 778.568 633.6 775.496 633.6 771.976C633.6 765.96 634.432 760.04 636.096 754.216C637.76 748.328 640.096 743.048 643.104 738.376C646.112 733.704 649.664 729.96 653.76 727.144C657.92 724.264 662.496 722.824 667.488 722.824C669.024 722.824 670.496 723.144 671.904 723.784C673.312 724.424 674.528 725.32 675.552 726.472C676.576 727.624 677.376 729.032 677.952 730.696C678.592 732.36 678.912 734.216 678.912 736.264C678.912 736.648 678.912 737.064 678.912 737.512C678.912 737.896 678.88 738.312 678.816 738.76L666.24 742.12C665.472 740.52 664.576 739.72 663.552 739.72C662.528 739.72 661.44 740.328 660.288 741.544C659.2 742.696 658.112 744.232 657.024 746.152C655.936 748.008 654.88 750.12 653.856 752.488C652.832 754.792 651.936 757.128 651.168 759.496C650.4 761.864 649.76 764.136 649.248 766.312C648.8 768.424 648.576 770.152 648.576 771.496C648.576 773.544 648.832 774.984 649.344 775.816C649.92 776.648 650.656 777.064 651.552 777.064C652.256 777.064 653.056 776.808 653.952 776.296C654.848 775.72 655.68 775.016 656.448 774.184C657.216 773.288 657.92 772.296 658.56 771.208C659.2 770.12 659.648 769.032 659.904 767.944L670.848 772.36ZM726.749 741.064C726.749 746.312 726.173 751.272 725.021 755.944C723.933 760.552 722.461 764.808 720.605 768.712C718.749 772.552 716.573 776.008 714.077 779.08C711.645 782.088 709.085 784.68 706.397 786.856C703.709 788.968 700.989 790.6 698.237 791.752C695.485 792.84 692.861 793.384 690.365 793.384C688.253 793.384 686.333 793 684.605 792.232C682.877 791.4 681.373 790.216 680.093 788.68C678.813 787.08 677.789 785.064 677.021 782.632C676.317 780.136 675.965 777.16 675.965 773.704C675.965 770.12 676.413 766.344 677.309 762.376C678.205 758.408 679.421 754.472 680.957 750.568C682.493 746.664 684.381 742.952 686.621 739.432C688.861 735.912 691.325 732.808 694.013 730.12C696.701 727.368 699.581 725.192 702.653 723.592C705.725 721.992 708.925 721.192 712.253 721.192C715.133 721.192 717.501 721.8 719.357 723.016C721.277 724.168 722.749 725.704 723.773 727.624C724.861 729.48 725.629 731.592 726.077 733.96C726.525 736.328 726.749 738.696 726.749 741.064ZM690.269 771.208C690.269 771.912 690.397 772.648 690.653 773.416C690.909 774.184 691.261 774.856 691.709 775.432C692.157 776.008 692.701 776.52 693.341 776.968C694.045 777.352 694.781 777.544 695.549 777.544C698.429 777.544 700.989 776.552 703.229 774.568C705.469 772.584 707.325 770.152 708.797 767.272C710.269 764.392 711.389 761.32 712.157 758.056C712.989 754.792 713.405 751.816 713.405 749.128C713.405 748.36 713.341 747.528 713.213 746.632C713.149 745.736 712.957 744.904 712.637 744.136C712.381 743.368 711.933 742.728 711.293 742.216C710.717 741.64 709.917 741.352 708.893 741.352C706.845 741.352 704.957 741.864 703.229 742.888C701.501 743.912 699.933 745.288 698.525 747.016C697.181 748.68 695.997 750.6 694.973 752.776C693.949 754.888 693.053 757.064 692.285 759.304C691.581 761.48 691.069 763.624 690.749 765.736C690.429 767.848 690.269 769.672 690.269 771.208ZM773.516 743.944C773.516 747.272 773.036 750.824 772.076 754.6C771.116 758.312 769.772 762.024 768.044 765.736C766.316 769.384 764.172 772.904 761.612 776.296C759.116 779.624 756.268 782.568 753.068 785.128C749.868 787.624 746.348 789.64 742.508 791.176C738.732 792.712 734.7 793.48 730.412 793.48C729.516 793.48 728.62 793.416 727.724 793.288C726.828 793.224 725.932 793.128 725.036 793C726.764 784.168 728.46 775.56 730.124 767.176C730.764 763.656 731.436 760.008 732.14 756.232C732.844 752.392 733.516 748.616 734.156 744.904C734.796 741.192 735.404 737.64 735.98 734.248C736.62 730.856 737.132 727.784 737.516 725.032C740.268 724.52 743.052 724.04 745.868 723.592C748.684 723.144 751.564 722.92 754.508 722.92C757.964 722.92 760.876 723.464 763.244 724.552C765.676 725.64 767.628 727.144 769.1 729.064C770.636 730.984 771.756 733.224 772.46 735.784C773.164 738.344 773.516 741.064 773.516 743.944ZM750.86 736.456C750.156 740.232 749.42 743.848 748.652 747.304C747.884 750.76 747.116 754.248 746.348 757.768C745.58 761.288 744.812 764.968 744.044 768.808C743.276 772.648 742.54 776.84 741.836 781.384C743.372 780.36 744.844 778.984 746.252 777.256C747.724 775.464 749.1 773.416 750.38 771.112C751.66 768.808 752.812 766.376 753.836 763.816C754.924 761.256 755.852 758.76 756.62 756.328C757.388 753.896 757.964 751.624 758.348 749.512C758.796 747.4 759.02 745.576 759.02 744.04C759.02 741.672 758.348 739.816 757.004 738.472C755.724 737.128 753.676 736.456 750.86 736.456ZM772.115 793.096L784.691 724.84L815.027 722.248C814.579 723.656 814.195 725.096 813.875 726.568C813.555 727.784 813.235 729.064 812.915 730.408C812.659 731.688 812.435 732.84 812.243 733.864C811.603 733.928 810.675 733.992 809.459 734.056C808.307 734.056 807.059 734.088 805.715 734.152C804.371 734.152 802.995 734.152 801.587 734.152C800.243 734.152 799.059 734.152 798.035 734.152L794.675 751.336C796.659 751.208 798.515 751.112 800.243 751.048C801.651 750.984 803.091 750.952 804.563 750.952C806.035 750.952 807.123 750.92 807.827 750.856C807.571 752.648 807.315 754.408 807.059 756.136C806.867 757.864 806.611 759.624 806.291 761.416C805.651 761.48 804.595 761.544 803.123 761.608C801.715 761.608 800.275 761.64 798.803 761.704C797.139 761.768 795.315 761.832 793.331 761.896L790.067 779.56L804.083 777.352L803.123 788.296L772.115 793.096ZM336.397 910.432C336.397 915.808 335.341 920.704 333.229 925.12C331.213 929.44 328.429 933.184 324.877 936.352C321.421 939.52 317.293 941.968 312.493 943.696C307.789 945.424 302.701 946.288 297.229 946.288C293.389 946.288 289.549 945.28 285.709 943.264C281.869 941.152 278.173 937.84 274.621 933.328L285.277 912.448C285.949 913.696 286.957 914.992 288.301 916.336C289.645 917.584 291.133 918.688 292.765 919.648C294.493 920.608 296.173 921.424 297.805 922.096C299.533 922.672 301.069 922.96 302.413 922.96C303.565 922.96 304.765 922.768 306.013 922.384C307.261 922 308.413 921.424 309.469 920.656C310.525 919.888 311.341 919.024 311.917 918.064C312.589 917.008 312.925 915.808 312.925 914.464C312.925 912.16 312.157 910.048 310.621 908.128C309.181 906.112 307.357 904.24 305.149 902.512C302.941 900.688 300.541 898.864 297.949 897.04C295.357 895.216 292.957 893.296 290.749 891.28C288.637 889.264 286.813 887.008 285.277 884.512C283.741 882.016 282.973 879.232 282.973 876.16C282.973 871.168 284.461 866.512 287.437 862.192C290.413 857.872 294.109 854.176 298.525 851.104C303.037 847.936 307.933 845.44 313.213 843.616C318.493 841.792 323.485 840.88 328.189 840.88C330.781 840.88 333.229 841.216 335.533 841.888C337.837 842.464 339.805 843.472 341.437 844.912C343.165 846.256 344.509 847.984 345.469 850.096C346.525 852.208 347.053 854.848 347.053 858.016C347.053 859.36 346.909 860.704 346.621 862.048C346.429 863.392 346.237 864.832 346.045 866.368L325.165 872.416C325.357 871.648 325.501 870.88 325.597 870.112C325.789 869.344 325.885 868.576 325.885 867.808C325.885 864.928 325.357 862.864 324.301 861.616C323.341 860.272 322.045 859.6 320.413 859.6C319.645 859.6 318.685 859.888 317.533 860.464C316.477 861.04 315.373 861.808 314.221 862.768C313.165 863.632 312.253 864.688 311.485 865.936C310.717 867.184 310.333 868.528 310.333 869.968C310.333 872.272 310.957 874.192 312.205 875.728C313.549 877.264 315.181 878.704 317.101 880.048C319.021 881.392 321.085 882.784 323.293 884.224C325.597 885.568 327.709 887.344 329.629 889.552C331.549 891.76 333.133 894.544 334.381 897.904C335.725 901.168 336.397 905.344 336.397 910.432ZM363.712 943.12C362.848 943.12 361.168 943.264 358.672 943.552C356.176 943.744 353.584 944.032 350.896 944.416C348.208 944.704 345.76 944.992 343.552 945.28C341.44 945.568 340.288 945.76 340.096 945.856C341.248 941.728 342.4 937.168 343.552 932.176C344.704 927.088 345.856 921.808 347.008 916.336C348.256 910.768 349.408 905.152 350.464 899.488C351.616 893.824 352.72 888.352 353.776 883.072C356.176 870.784 358.528 858.16 360.832 845.2L383.296 841.6C380.8 854.464 378.304 867.088 375.808 879.472C374.752 884.752 373.648 890.224 372.496 895.888C371.44 901.552 370.384 907.168 369.328 912.736C368.368 918.304 367.36 923.728 366.304 929.008C365.344 934.192 364.48 938.896 363.712 943.12ZM371.948 945.136C376.172 932.368 380.204 919.84 384.044 907.552C385.676 902.368 387.356 896.944 389.084 891.28C390.812 885.616 392.54 880 394.268 874.432C395.996 868.864 397.58 863.488 399.02 858.304C400.556 853.12 401.9 848.32 403.052 843.904C408.332 843.904 413.324 843.616 418.028 843.04C422.732 842.464 427.82 841.936 433.292 841.456C433.004 843.568 432.668 845.968 432.284 848.656C431.996 851.248 431.612 853.984 431.132 856.864C430.748 859.744 430.316 862.72 429.836 865.792C429.356 868.864 428.78 872.8 428.108 877.6C427.436 882.4 426.524 888.4 425.372 895.6H427.244C430.028 888.304 432.332 882.256 434.156 877.456C435.98 872.56 437.468 868.576 438.62 865.504C439.772 862.432 440.924 859.456 442.076 856.576C443.324 853.6 444.476 850.816 445.532 848.224C446.684 845.536 447.74 843.184 448.7 841.168C451.1 840.976 453.356 840.736 455.468 840.448C457.58 840.16 459.692 839.872 461.804 839.584C463.916 839.2 466.028 838.864 468.14 838.576C470.348 838.192 472.748 837.76 475.34 837.28C474.38 842.848 473.468 848.56 472.604 854.416C471.74 860.272 470.972 866.128 470.3 871.984C469.628 877.744 468.956 883.456 468.284 889.12C467.708 894.784 467.18 900.16 466.7 905.248C465.548 917.152 464.54 928.768 463.676 940.096L438.62 944.56C438.62 944.08 438.668 942.784 438.764 940.672C438.956 938.56 439.148 935.968 439.34 932.896C439.628 929.824 439.964 926.416 440.348 922.672C440.828 918.928 441.26 915.184 441.644 911.44C442.124 907.696 442.604 904.096 443.084 900.64C443.564 897.088 444.044 894.064 444.524 891.568H443.228C441.884 895.6 440.396 899.872 438.764 904.384C437.132 908.8 435.452 913.312 433.724 917.92C432.092 922.528 430.46 927.04 428.828 931.456C427.196 935.872 425.756 940.096 424.508 944.128C421.148 944.224 418.268 944.368 415.868 944.56C413.468 944.656 410.684 944.8 407.516 944.992L412.124 891.568H409.964C409.772 892.816 409.292 894.928 408.524 897.904C407.756 900.784 406.844 904.144 405.788 907.984C404.828 911.728 403.772 915.664 402.62 919.792C401.468 923.824 400.364 927.616 399.308 931.168C398.348 934.624 397.532 937.504 396.86 939.808C396.188 942.016 395.804 943.264 395.708 943.552L371.948 945.136ZM471.472 946.144C474.352 933.184 477.088 920.512 479.68 908.128C480.736 902.944 481.84 897.472 482.992 891.712C484.144 885.952 485.248 880.288 486.304 874.72C487.36 869.152 488.368 863.776 489.328 858.592C490.288 853.408 491.104 848.656 491.776 844.336C494.56 843.472 497.296 842.752 499.984 842.176C502.672 841.504 505.408 840.928 508.192 840.448C511.072 839.968 513.76 839.728 516.256 839.728C520.576 839.728 524.176 840.448 527.056 841.888C530.032 843.328 532.432 845.296 534.256 847.792C536.08 850.192 537.376 853.024 538.144 856.288C538.912 859.552 539.296 863.056 539.296 866.8C539.296 872.176 538.288 877.36 536.272 882.352C534.352 887.344 531.712 891.808 528.352 895.744C525.088 899.584 521.296 902.656 516.976 904.96C512.752 907.264 508.336 908.416 503.728 908.416H502.144C501.376 911.68 500.656 915.232 499.984 919.072C499.312 922.912 498.736 926.464 498.256 929.728C497.584 933.568 496.96 937.408 496.384 941.248L471.472 946.144ZM511.648 857.152C510.592 863.488 509.536 869.488 508.48 875.152C507.424 880.816 506.272 886.864 505.024 893.296C506.56 892.912 508.144 892.048 509.776 890.704C511.504 889.264 513.088 887.44 514.528 885.232C515.968 882.928 517.12 880.288 517.984 877.312C518.848 874.336 519.28 871.216 519.28 867.952C519.28 864.4 518.464 861.712 516.832 859.888C515.296 858.064 513.568 857.152 511.648 857.152ZM572.691 941.392C569.715 941.392 566.547 941.488 563.187 941.68C559.923 941.872 556.611 942.16 553.251 942.544C549.891 942.928 546.579 943.456 543.315 944.128C540.147 944.704 537.267 945.424 534.675 946.288C535.251 941.968 535.923 937.168 536.691 931.888C537.459 926.608 538.323 921.136 539.283 915.472C540.339 909.808 541.347 904.096 542.307 898.336C543.363 892.576 544.419 887.056 545.475 881.776C547.875 869.2 550.419 856.384 553.107 843.328L578.307 840.016C575.715 851.152 573.219 862 570.819 872.56C569.763 877.072 568.707 881.776 567.651 886.672C566.595 891.472 565.587 896.176 564.627 900.784C563.667 905.392 562.803 909.856 562.035 914.176C561.267 918.496 560.643 922.336 560.163 925.696C562.563 925.504 565.107 925.408 567.795 925.408C570.579 925.312 573.027 925.264 575.139 925.264C575.235 927.088 575.379 928.912 575.571 930.736C575.763 932.464 575.955 934.048 576.147 935.488C576.435 936.928 576.627 938.224 576.723 939.376C576.915 940.432 577.059 941.152 577.155 941.536C576.387 941.536 575.619 941.536 574.851 941.536C574.179 941.44 573.459 941.392 572.691 941.392ZM584.032 946.144L602.896 843.76L648.4 839.872C647.728 841.984 647.152 844.144 646.672 846.352C646.192 848.176 645.712 850.096 645.232 852.112C644.848 854.032 644.512 855.76 644.224 857.296C643.264 857.392 641.872 857.488 640.048 857.584C638.32 857.584 636.448 857.632 634.432 857.728C632.416 857.728 630.352 857.728 628.24 857.728C626.224 857.728 624.448 857.728 622.912 857.728L617.872 883.504C620.848 883.312 623.632 883.168 626.224 883.072C628.336 882.976 630.496 882.928 632.704 882.928C634.912 882.928 636.544 882.88 637.6 882.784C637.216 885.472 636.832 888.112 636.448 890.704C636.16 893.296 635.776 895.936 635.296 898.624C634.336 898.72 632.752 898.816 630.544 898.912C628.432 898.912 626.272 898.96 624.064 899.056C621.568 899.152 618.832 899.248 615.856 899.344L610.96 925.84L631.984 922.528L630.544 938.944L584.032 946.144Z" fill="white"/>
<rect x="281" y="172" width="1109" height="247" rx="50" fill="white" fill-opacity="0.98"/>
<rect x="595" y="398" width="927" height="221" rx="50" fill="#29293A" fill-opacity="0.98"/>
<path d="M402.704 317.2C405.237 319.2 409.571 321.933 415.704 325.4C421.971 328.867 427.904 330.6 433.504 330.6C439.237 330.6 442.104 328.4 442.104 324C442.104 322 441.304 320.267 439.704 318.8C438.104 317.2 435.171 315.4 430.904 313.4C426.637 311.4 423.437 309.867 421.304 308.8C419.171 307.6 416.304 305.733 412.704 303.2C409.237 300.533 406.571 297.8 404.704 295C399.371 287.4 396.704 277.733 396.704 266C396.704 254.267 401.037 244.4 409.704 236.4C418.504 228.267 429.971 224.2 444.104 224.2C453.704 224.2 462.571 225.267 470.704 227.4C478.837 229.4 483.037 232.067 483.304 235.4C483.304 235.8 483.304 236.2 483.304 236.6C483.304 241.267 481.837 247.2 478.904 254.4C475.971 261.467 473.904 265.4 472.704 266.2C464.171 261.8 456.504 259.6 449.704 259.6C443.037 259.6 439.704 262 439.704 266.8C439.704 269.733 442.171 272.333 447.104 274.6C448.171 275.133 449.704 275.867 451.704 276.8C453.704 277.733 455.971 278.867 458.504 280.2C461.171 281.4 463.971 283 466.904 285C469.971 286.867 473.237 289.4 476.704 292.6C483.771 299.267 487.304 308.067 487.304 319C487.304 333.267 483.371 344.933 475.504 354C467.637 363.067 455.504 367.733 439.104 368C431.104 368 423.837 367.333 417.304 366C410.904 364.667 405.304 362.067 400.504 358.2C395.704 354.333 393.304 349.667 393.304 344.2C393.304 338.733 394.304 333.333 396.304 328C398.304 322.533 400.437 318.933 402.704 317.2ZM572.954 362.8C572.954 365.467 566.354 366.8 553.154 366.8C539.954 366.8 533.354 365.467 533.354 362.8V262.4H509.354C507.087 262.4 505.487 259.333 504.554 253.2C504.154 250.267 503.954 247.267 503.954 244.2C503.954 241.133 504.154 238.133 504.554 235.2C505.487 229.067 507.087 226 509.354 226H596.354C598.621 226 600.221 229.067 601.154 235.2C601.554 238.133 601.754 241.133 601.754 244.2C601.754 247.267 601.554 250.267 601.154 253.2C600.221 259.333 598.621 262.4 596.354 262.4H572.954V362.8ZM660.345 363.2C660.345 365.333 654.011 366.4 641.345 366.4C628.545 366.4 622.145 365.4 622.145 363.4V233C622.145 228.333 624.611 226 629.545 226H667.745C702.811 226 720.345 239.667 720.345 267C720.345 275.267 718.745 282.8 715.545 289.6C712.345 296.267 707.811 301.6 701.945 305.6L727.145 347.6C726.078 350.8 722.611 354.467 716.745 358.6C708.745 364.333 702.145 367.2 696.945 367.2C691.745 367.2 687.878 365.333 685.345 361.6L666.545 317.8H660.345V363.2ZM660.345 261.4V291.4H661.345C674.011 291.4 680.345 286.133 680.345 275.6C680.345 270.8 679.078 267.267 676.545 265C674.145 262.6 670.145 261.4 664.545 261.4H660.345ZM814.113 281.6C816.647 281.6 817.913 286.267 817.913 295.6C817.913 298.4 817.58 301.733 816.913 305.6C816.38 309.333 815.313 311.2 813.713 311.2H788.313V331.2H825.113C827.38 331.2 828.913 334.133 829.713 340C830.113 342.533 830.313 345.267 830.313 348.2C830.313 351 829.913 354.667 829.113 359.2C828.313 363.733 826.98 366 825.113 366H756.713C751.647 366 749.113 363.933 749.113 359.8V231.2C749.113 227.733 750.647 226 753.713 226H825.313C828.113 226 829.513 231.933 829.513 243.8C829.513 255.533 828.113 261.4 825.313 261.4H788.313V281.6H814.113ZM950.746 366.4C939.146 366.4 932.879 364.533 931.946 360.8L925.346 335H893.546L887.746 359.8C886.946 363.933 880.546 366 868.546 366C862.146 366 857.413 365.667 854.346 365C851.279 364.2 849.746 363.6 849.746 363.2L885.146 227.8C885.146 226.733 894.279 226.2 912.546 226.2C930.813 226.2 939.946 226.733 939.946 227.8L974.546 363.4C974.546 364.333 971.479 365.067 965.346 365.6C959.213 366.133 954.346 366.4 950.746 366.4ZM898.546 309.6H919.546L910.546 268.2H909.346L898.546 309.6ZM1136.8 366.2C1124.93 366.2 1119 364.867 1119 362.2L1114.8 282L1090.4 363.2C1089.87 364.8 1085.33 365.6 1076.8 365.6C1068.27 365.6 1063.87 364.867 1063.6 363.4L1038.4 281.2L1035.6 361C1035.47 363 1032.93 364.4 1028 365.2C1023.07 365.867 1018.93 366.2 1015.6 366.2C1012.4 366.2 1009.27 366 1006.2 365.6C999.801 364.667 996.667 363 996.801 360.6L1001.4 230.6C1001.4 227.4 1009.53 225.8 1025.8 225.8C1030.6 225.8 1036.47 226.2 1043.4 227C1050.33 227.667 1054.2 229.067 1055 231.2L1077.4 294.2L1097 231C1098.2 227.533 1107.4 225.8 1124.6 225.8C1129.53 225.8 1135.4 226.2 1142.2 227C1149.13 227.667 1152.6 228.933 1152.6 230.8L1158.4 362C1158.4 363.467 1155.8 364.533 1150.6 365.2C1145.4 365.867 1140.8 366.2 1136.8 366.2ZM1192.45 317.2C1194.98 319.2 1199.31 321.933 1205.45 325.4C1211.71 328.867 1217.65 330.6 1223.25 330.6C1228.98 330.6 1231.85 328.4 1231.85 324C1231.85 322 1231.05 320.267 1229.45 318.8C1227.85 317.2 1224.91 315.4 1220.65 313.4C1216.38 311.4 1213.18 309.867 1211.05 308.8C1208.91 307.6 1206.05 305.733 1202.45 303.2C1198.98 300.533 1196.31 297.8 1194.45 295C1189.11 287.4 1186.45 277.733 1186.45 266C1186.45 254.267 1190.78 244.4 1199.45 236.4C1208.25 228.267 1219.71 224.2 1233.85 224.2C1243.45 224.2 1252.31 225.267 1260.45 227.4C1268.58 229.4 1272.78 232.067 1273.05 235.4C1273.05 235.8 1273.05 236.2 1273.05 236.6C1273.05 241.267 1271.58 247.2 1268.65 254.4C1265.71 261.467 1263.65 265.4 1262.45 266.2C1253.91 261.8 1246.25 259.6 1239.45 259.6C1232.78 259.6 1229.45 262 1229.45 266.8C1229.45 269.733 1231.91 272.333 1236.85 274.6C1237.91 275.133 1239.45 275.867 1241.45 276.8C1243.45 277.733 1245.71 278.867 1248.25 280.2C1250.91 281.4 1253.71 283 1256.65 285C1259.71 286.867 1262.98 289.4 1266.45 292.6C1273.51 299.267 1277.05 308.067 1277.05 319C1277.05 333.267 1273.11 344.933 1265.25 354C1257.38 363.067 1245.25 367.733 1228.85 368C1220.85 368 1213.58 367.333 1207.05 366C1200.65 364.667 1195.05 362.067 1190.25 358.2C1185.45 354.333 1183.05 349.667 1183.05 344.2C1183.05 338.733 1184.05 333.333 1186.05 328C1188.05 322.533 1190.18 318.933 1192.45 317.2Z" fill="#29293A"/>
<path d="M702.062 548.12C699.822 548.52 697.382 549 694.742 549.56C692.102 550.12 689.782 550.64 687.782 551.12C688.742 547.68 689.662 543.84 690.542 539.6C691.502 535.28 692.422 530.76 693.302 526.04C694.262 521.32 695.142 516.56 695.942 511.76C696.822 506.88 697.662 502.2 698.462 497.72C700.142 487.08 701.822 476.08 703.502 464.72L743.702 462.68L740.222 477.44H721.382L717.662 498.8C720.142 498.72 722.502 498.68 724.742 498.68C726.582 498.68 728.462 498.68 730.382 498.68C732.302 498.68 733.782 498.64 734.822 498.56C734.582 500.8 734.262 503 733.862 505.16C733.542 507.32 733.222 509.48 732.902 511.64C731.862 511.64 730.382 511.64 728.462 511.64C726.542 511.56 724.542 511.48 722.462 511.4C720.462 511.32 718.182 511.24 715.622 511.16L710.102 546.56C707.382 547.04 704.702 547.56 702.062 548.12ZM783.52 527.6C782.4 532.16 780.8 536.04 778.72 539.24C776.72 542.44 774.32 545.08 771.52 547.16C768.8 549.24 765.88 550.76 762.76 551.72C759.64 552.68 756.52 553.16 753.4 553.16C751.56 553.16 749.68 552.84 747.76 552.2C745.84 551.64 744.12 550.76 742.6 549.56C741.08 548.36 739.8 546.84 738.76 545C737.8 543.16 737.32 541 737.32 538.52C737.32 538.2 737.32 537.88 737.32 537.56C737.32 537.24 737.36 536.92 737.44 536.6C737.76 533.32 738.28 529.36 739 524.72C739.72 520.08 740.48 515.24 741.28 510.2C742.08 505.16 742.96 500.12 743.92 495.08C744.88 489.96 745.72 485.32 746.44 481.16C747.24 477 747.92 473.56 748.48 470.84C749.04 468.04 749.4 466.32 749.56 465.68C751.24 465.52 753.24 465.32 755.56 465.08C757.88 464.84 760.04 464.64 762.04 464.48C764.52 464.24 766.96 464 769.36 463.76C767.28 473.44 765.44 482.2 763.84 490.04C763.12 493.4 762.4 496.76 761.68 500.12C761.04 503.48 760.4 506.56 759.76 509.36C759.2 512.16 758.68 514.6 758.2 516.68C757.8 518.68 757.44 520.32 757.12 521.6C756.88 522.88 756.56 524.52 756.16 526.52C755.84 528.44 755.68 530.2 755.68 531.8C755.68 533.08 756 534.16 756.64 535.04C757.28 535.84 758.08 536.24 759.04 536.24C760.4 536.24 761.52 535.72 762.4 534.68C763.28 533.56 764 532.24 764.56 530.72C765.2 529.2 765.64 527.68 765.88 526.16C766.2 524.56 766.48 523.32 766.72 522.44C767.2 520.12 767.72 517.56 768.28 514.76C768.92 511.88 769.52 508.92 770.08 505.88C770.72 502.76 771.32 499.6 771.88 496.4C772.52 493.2 773.12 490.08 773.68 487.04C775.04 480 776.36 472.72 777.64 465.2L795.88 464C795.88 464 795.68 465.04 795.28 467.12C794.88 469.2 794.36 471.96 793.72 475.4C793.08 478.84 792.36 482.76 791.56 487.16C790.84 491.56 790 496.16 789.04 500.96C788.08 505.68 787.12 510.36 786.16 515C785.28 519.56 784.4 523.76 783.52 527.6ZM789.993 551.6C792.233 540.32 794.393 529.32 796.473 518.6C797.273 514.12 798.113 509.44 798.993 504.56C799.953 499.6 800.833 494.76 801.633 490.04C802.433 485.24 803.153 480.64 803.793 476.24C804.513 471.76 805.073 467.68 805.473 464C807.953 463.84 810.353 463.68 812.673 463.52C814.753 463.36 816.873 463.24 819.033 463.16C821.193 463 823.113 462.84 824.793 462.68C825.833 468.84 826.753 474.72 827.553 480.32C827.953 482.72 828.353 485.24 828.753 487.88C829.233 490.44 829.673 492.92 830.073 495.32C830.473 497.72 830.873 500.04 831.273 502.28C831.673 504.44 832.073 506.36 832.473 508.04C832.793 506.36 833.153 504.44 833.553 502.28C833.953 500.04 834.393 497.72 834.873 495.32C835.353 492.84 835.833 490.32 836.313 487.76C836.873 485.2 837.393 482.72 837.873 480.32C839.073 474.72 840.313 468.88 841.593 462.8L856.233 461C853.513 473 851.113 484.36 849.033 495.08C848.073 499.72 847.113 504.4 846.153 509.12C845.273 513.84 844.433 518.4 843.633 522.8C842.833 527.2 842.153 531.28 841.593 535.04C841.033 538.72 840.593 541.84 840.273 544.4C840.033 544.4 839.073 544.6 837.393 545C835.793 545.32 833.913 545.72 831.753 546.2C829.673 546.68 827.553 547.2 825.393 547.76C823.313 548.24 821.753 548.64 820.713 548.96C820.153 542.48 819.553 536.32 818.913 530.48C818.673 528 818.393 525.44 818.073 522.8C817.753 520.16 817.433 517.64 817.113 515.24C816.873 512.84 816.593 510.6 816.273 508.52C816.033 506.36 815.793 504.56 815.553 503.12C815.313 504.56 814.993 506.32 814.593 508.4C814.193 510.48 813.793 512.72 813.393 515.12C812.993 517.44 812.593 519.88 812.193 522.44C811.793 524.92 811.353 527.36 810.873 529.76C809.833 535.44 808.713 541.36 807.513 547.52L789.993 551.6ZM900.288 525.2C898.368 529.6 896.208 533.44 893.808 536.72C891.488 539.92 889.008 542.64 886.368 544.88C883.808 547.04 881.208 548.64 878.568 549.68C875.928 550.72 873.368 551.24 870.888 551.24C868.408 551.24 866.128 550.68 864.048 549.56C862.048 548.44 860.288 546.76 858.768 544.52C857.248 542.28 856.008 539.52 855.048 536.24C854.168 532.96 853.728 529.12 853.728 524.72C853.728 517.2 854.768 509.8 856.848 502.52C858.928 495.16 861.848 488.56 865.608 482.72C869.368 476.88 873.808 472.2 878.928 468.68C884.128 465.08 889.848 463.28 896.088 463.28C898.008 463.28 899.848 463.68 901.608 464.48C903.368 465.28 904.888 466.4 906.168 467.84C907.448 469.28 908.448 471.04 909.168 473.12C909.968 475.2 910.368 477.52 910.368 480.08C910.368 480.56 910.368 481.08 910.368 481.64C910.368 482.12 910.328 482.64 910.248 483.2L894.528 487.4C893.568 485.4 892.448 484.4 891.168 484.4C889.888 484.4 888.528 485.16 887.088 486.68C885.728 488.12 884.368 490.04 883.008 492.44C881.648 494.76 880.328 497.4 879.048 500.36C877.768 503.24 876.648 506.16 875.688 509.12C874.728 512.08 873.928 514.92 873.288 517.64C872.728 520.28 872.448 522.44 872.448 524.12C872.448 526.68 872.768 528.48 873.408 529.52C874.128 530.56 875.048 531.08 876.168 531.08C877.048 531.08 878.048 530.76 879.168 530.12C880.288 529.4 881.328 528.52 882.288 527.48C883.248 526.36 884.128 525.12 884.928 523.76C885.728 522.4 886.288 521.04 886.608 519.68L900.288 525.2ZM914.936 551.12C916.776 542.32 918.536 533.64 920.216 525.08C920.936 521.48 921.656 517.72 922.376 513.8C923.096 509.88 923.776 506.04 924.416 502.28C925.136 498.44 925.736 494.76 926.216 491.24C926.776 487.64 927.256 484.36 927.656 481.4C925.816 481.16 923.936 481.08 922.016 481.16C920.176 481.24 918.336 481 916.496 480.44C916.576 479.16 916.616 477.68 916.616 476C916.616 474.32 916.656 472.64 916.736 470.96C916.816 469.12 916.896 467.16 916.976 465.08C919.056 465.24 921.136 465.36 923.216 465.44C925.296 465.52 927.376 465.56 929.456 465.56C933.536 465.56 937.456 465.48 941.216 465.32C945.056 465.08 948.576 464.84 951.776 464.6C955.056 464.28 958.256 463.92 961.376 463.52L960.056 470C959.656 471.84 959.256 473.72 958.856 475.64C958.536 477.56 958.216 479.2 957.896 480.56C956.136 481.04 954.336 481.4 952.496 481.64C950.736 481.8 948.976 482.04 947.216 482.36C946.656 485.08 946.056 488.12 945.416 491.48C944.776 494.76 944.136 498.2 943.496 501.8C942.936 505.32 942.376 508.92 941.816 512.6C941.256 516.28 940.696 519.8 940.136 523.16C938.856 531.08 937.656 539.28 936.536 547.76L914.936 551.12ZM971.387 548.6C970.667 548.6 969.267 548.72 967.187 548.96C965.107 549.12 962.947 549.36 960.707 549.68C958.467 549.92 956.427 550.16 954.587 550.4C952.827 550.64 951.867 550.8 951.707 550.88C952.667 547.44 953.627 543.64 954.587 539.48C955.547 535.24 956.507 530.84 957.467 526.28C958.507 521.64 959.467 516.96 960.347 512.24C961.307 507.52 962.227 502.96 963.107 498.56C965.107 488.32 967.067 477.8 968.987 467L987.707 464C985.627 474.72 983.547 485.24 981.467 495.56C980.587 499.96 979.667 504.52 978.707 509.24C977.827 513.96 976.947 518.64 976.067 523.28C975.267 527.92 974.427 532.44 973.547 536.84C972.747 541.16 972.027 545.08 971.387 548.6ZM1049.05 486.08C1049.05 492.64 1048.33 498.84 1046.89 504.68C1045.53 510.44 1043.69 515.76 1041.37 520.64C1039.05 525.44 1036.33 529.76 1033.21 533.6C1030.17 537.36 1026.97 540.6 1023.61 543.32C1020.25 545.96 1016.85 548 1013.41 549.44C1009.97 550.8 1006.69 551.48 1003.57 551.48C1000.93 551.48 998.53 551 996.37 550.04C994.21 549 992.33 547.52 990.73 545.6C989.13 543.6 987.85 541.08 986.89 538.04C986.01 534.92 985.57 531.2 985.57 526.88C985.57 522.4 986.13 517.68 987.25 512.72C988.37 507.76 989.89 502.84 991.81 497.96C993.73 493.08 996.09 488.44 998.89 484.04C1001.69 479.64 1004.77 475.76 1008.13 472.4C1011.49 468.96 1015.09 466.24 1018.93 464.24C1022.77 462.24 1026.77 461.24 1030.93 461.24C1034.53 461.24 1037.49 462 1039.81 463.52C1042.21 464.96 1044.05 466.88 1045.33 469.28C1046.69 471.6 1047.65 474.24 1048.21 477.2C1048.77 480.16 1049.05 483.12 1049.05 486.08ZM1003.45 523.76C1003.45 524.64 1003.61 525.56 1003.93 526.52C1004.25 527.48 1004.69 528.32 1005.25 529.04C1005.81 529.76 1006.49 530.4 1007.29 530.96C1008.17 531.44 1009.09 531.68 1010.05 531.68C1013.65 531.68 1016.85 530.44 1019.65 527.96C1022.45 525.48 1024.77 522.44 1026.61 518.84C1028.45 515.24 1029.85 511.4 1030.81 507.32C1031.85 503.24 1032.37 499.52 1032.37 496.16C1032.37 495.2 1032.29 494.16 1032.13 493.04C1032.05 491.92 1031.81 490.88 1031.41 489.92C1031.09 488.96 1030.53 488.16 1029.73 487.52C1029.01 486.8 1028.01 486.44 1026.73 486.44C1024.17 486.44 1021.81 487.08 1019.65 488.36C1017.49 489.64 1015.53 491.36 1013.77 493.52C1012.09 495.6 1010.61 498 1009.33 500.72C1008.05 503.36 1006.93 506.08 1005.97 508.88C1005.09 511.6 1004.45 514.28 1004.05 516.92C1003.65 519.56 1003.45 521.84 1003.45 523.76ZM1047.15 551.6C1049.39 540.32 1051.55 529.32 1053.63 518.6C1054.43 514.12 1055.27 509.44 1056.15 504.56C1057.11 499.6 1057.99 494.76 1058.79 490.04C1059.59 485.24 1060.31 480.64 1060.95 476.24C1061.67 471.76 1062.23 467.68 1062.63 464C1065.11 463.84 1067.51 463.68 1069.83 463.52C1071.91 463.36 1074.03 463.24 1076.19 463.16C1078.35 463 1080.27 462.84 1081.95 462.68C1082.99 468.84 1083.91 474.72 1084.71 480.32C1085.11 482.72 1085.51 485.24 1085.91 487.88C1086.39 490.44 1086.83 492.92 1087.23 495.32C1087.63 497.72 1088.03 500.04 1088.43 502.28C1088.83 504.44 1089.23 506.36 1089.63 508.04C1089.95 506.36 1090.31 504.44 1090.71 502.28C1091.11 500.04 1091.55 497.72 1092.03 495.32C1092.51 492.84 1092.99 490.32 1093.47 487.76C1094.03 485.2 1094.55 482.72 1095.03 480.32C1096.23 474.72 1097.47 468.88 1098.75 462.8L1113.39 461C1110.67 473 1108.27 484.36 1106.19 495.08C1105.23 499.72 1104.27 504.4 1103.31 509.12C1102.43 513.84 1101.59 518.4 1100.79 522.8C1099.99 527.2 1099.31 531.28 1098.75 535.04C1098.19 538.72 1097.75 541.84 1097.43 544.4C1097.19 544.4 1096.23 544.6 1094.55 545C1092.95 545.32 1091.07 545.72 1088.91 546.2C1086.83 546.68 1084.71 547.2 1082.55 547.76C1080.47 548.24 1078.91 548.64 1077.87 548.96C1077.31 542.48 1076.71 536.32 1076.07 530.48C1075.83 528 1075.55 525.44 1075.23 522.8C1074.91 520.16 1074.59 517.64 1074.27 515.24C1074.03 512.84 1073.75 510.6 1073.43 508.52C1073.19 506.36 1072.95 504.56 1072.71 503.12C1072.47 504.56 1072.15 506.32 1071.75 508.4C1071.35 510.48 1070.95 512.72 1070.55 515.12C1070.15 517.44 1069.75 519.88 1069.35 522.44C1068.95 524.92 1068.51 527.36 1068.03 529.76C1066.99 535.44 1065.87 541.36 1064.67 547.52L1047.15 551.6ZM1150.36 548.6C1148.36 548.92 1146.16 549.28 1143.76 549.68C1141.36 550.08 1139.2 550.44 1137.28 550.76C1137.6 548.12 1137.92 545.52 1138.24 542.96C1138.48 540.72 1138.68 538.48 1138.84 536.24C1139.08 534 1139.28 532.08 1139.44 530.48H1129L1124.2 547.76C1122.44 548 1120.36 548.28 1117.96 548.6C1115.56 548.84 1113.32 549.08 1111.24 549.32C1108.68 549.64 1106.16 549.96 1103.68 550.28C1106.88 539.64 1110.04 529.16 1113.16 518.84C1114.44 514.52 1115.76 510 1117.12 505.28C1118.56 500.56 1119.96 495.88 1121.32 491.24C1122.76 486.52 1124.12 482 1125.4 477.68C1126.68 473.36 1127.8 469.4 1128.76 465.8C1134.2 465.4 1139.72 464.92 1145.32 464.36C1151 463.8 1156.52 463.04 1161.88 462.08C1161.64 464.64 1161.36 467.84 1161.04 471.68C1160.8 475.44 1160.56 479.56 1160.32 484.04C1160.08 488.52 1159.84 493.2 1159.6 498.08C1159.36 502.96 1159.12 507.76 1158.88 512.48C1158.48 523.52 1158.04 535.24 1157.56 547.64C1155.16 548.04 1152.76 548.36 1150.36 548.6ZM1131.88 518.48C1132.2 518.48 1132.76 518.48 1133.56 518.48C1134.44 518.4 1135.32 518.36 1136.2 518.36C1137.16 518.28 1138.04 518.24 1138.84 518.24C1139.64 518.16 1140.2 518.08 1140.52 518C1140.52 517.52 1140.56 516.72 1140.64 515.6C1140.8 514.4 1140.92 513.08 1141 511.64C1141.16 510.12 1141.32 508.48 1141.48 506.72C1141.64 504.96 1141.8 503.24 1141.96 501.56C1142.28 497.48 1142.68 493.08 1143.16 488.36L1143.88 477.92L1142.08 478.04L1139.32 488.36L1131.88 518.48ZM1196.64 547.16C1194.16 547.16 1191.52 547.24 1188.72 547.4C1186 547.56 1183.24 547.8 1180.44 548.12C1177.64 548.44 1174.88 548.88 1172.16 549.44C1169.52 549.92 1167.12 550.52 1164.96 551.24C1165.44 547.64 1166 543.64 1166.64 539.24C1167.28 534.84 1168 530.28 1168.8 525.56C1169.68 520.84 1170.52 516.08 1171.32 511.28C1172.2 506.48 1173.08 501.88 1173.96 497.48C1175.96 487 1178.08 476.32 1180.32 465.44L1201.32 462.68C1199.16 471.96 1197.08 481 1195.08 489.8C1194.2 493.56 1193.32 497.48 1192.44 501.56C1191.56 505.56 1190.72 509.48 1189.92 513.32C1189.12 517.16 1188.4 520.88 1187.76 524.48C1187.12 528.08 1186.6 531.28 1186.2 534.08C1188.2 533.92 1190.32 533.84 1192.56 533.84C1194.88 533.76 1196.92 533.72 1198.68 533.72C1198.76 535.24 1198.88 536.76 1199.04 538.28C1199.2 539.72 1199.36 541.04 1199.52 542.24C1199.76 543.44 1199.92 544.52 1200 545.48C1200.16 546.36 1200.28 546.96 1200.36 547.28C1199.72 547.28 1199.08 547.28 1198.44 547.28C1197.88 547.2 1197.28 547.16 1196.64 547.16ZM1268.29 519.08C1267.57 522.6 1266.69 526.28 1265.65 530.12C1264.61 533.88 1263.21 537.32 1261.45 540.44C1259.77 543.48 1257.69 546.04 1255.21 548.12C1252.81 550.12 1249.93 551.12 1246.57 551.12C1244.33 551.12 1241.89 550.64 1239.25 549.68C1236.69 548.72 1233.85 547.08 1230.73 544.76L1239.01 526.28C1239.41 527.08 1240.17 527.8 1241.29 528.44C1242.49 529 1243.77 529.28 1245.13 529.28C1246.09 529.28 1246.93 528.48 1247.65 526.88C1248.45 525.28 1249.13 523.44 1249.69 521.36C1250.25 519.2 1250.69 517 1251.01 514.76C1251.33 512.52 1251.57 510.72 1251.73 509.36C1253.25 501.6 1254.69 493.88 1256.05 486.2C1257.41 478.44 1259.01 470.72 1260.85 463.04C1264.45 462.72 1267.97 462.24 1271.41 461.6C1274.93 460.88 1278.45 460.04 1281.97 459.08C1280.77 463.16 1279.53 467.8 1278.25 473C1276.97 478.2 1275.73 483.52 1274.53 488.96C1273.33 494.4 1272.17 499.76 1271.05 505.04C1270.01 510.24 1269.09 514.92 1268.29 519.08ZM1316.34 548.6C1314.34 548.92 1312.14 549.28 1309.74 549.68C1307.34 550.08 1305.18 550.44 1303.26 550.76C1303.58 548.12 1303.9 545.52 1304.22 542.96C1304.46 540.72 1304.66 538.48 1304.82 536.24C1305.06 534 1305.26 532.08 1305.42 530.48H1294.98L1290.18 547.76C1288.42 548 1286.34 548.28 1283.94 548.6C1281.54 548.84 1279.3 549.08 1277.22 549.32C1274.66 549.64 1272.14 549.96 1269.66 550.28C1272.86 539.64 1276.02 529.16 1279.14 518.84C1280.42 514.52 1281.74 510 1283.1 505.28C1284.54 500.56 1285.94 495.88 1287.3 491.24C1288.74 486.52 1290.1 482 1291.38 477.68C1292.66 473.36 1293.78 469.4 1294.74 465.8C1300.18 465.4 1305.7 464.92 1311.3 464.36C1316.98 463.8 1322.5 463.04 1327.86 462.08C1327.62 464.64 1327.34 467.84 1327.02 471.68C1326.78 475.44 1326.54 479.56 1326.3 484.04C1326.06 488.52 1325.82 493.2 1325.58 498.08C1325.34 502.96 1325.1 507.76 1324.86 512.48C1324.46 523.52 1324.02 535.24 1323.54 547.64C1321.14 548.04 1318.74 548.36 1316.34 548.6ZM1297.86 518.48C1298.18 518.48 1298.74 518.48 1299.54 518.48C1300.42 518.4 1301.3 518.36 1302.18 518.36C1303.14 518.28 1304.02 518.24 1304.82 518.24C1305.62 518.16 1306.18 518.08 1306.5 518C1306.5 517.52 1306.54 516.72 1306.62 515.6C1306.78 514.4 1306.9 513.08 1306.98 511.64C1307.14 510.12 1307.3 508.48 1307.46 506.72C1307.62 504.96 1307.78 503.24 1307.94 501.56C1308.26 497.48 1308.66 493.08 1309.14 488.36L1309.86 477.92L1308.06 478.04L1305.3 488.36L1297.86 518.48ZM1334.82 552.08C1335.86 540.88 1336.82 529.88 1337.7 519.08C1338.1 514.6 1338.46 509.88 1338.78 504.92C1339.18 499.96 1339.5 495.08 1339.74 490.28C1340.06 485.4 1340.3 480.72 1340.46 476.24C1340.62 471.68 1340.74 467.52 1340.82 463.76C1342.74 463.76 1344.78 463.72 1346.94 463.64C1349.18 463.56 1351.18 463.48 1352.94 463.4C1354.78 463.32 1356.34 463.24 1357.62 463.16C1358.9 463 1359.54 462.92 1359.54 462.92C1358.66 472.2 1357.9 479.84 1357.26 485.84C1356.62 491.76 1356.1 496.6 1355.7 500.36C1355.38 504.04 1355.06 507.6 1354.74 511.04C1354.5 514.48 1354.22 517.68 1353.9 520.64C1353.58 523.6 1353.3 526.12 1353.06 528.2H1355.22L1368.66 464.36C1370.82 464.28 1373.02 464.16 1375.26 464C1377.26 463.84 1379.34 463.72 1381.5 463.64C1383.74 463.56 1385.78 463.4 1387.62 463.16C1386.5 466.68 1385.34 470.56 1384.14 474.8C1383.02 479.04 1381.82 483.44 1380.54 488C1379.34 492.56 1378.14 497.2 1376.94 501.92C1375.82 506.64 1374.7 511.2 1373.58 515.6C1371.02 525.92 1368.46 536.52 1365.9 547.4L1334.82 552.08ZM1421.94 548.6C1419.94 548.92 1417.74 549.28 1415.34 549.68C1412.94 550.08 1410.78 550.44 1408.86 550.76C1409.18 548.12 1409.5 545.52 1409.82 542.96C1410.06 540.72 1410.26 538.48 1410.42 536.24C1410.66 534 1410.86 532.08 1411.02 530.48H1400.58L1395.78 547.76C1394.02 548 1391.94 548.28 1389.54 548.6C1387.14 548.84 1384.9 549.08 1382.82 549.32C1380.26 549.64 1377.74 549.96 1375.26 550.28C1378.46 539.64 1381.62 529.16 1384.74 518.84C1386.02 514.52 1387.34 510 1388.7 505.28C1390.14 500.56 1391.54 495.88 1392.9 491.24C1394.34 486.52 1395.7 482 1396.98 477.68C1398.26 473.36 1399.38 469.4 1400.34 465.8C1405.78 465.4 1411.3 464.92 1416.9 464.36C1422.58 463.8 1428.1 463.04 1433.46 462.08C1433.22 464.64 1432.94 467.84 1432.62 471.68C1432.38 475.44 1432.14 479.56 1431.9 484.04C1431.66 488.52 1431.42 493.2 1431.18 498.08C1430.94 502.96 1430.7 507.76 1430.46 512.48C1430.06 523.52 1429.62 535.24 1429.14 547.64C1426.74 548.04 1424.34 548.36 1421.94 548.6ZM1403.46 518.48C1403.78 518.48 1404.34 518.48 1405.14 518.48C1406.02 518.4 1406.9 518.36 1407.78 518.36C1408.74 518.28 1409.62 518.24 1410.42 518.24C1411.22 518.16 1411.78 518.08 1412.1 518C1412.1 517.52 1412.14 516.72 1412.22 515.6C1412.38 514.4 1412.5 513.08 1412.58 511.64C1412.74 510.12 1412.9 508.48 1413.06 506.72C1413.22 504.96 1413.38 503.24 1413.54 501.56C1413.86 497.48 1414.26 493.08 1414.74 488.36L1415.46 477.92L1413.66 478.04L1410.9 488.36L1403.46 518.48Z" fill="white"/>
</g>
<defs>
<linearGradient id="paint0_linear" x1="0" y1="540" x2="1920" y2="540" gradientUnits="userSpaceOnUse">
<stop stop-color="#3894F9" stop-opacity="0.99"/>
<stop offset="1" stop-color="#2CB8F6" stop-opacity="0.75"/>
</linearGradient>
<clipPath id="clip0">
<rect width="1920" height="1080" fill="white"/>
</clipPath>
</defs>
</svg>
