<svg width="1920" height="1080" viewBox="0 0 1920 1080" fill="none" xmlns="http://www.w3.org/2000/svg">
<g clip-path="url(#clip0)">
<rect width="1920" height="1080" fill="white"/>
<path d="M1919.5 1080C1919.5 1080 2155.85 423.952 1919.5 465.5C1770.19 491.747 1789.01 673.23 1662 756C1536.8 837.587 1426.5 840 1298 874C1169.5 908 1129 1012.5 1129 1080C1129 1388.71 1919.5 1080 1919.5 1080Z" fill="#FF9201" fill-opacity="0.32"/>
<path d="M1944.42 1039.66C1944.42 1039.66 2104.99 361.075 1874.86 429.112C1729.48 472.093 1768.72 650.279 1651.9 746.895C1536.74 842.13 1427.42 857.014 1303.6 905.342C1179.77 953.67 1151.36 1062.08 1159 1129.15C1193.95 1435.87 1944.42 1039.66 1944.42 1039.66Z" fill="#FF9201" fill-opacity="0.32"/>
<path d="M1963.23 1000.14C1963.23 1000.14 2051.99 308.487 1830.23 400.207C1690.14 458.149 1747.8 631.256 1641.71 739.554C1537.14 846.305 1429.97 872.535 1311.88 933.541C1193.78 994.548 1176.86 1105.34 1191.47 1171.24C1258.29 1472.63 1963.23 1000.14 1963.23 1000.14Z" fill="#FF9201" fill-opacity="0.32"/>
<rect width="1920" height="1080" fill="url(#paint0_linear)"/>
<path d="M-2.95413 2.20427C-2.95413 2.20427 -239.307 658.253 -2.95413 616.704C146.357 590.457 127.535 408.974 254.546 326.204C379.741 244.617 490.046 242.204 618.546 208.204C747.046 174.204 787.546 69.7043 787.546 2.20427C787.546 -306.505 -2.95413 2.20427 -2.95413 2.20427Z" fill="#FF9201" fill-opacity="0.2"/>
<path d="M26.3718 -35.0533C26.3718 -35.0533 -282.729 590.022 -43.1916 575.497C108.131 566.321 109.975 383.874 245.539 316.014C379.165 249.124 489.034 259.213 620.557 239.978C752.08 220.744 804.149 121.5 811.79 54.4339C846.737 -252.291 26.3718 -35.0533 26.3718 -35.0533Z" fill="#FF9201" fill-opacity="0.2"/>
<path d="M67.9523 -75.976C67.9523 -75.976 -325.134 499.998 -85.9063 518.951C65.2204 530.924 92.4381 350.51 236.127 302.177C377.763 254.535 485.158 279.817 618.078 279.074C750.998 278.33 816.372 187.299 833.273 121.949C910.568 -176.927 67.9523 -75.976 67.9523 -75.976Z" fill="#FF9201" fill-opacity="0.2"/>
<rect x="281" y="172" width="1498" height="247" rx="50" fill="white" fill-opacity="0.98"/>
<rect x="786" y="398" width="608" height="221" rx="50" fill="#29293A" fill-opacity="0.98"/>
<path d="M455.437 224C457.703 224 458.837 229.933 458.837 241.8C458.837 253.533 457.703 259.4 455.437 259.4H418.837V282.2H443.237C445.503 282.2 446.637 287.4 446.637 297.8C446.637 308.067 445.57 313.2 443.437 313.2H418.837V361.4C418.837 363.267 416.303 364.467 411.237 365C406.303 365.667 402.17 366 398.837 366L389.437 365.6C382.903 364.8 379.637 363.467 379.637 361.6V229.2C379.637 227.067 380.037 225.667 380.837 225C381.77 224.333 383.103 224 384.837 224H455.437ZM558.773 224C561.039 224 562.173 229.933 562.173 241.8C562.173 253.533 561.039 259.4 558.773 259.4H522.173V282.2H546.573C548.839 282.2 549.973 287.4 549.973 297.8C549.973 308.067 548.906 313.2 546.773 313.2H522.173V361.4C522.173 363.267 519.639 364.467 514.573 365C509.639 365.667 505.506 366 502.173 366L492.773 365.6C486.239 364.8 482.973 363.467 482.973 361.6V229.2C482.973 227.067 483.373 225.667 484.173 225C485.106 224.333 486.439 224 488.173 224H558.773ZM647.509 360.8C647.509 363.467 640.909 364.8 627.709 364.8C614.509 364.8 607.909 363.467 607.909 360.8V260.4H583.909C581.642 260.4 580.042 257.333 579.109 251.2C578.709 248.267 578.509 245.267 578.509 242.2C578.509 239.133 578.709 236.133 579.109 233.2C580.042 227.067 581.642 224 583.909 224H670.909C673.175 224 674.775 227.067 675.709 233.2C676.109 236.133 676.309 239.133 676.309 242.2C676.309 245.267 676.109 248.267 675.709 251.2C674.775 257.333 673.175 260.4 670.909 260.4H647.509V360.8ZM837.395 364.4C825.795 364.4 819.528 362.533 818.595 358.8L811.995 333H780.195L774.395 357.8C773.595 361.933 767.195 364 755.195 364C748.795 364 744.061 363.667 740.995 363C737.928 362.2 736.395 361.6 736.395 361.2L771.795 225.8C771.795 224.733 780.928 224.2 799.195 224.2C817.461 224.2 826.595 224.733 826.595 225.8L861.195 361.4C861.195 362.333 858.128 363.067 851.995 363.6C845.861 364.133 840.995 364.4 837.395 364.4ZM785.195 307.6H806.195L797.195 266.2H795.995L785.195 307.6ZM993.049 359.6C993.049 362.4 986.783 363.8 974.249 363.8C961.716 363.8 954.916 362.8 953.849 360.8L920.449 298.4V360.6C920.449 363 914.249 364.2 901.849 364.2C889.583 364.2 883.449 363 883.449 360.6V226.8C883.449 224.8 888.716 223.8 899.249 223.8C903.383 223.8 908.183 224.2 913.649 225C919.249 225.667 922.649 227 923.849 229L955.849 290.6V227.8C955.849 225.267 962.049 224 974.449 224C986.849 224 993.049 225.267 993.049 227.8V359.6ZM1116.14 364.4C1104.54 364.4 1098.27 362.533 1097.34 358.8L1090.74 333H1058.94L1053.14 357.8C1052.34 361.933 1045.94 364 1033.94 364C1027.54 364 1022.8 363.667 1019.74 363C1016.67 362.2 1015.14 361.6 1015.14 361.2L1050.54 225.8C1050.54 224.733 1059.67 224.2 1077.94 224.2C1096.2 224.2 1105.34 224.733 1105.34 225.8L1139.94 361.4C1139.94 362.333 1136.87 363.067 1130.74 363.6C1124.6 364.133 1119.74 364.4 1116.14 364.4ZM1063.94 307.6H1084.94L1075.94 266.2H1074.74L1063.94 307.6ZM1160.19 352.2V227.8C1160.19 225 1166.92 223.6 1180.39 223.6C1193.99 223.6 1200.79 225 1200.79 227.8V325.8H1231.59C1233.99 325.8 1235.66 328.933 1236.59 335.2C1236.99 338.267 1237.19 341.4 1237.19 344.6C1237.19 347.8 1236.99 351.067 1236.59 354.4C1235.52 360.8 1233.79 364 1231.39 364H1169.79C1166.86 364 1164.52 362.8 1162.79 360.4C1161.06 358 1160.19 355.267 1160.19 352.2ZM1320.67 230.6C1322.41 225.933 1330.94 223.6 1346.27 223.6C1350.14 223.6 1354.67 223.867 1359.87 224.4C1365.21 224.933 1367.67 225.6 1367.27 226.4L1325.67 310V358.8C1325.67 361.067 1322.01 362.667 1314.67 363.6C1310.94 364.133 1307.27 364.4 1303.67 364.4C1300.07 364.4 1296.47 364.2 1292.87 363.8C1285.54 362.867 1281.87 361.2 1281.87 358.8V311.2L1238.87 226.8C1238.34 226 1241.07 225.267 1247.07 224.6C1253.07 223.8 1258.14 223.4 1262.27 223.4C1278.67 223.4 1287.67 225.8 1289.27 230.6L1303.87 271.4L1320.67 230.6ZM1388.32 315.2C1390.85 317.2 1395.19 319.933 1401.32 323.4C1407.59 326.867 1413.52 328.6 1419.12 328.6C1424.85 328.6 1427.72 326.4 1427.72 322C1427.72 320 1426.92 318.267 1425.32 316.8C1423.72 315.2 1420.79 313.4 1416.52 311.4C1412.25 309.4 1409.05 307.867 1406.92 306.8C1404.79 305.6 1401.92 303.733 1398.32 301.2C1394.85 298.533 1392.19 295.8 1390.32 293C1384.99 285.4 1382.32 275.733 1382.32 264C1382.32 252.267 1386.65 242.4 1395.32 234.4C1404.12 226.267 1415.59 222.2 1429.72 222.2C1439.32 222.2 1448.19 223.267 1456.32 225.4C1464.45 227.4 1468.65 230.067 1468.92 233.4C1468.92 233.8 1468.92 234.2 1468.92 234.6C1468.92 239.267 1467.45 245.2 1464.52 252.4C1461.59 259.467 1459.52 263.4 1458.32 264.2C1449.79 259.8 1442.12 257.6 1435.32 257.6C1428.65 257.6 1425.32 260 1425.32 264.8C1425.32 267.733 1427.79 270.333 1432.72 272.6C1433.79 273.133 1435.32 273.867 1437.32 274.8C1439.32 275.733 1441.59 276.867 1444.12 278.2C1446.79 279.4 1449.59 281 1452.52 283C1455.59 284.867 1458.85 287.4 1462.32 290.6C1469.39 297.267 1472.92 306.067 1472.92 317C1472.92 331.267 1468.99 342.933 1461.12 352C1453.25 361.067 1441.12 365.733 1424.72 366C1416.72 366 1409.45 365.333 1402.92 364C1396.52 362.667 1390.92 360.067 1386.12 356.2C1381.32 352.333 1378.92 347.667 1378.92 342.2C1378.92 336.733 1379.92 331.333 1381.92 326C1383.92 320.533 1386.05 316.933 1388.32 315.2ZM1511.57 329.6V258.4H1497.37C1495.1 258.4 1493.5 255.533 1492.57 249.8C1492.17 247 1491.97 244.133 1491.97 241.2C1491.97 238.267 1492.17 235.4 1492.57 232.6C1493.5 226.867 1495.1 224 1497.37 224H1564.57C1566.84 224 1568.37 226.867 1569.17 232.6C1569.7 235.4 1569.97 238.267 1569.97 241.2C1569.97 244.133 1569.7 247 1569.17 249.8C1568.37 255.533 1566.84 258.4 1564.57 258.4H1551.17V329.6H1565.17C1567.44 329.6 1569.04 332.467 1569.97 338.2C1570.5 341 1570.77 343.867 1570.77 346.8C1570.77 349.733 1570.5 352.6 1569.97 355.4C1569.04 361.133 1567.44 364 1565.17 364H1497.77C1495.5 364 1493.97 361.133 1493.17 355.4C1492.64 352.6 1492.37 349.733 1492.37 346.8C1492.37 343.867 1492.64 341 1493.17 338.2C1493.97 332.467 1495.5 329.6 1497.77 329.6H1511.57ZM1598.31 315.2C1600.85 317.2 1605.18 319.933 1611.31 323.4C1617.58 326.867 1623.51 328.6 1629.11 328.6C1634.85 328.6 1637.71 326.4 1637.71 322C1637.71 320 1636.91 318.267 1635.31 316.8C1633.71 315.2 1630.78 313.4 1626.51 311.4C1622.25 309.4 1619.05 307.867 1616.91 306.8C1614.78 305.6 1611.91 303.733 1608.31 301.2C1604.85 298.533 1602.18 295.8 1600.31 293C1594.98 285.4 1592.31 275.733 1592.31 264C1592.31 252.267 1596.65 242.4 1605.31 234.4C1614.11 226.267 1625.58 222.2 1639.71 222.2C1649.31 222.2 1658.18 223.267 1666.31 225.4C1674.45 227.4 1678.65 230.067 1678.91 233.4C1678.91 233.8 1678.91 234.2 1678.91 234.6C1678.91 239.267 1677.45 245.2 1674.51 252.4C1671.58 259.467 1669.51 263.4 1668.31 264.2C1659.78 259.8 1652.11 257.6 1645.31 257.6C1638.65 257.6 1635.31 260 1635.31 264.8C1635.31 267.733 1637.78 270.333 1642.71 272.6C1643.78 273.133 1645.31 273.867 1647.31 274.8C1649.31 275.733 1651.58 276.867 1654.11 278.2C1656.78 279.4 1659.58 281 1662.51 283C1665.58 284.867 1668.85 287.4 1672.31 290.6C1679.38 297.267 1682.91 306.067 1682.91 317C1682.91 331.267 1678.98 342.933 1671.11 352C1663.25 361.067 1651.11 365.733 1634.71 366C1626.71 366 1619.45 365.333 1612.91 364C1606.51 362.667 1600.91 360.067 1596.11 356.2C1591.31 352.333 1588.91 347.667 1588.91 342.2C1588.91 336.733 1589.91 331.333 1591.91 326C1593.91 320.533 1596.05 316.933 1598.31 315.2Z" fill="#29293A"/>
<path d="M850.632 551.48L859.752 466.28C863.512 466.12 867.032 465.76 870.312 465.2C873.672 464.56 876.992 464.12 880.272 463.88C880.272 463.96 880.152 464.8 879.912 466.4C879.672 467.92 879.352 469.96 878.952 472.52C878.552 475 878.112 477.84 877.632 481.04C877.152 484.16 876.432 488.48 875.472 494C874.592 499.52 873.392 507.16 871.872 516.92H873.672C875.752 509.56 877.472 503.56 878.832 498.92C880.192 494.2 881.272 490.4 882.072 487.52C882.952 484.56 883.752 481.72 884.472 479C885.272 476.28 885.992 473.76 886.632 471.44C887.352 469.12 887.912 467.16 888.312 465.56H889.392C890.832 465.56 892.272 465.48 893.712 465.32C895.232 465.16 896.632 465 897.912 464.84C899.272 464.6 900.672 464.32 902.112 464C901.952 464.72 901.752 466.2 901.512 468.44C901.352 470.68 901.112 473.4 900.792 476.6C900.472 479.72 900.152 483.2 899.832 487.04C899.512 490.8 899.192 494.52 898.872 498.2C898.552 501.8 898.232 505.24 897.912 508.52C897.672 511.8 897.432 514.6 897.192 516.92H899.352L910.752 465.32C913.472 464.92 916.152 464.56 918.792 464.24C921.112 463.92 923.512 463.6 925.992 463.28C928.472 462.96 930.672 462.6 932.592 462.2C931.392 465.56 930.192 469.32 928.992 473.48C927.792 477.56 926.552 481.88 925.272 486.44C923.992 491 922.752 495.6 921.552 500.24C920.432 504.88 919.312 509.36 918.192 513.68C915.632 523.92 913.152 534.44 910.752 545.24L883.632 549.8L888.912 503.48H887.472L875.592 547.04L850.632 551.48ZM942.142 548.6C941.422 548.6 940.022 548.72 937.942 548.96C935.862 549.12 933.702 549.36 931.462 549.68C929.222 549.92 927.182 550.16 925.342 550.4C923.582 550.64 922.622 550.8 922.462 550.88C923.422 547.44 924.382 543.64 925.342 539.48C926.302 535.24 927.262 530.84 928.222 526.28C929.262 521.64 930.222 516.96 931.102 512.24C932.062 507.52 932.982 502.96 933.862 498.56C935.862 488.32 937.822 477.8 939.742 467L958.462 464C956.382 474.72 954.302 485.24 952.222 495.56C951.342 499.96 950.422 504.52 949.462 509.24C948.582 513.96 947.702 518.64 946.822 523.28C946.022 527.92 945.182 532.44 944.302 536.84C943.502 541.16 942.782 545.08 942.142 548.6ZM962.82 551.12C964.66 542.32 966.42 533.64 968.1 525.08C968.82 521.48 969.54 517.72 970.26 513.8C970.98 509.88 971.66 506.04 972.3 502.28C973.02 498.44 973.62 494.76 974.1 491.24C974.66 487.64 975.14 484.36 975.54 481.4C973.7 481.16 971.82 481.08 969.9 481.16C968.06 481.24 966.22 481 964.38 480.44C964.46 479.16 964.5 477.68 964.5 476C964.5 474.32 964.54 472.64 964.62 470.96C964.7 469.12 964.78 467.16 964.86 465.08C966.94 465.24 969.02 465.36 971.1 465.44C973.18 465.52 975.26 465.56 977.34 465.56C981.42 465.56 985.34 465.48 989.1 465.32C992.94 465.08 996.46 464.84 999.66 464.6C1002.94 464.28 1006.14 463.92 1009.26 463.52L1007.94 470C1007.54 471.84 1007.14 473.72 1006.74 475.64C1006.42 477.56 1006.1 479.2 1005.78 480.56C1004.02 481.04 1002.22 481.4 1000.38 481.64C998.62 481.8 996.86 482.04 995.1 482.36C994.54 485.08 993.94 488.12 993.3 491.48C992.66 494.76 992.02 498.2 991.38 501.8C990.82 505.32 990.26 508.92 989.7 512.6C989.14 516.28 988.58 519.8 988.02 523.16C986.74 531.08 985.54 539.28 984.42 547.76L962.82 551.12ZM1001.98 551.24C1004.06 540.2 1006.1 529.36 1008.1 518.72C1008.82 514.24 1009.62 509.6 1010.5 504.8C1011.38 499.92 1012.22 495.12 1013.02 490.4C1013.82 485.68 1014.58 481.12 1015.3 476.72C1016.02 472.24 1016.66 468.16 1017.22 464.48L1036.66 463.16C1035.3 468.76 1033.94 474.6 1032.58 480.68C1031.3 486.76 1030.1 492.68 1028.98 498.44L1040.86 497.12C1041.98 491.44 1042.98 485.96 1043.86 480.68C1044.74 475.32 1045.9 469.8 1047.34 464.12C1049.18 463.8 1051.22 463.56 1053.46 463.4C1055.7 463.16 1057.78 462.96 1059.7 462.8C1061.62 462.64 1063.22 462.52 1064.5 462.44C1065.86 462.28 1066.54 462.2 1066.54 462.2C1065.42 465.8 1064.34 469.76 1063.3 474.08C1062.34 478.32 1061.38 482.76 1060.42 487.4C1059.46 491.96 1058.54 496.6 1057.66 501.32C1056.78 506.04 1055.98 510.52 1055.26 514.76C1053.5 524.92 1051.86 535.32 1050.34 545.96L1031.62 548.12C1032.66 543.32 1033.58 538.64 1034.38 534.08C1035.18 530.24 1035.98 526.24 1036.78 522.08C1037.66 517.92 1038.34 514.36 1038.82 511.4L1027.18 512.48C1026.62 515.52 1025.94 519.04 1025.14 523.04C1024.42 527.04 1023.74 530.84 1023.1 534.44C1022.22 538.76 1021.34 543.08 1020.46 547.4L1001.98 551.24ZM1087.86 551.12C1090.26 540.32 1092.54 529.76 1094.7 519.44C1095.58 515.12 1096.5 510.56 1097.46 505.76C1098.42 500.96 1099.34 496.24 1100.22 491.6C1101.1 486.96 1101.94 482.48 1102.74 478.16C1103.54 473.84 1104.22 469.88 1104.78 466.28C1107.1 465.56 1109.38 464.96 1111.62 464.48C1113.86 463.92 1116.14 463.44 1118.46 463.04C1120.86 462.64 1123.1 462.44 1125.18 462.44C1128.78 462.44 1131.78 463.04 1134.18 464.24C1136.66 465.44 1138.66 467.08 1140.18 469.16C1141.7 471.16 1142.78 473.52 1143.42 476.24C1144.06 478.96 1144.38 481.88 1144.38 485C1144.38 489.48 1143.54 493.8 1141.86 497.96C1140.26 502.12 1138.06 505.84 1135.26 509.12C1132.54 512.32 1129.38 514.88 1125.78 516.8C1122.26 518.72 1118.58 519.68 1114.74 519.68H1113.42C1112.78 522.4 1112.18 525.36 1111.62 528.56C1111.06 531.76 1110.58 534.72 1110.18 537.44C1109.62 540.64 1109.1 543.84 1108.62 547.04L1087.86 551.12ZM1121.34 476.96C1120.46 482.24 1119.58 487.24 1118.7 491.96C1117.82 496.68 1116.86 501.72 1115.82 507.08C1117.1 506.76 1118.42 506.04 1119.78 504.92C1121.22 503.72 1122.54 502.2 1123.74 500.36C1124.94 498.44 1125.9 496.24 1126.62 493.76C1127.34 491.28 1127.7 488.68 1127.7 485.96C1127.7 483 1127.02 480.76 1125.66 479.24C1124.38 477.72 1122.94 476.96 1121.34 476.96ZM1198.71 513.2C1198.71 516 1198.23 518.88 1197.27 521.84C1196.31 524.8 1194.99 527.72 1193.31 530.6C1191.71 533.4 1189.79 536.08 1187.55 538.64C1185.31 541.2 1182.91 543.44 1180.35 545.36C1177.87 547.28 1175.27 548.8 1172.55 549.92C1169.83 551.04 1167.19 551.6 1164.63 551.6C1161.59 551.6 1158.83 551.08 1156.35 550.04C1153.95 549 1151.91 547.56 1150.23 545.72C1148.63 543.8 1147.39 541.52 1146.51 538.88C1145.63 536.24 1145.19 533.36 1145.19 530.24C1145.19 528.72 1145.23 527.12 1145.31 525.44C1145.47 523.76 1145.63 522 1145.79 520.16L1164.27 521.6C1163.87 522.8 1163.67 523.76 1163.67 524.48C1163.67 526.08 1164.15 527.24 1165.11 527.96C1166.07 528.68 1167.19 529.04 1168.47 529.04C1169.51 529.04 1170.55 528.84 1171.59 528.44C1172.71 527.96 1173.71 527.24 1174.59 526.28C1175.55 525.32 1176.31 524.12 1176.87 522.68C1177.43 521.24 1177.71 519.56 1177.71 517.64C1177.71 516.68 1177.55 515.76 1177.23 514.88C1176.99 513.92 1176.39 513.12 1175.43 512.48C1174.55 511.84 1173.27 511.32 1171.59 510.92C1169.91 510.44 1167.71 510.2 1164.99 510.2C1164.27 510.2 1163.51 510.24 1162.71 510.32C1161.99 510.32 1160.99 510.4 1159.71 510.56C1158.43 510.72 1156.87 510.96 1155.03 511.28C1153.27 511.52 1150.99 511.88 1148.19 512.36C1149.07 506.36 1150.15 499.48 1151.43 491.72C1152.71 483.88 1154.27 475.04 1156.11 465.2L1201.83 463.52L1199.43 483.08C1194.95 483.24 1190.39 483.4 1185.75 483.56C1181.19 483.72 1176.51 483.92 1171.71 484.16C1171.55 485.28 1171.35 486.72 1171.11 488.48C1170.95 490.24 1170.75 492.16 1170.51 494.24C1175.63 494.24 1179.99 494.72 1183.59 495.68C1187.19 496.64 1190.11 497.96 1192.35 499.64C1194.59 501.32 1196.19 503.32 1197.15 505.64C1198.19 507.88 1198.71 510.4 1198.71 513.2ZM1224.29 541.4C1224.29 542.92 1223.93 544.44 1223.21 545.96C1222.57 547.48 1221.61 548.84 1220.33 550.04C1219.05 551.16 1217.45 552.04 1215.53 552.68C1213.61 553.4 1211.41 553.76 1208.93 553.76C1207.25 553.76 1205.73 553.44 1204.37 552.8C1203.01 552.16 1201.89 551.32 1201.01 550.28C1200.21 549.16 1199.57 547.92 1199.09 546.56C1198.61 545.2 1198.37 543.84 1198.37 542.48C1198.37 540.96 1198.61 539.52 1199.09 538.16C1199.57 536.72 1200.29 535.48 1201.25 534.44C1202.29 533.32 1203.53 532.4 1204.97 531.68C1206.49 530.96 1208.29 530.6 1210.37 530.6C1215.01 530.6 1218.49 531.72 1220.81 533.96C1223.13 536.12 1224.29 538.6 1224.29 541.4ZM1264.13 519.08C1263.41 522.6 1262.53 526.28 1261.49 530.12C1260.45 533.88 1259.05 537.32 1257.29 540.44C1255.61 543.48 1253.53 546.04 1251.05 548.12C1248.65 550.12 1245.77 551.12 1242.41 551.12C1240.17 551.12 1237.73 550.64 1235.09 549.68C1232.53 548.72 1229.69 547.08 1226.57 544.76L1234.85 526.28C1235.25 527.08 1236.01 527.8 1237.13 528.44C1238.33 529 1239.61 529.28 1240.97 529.28C1241.93 529.28 1242.77 528.48 1243.49 526.88C1244.29 525.28 1244.97 523.44 1245.53 521.36C1246.09 519.2 1246.53 517 1246.85 514.76C1247.17 512.52 1247.41 510.72 1247.57 509.36C1249.09 501.6 1250.53 493.88 1251.89 486.2C1253.25 478.44 1254.85 470.72 1256.69 463.04C1260.29 462.72 1263.81 462.24 1267.25 461.6C1270.77 460.88 1274.29 460.04 1277.81 459.08C1276.61 463.16 1275.37 467.8 1274.09 473C1272.81 478.2 1271.57 483.52 1270.37 488.96C1269.17 494.4 1268.01 499.76 1266.89 505.04C1265.85 510.24 1264.93 514.92 1264.13 519.08ZM1321.89 521.36C1321.89 525.84 1321.01 529.92 1319.25 533.6C1317.57 537.2 1315.25 540.32 1312.29 542.96C1309.41 545.6 1305.97 547.64 1301.97 549.08C1298.05 550.52 1293.81 551.24 1289.25 551.24C1286.05 551.24 1282.85 550.4 1279.65 548.72C1276.45 546.96 1273.37 544.2 1270.41 540.44L1279.29 523.04C1279.85 524.08 1280.69 525.16 1281.81 526.28C1282.93 527.32 1284.17 528.24 1285.53 529.04C1286.97 529.84 1288.37 530.52 1289.73 531.08C1291.17 531.56 1292.45 531.8 1293.57 531.8C1294.53 531.8 1295.53 531.64 1296.57 531.32C1297.61 531 1298.57 530.52 1299.45 529.88C1300.33 529.24 1301.01 528.52 1301.49 527.72C1302.05 526.84 1302.33 525.84 1302.33 524.72C1302.33 522.8 1301.69 521.04 1300.41 519.44C1299.21 517.76 1297.69 516.2 1295.85 514.76C1294.01 513.24 1292.01 511.72 1289.85 510.2C1287.69 508.68 1285.69 507.08 1283.85 505.4C1282.09 503.72 1280.57 501.84 1279.29 499.76C1278.01 497.68 1277.37 495.36 1277.37 492.8C1277.37 488.64 1278.61 484.76 1281.09 481.16C1283.57 477.56 1286.65 474.48 1290.33 471.92C1294.09 469.28 1298.17 467.2 1302.57 465.68C1306.97 464.16 1311.13 463.4 1315.05 463.4C1317.21 463.4 1319.25 463.68 1321.17 464.24C1323.09 464.72 1324.73 465.56 1326.09 466.76C1327.53 467.88 1328.65 469.32 1329.45 471.08C1330.33 472.84 1330.77 475.04 1330.77 477.68C1330.77 478.8 1330.65 479.92 1330.41 481.04C1330.25 482.16 1330.09 483.36 1329.93 484.64L1312.53 489.68C1312.69 489.04 1312.81 488.4 1312.89 487.76C1313.05 487.12 1313.13 486.48 1313.13 485.84C1313.13 483.44 1312.69 481.72 1311.81 480.68C1311.01 479.56 1309.93 479 1308.57 479C1307.93 479 1307.13 479.24 1306.17 479.72C1305.29 480.2 1304.37 480.84 1303.41 481.64C1302.53 482.36 1301.77 483.24 1301.13 484.28C1300.49 485.32 1300.17 486.44 1300.17 487.64C1300.17 489.56 1300.69 491.16 1301.73 492.44C1302.85 493.72 1304.21 494.92 1305.81 496.04C1307.41 497.16 1309.13 498.32 1310.97 499.52C1312.89 500.64 1314.65 502.12 1316.25 503.96C1317.85 505.8 1319.17 508.12 1320.21 510.92C1321.33 513.64 1321.89 517.12 1321.89 521.36Z" fill="white"/>
<rect x="-172" y="675" width="622" height="622" rx="311" stroke="white" stroke-opacity="0.4" stroke-width="16"/>
<rect x="303" y="735" width="232" height="232" rx="116" stroke="#FED991" stroke-width="8"/>
<rect x="292" y="887" width="72" height="72" rx="36" stroke="#FED991" stroke-width="4"/>
<rect x="396" y="828" width="42" height="42" rx="21" fill="#FED991"/>
<rect x="315" y="910" width="26" height="26" rx="13" fill="#FED991"/>
<rect x="286" y="910" width="13" height="13" rx="6.5" fill="#FED991"/>
<g clip-path="url(#clip1)">
<path d="M769.809 800.97C766.046 800.97 763 804.016 763 807.775V841.813C763 845.576 766.046 848.622 769.809 848.622C773.568 848.622 776.614 845.576 776.614 841.813V807.775C776.614 804.016 773.568 800.97 769.809 800.97Z" fill="#FED991"/>
<path d="M803.87 773.094C800.111 773.094 797.061 776.145 797.061 779.904V874.157C797.061 877.92 800.111 880.966 803.87 880.966C807.629 880.966 810.68 877.92 810.68 874.157V779.904C810.68 776.145 807.629 773.094 803.87 773.094Z" fill="#FED991"/>
<path d="M837.885 726.085C834.126 726.085 831.076 729.131 831.076 732.89V923.507C831.076 927.266 834.126 930.316 837.885 930.316C841.644 930.316 844.694 927.266 844.694 923.507V732.89C844.694 729.131 841.644 726.085 837.885 726.085Z" fill="#FED991"/>
<path d="M871.923 760.123C868.164 760.123 865.114 763.169 865.114 766.932V882.66C865.114 886.419 868.164 889.469 871.923 889.469C875.682 889.469 878.732 886.419 878.732 882.66V766.932C878.732 763.169 875.682 760.123 871.923 760.123Z" fill="#FED991"/>
<path d="M974.703 743.641C970.944 743.641 967.898 746.688 967.898 750.451V903.613C967.898 907.372 970.944 910.419 974.703 910.419C978.462 910.419 981.512 907.372 981.512 903.613V750.451C981.512 746.688 978.462 743.641 974.703 743.641Z" fill="#FED991"/>
<path d="M1042.12 753.314C1038.36 753.314 1035.31 756.364 1035.31 760.123V896.275C1035.31 900.037 1038.36 903.084 1042.12 903.084C1045.88 903.084 1048.92 900.037 1048.92 896.275V760.123C1048.92 756.364 1045.88 753.314 1042.12 753.314Z" fill="#FED991"/>
<path d="M1076.15 787.352C1072.4 787.352 1069.35 790.402 1069.35 794.161V862.237C1069.35 865.996 1072.4 869.046 1076.15 869.046C1079.91 869.046 1082.96 865.996 1082.96 862.237V794.161C1082.96 790.402 1079.91 787.352 1076.15 787.352Z" fill="#FED991"/>
<path d="M1008.08 698.852C1004.32 698.852 1001.27 701.902 1001.27 705.661V950.736C1001.27 954.499 1004.32 957.545 1008.08 957.545C1011.84 957.545 1014.88 954.499 1014.88 950.736V705.661C1014.88 701.902 1011.84 698.852 1008.08 698.852Z" fill="#FED991"/>
<path d="M905.961 807.775C902.202 807.775 899.156 810.825 899.156 814.584V841.813C899.156 845.576 902.202 848.622 905.961 848.622C909.72 848.622 912.77 845.576 912.77 841.813V814.584C912.77 810.825 909.72 807.775 905.961 807.775Z" fill="#FED991"/>
<path d="M1110.19 805.496C1106.43 805.496 1103.38 808.543 1103.38 812.302V841.759C1103.38 845.518 1106.43 848.568 1110.19 848.568C1113.95 848.568 1117 845.518 1117 841.759V812.302C1117 808.543 1113.95 805.496 1110.19 805.496Z" fill="#FED991"/>
<path d="M939.36 792.517C935.597 792.517 932.551 795.563 932.551 799.322V854.738C932.551 858.497 935.597 861.547 939.36 861.547C943.119 861.547 946.165 858.497 946.165 854.738V799.322C946.165 795.563 943.119 792.517 939.36 792.517Z" fill="#FED991"/>
</g>
</g>
<defs>
<linearGradient id="paint0_linear" x1="0" y1="540" x2="1920" y2="540" gradientUnits="userSpaceOnUse">
<stop stop-color="#FDB426" stop-opacity="0.9"/>
<stop offset="1" stop-color="#FDB426" stop-opacity="0.7"/>
</linearGradient>
<clipPath id="clip0">
<rect width="1920" height="1080" fill="white"/>
</clipPath>
<clipPath id="clip1">
<rect width="354" height="354" fill="white" transform="translate(763 651)"/>
</clipPath>
</defs>
</svg>
