<svg width="1920" height="1080" viewBox="0 0 1920 1080" fill="none" xmlns="http://www.w3.org/2000/svg">
<g clip-path="url(#clip0)">
<rect width="1920" height="1080" fill="white"/>
<path d="M1919.5 1080C1919.5 1080 2155.85 423.952 1919.5 465.5C1770.19 491.747 1789.01 673.23 1662 756C1536.8 837.587 1426.5 840 1298 874C1169.5 908 1129 1012.5 1129 1080C1129 1388.71 1919.5 1080 1919.5 1080Z" fill="#7289DA" fill-opacity="0.5"/>
<path d="M-2.95413 2.20421C-2.95413 2.20421 -239.307 658.253 -2.95413 616.704C146.357 590.457 127.535 408.974 254.546 326.204C379.741 244.617 490.046 242.204 618.546 208.204C747.046 174.204 787.546 69.7042 787.546 2.20421C787.546 -306.505 -2.95413 2.20421 -2.95413 2.20421Z" fill="black"/>
<path d="M26.3718 -35.0533C26.3718 -35.0533 -282.729 590.022 -43.1916 575.497C108.131 566.321 109.975 383.874 245.539 316.014C379.165 249.124 489.034 259.213 620.557 239.978C752.08 220.744 804.149 121.5 811.79 54.4339C846.737 -252.291 26.3718 -35.0533 26.3718 -35.0533Z" fill="black"/>
<path d="M67.9523 -75.9759C67.9523 -75.9759 -325.134 499.998 -85.9063 518.951C65.2204 530.924 92.4381 350.51 236.127 302.177C377.763 254.535 485.158 279.817 618.078 279.074C750.998 278.331 816.372 187.299 833.273 121.949C910.568 -176.927 67.9523 -75.9759 67.9523 -75.9759Z" fill="black"/>
<path d="M1944.42 1039.66C1944.42 1039.66 2104.99 361.075 1874.86 429.112C1729.48 472.093 1768.72 650.279 1651.9 746.895C1536.74 842.13 1427.42 857.014 1303.6 905.342C1179.77 953.67 1151.36 1062.08 1159 1129.15C1193.95 1435.87 1944.42 1039.66 1944.42 1039.66Z" fill="#7289DA" fill-opacity="0.5"/>
<path d="M1963.23 1000.14C1963.23 1000.14 2051.99 308.487 1830.23 400.207C1690.14 458.149 1747.8 631.256 1641.71 739.554C1537.14 846.305 1429.97 872.535 1311.88 933.541C1193.78 994.548 1176.86 1105.34 1191.47 1171.24C1258.29 1472.63 1963.23 1000.14 1963.23 1000.14Z" fill="#7289DA" fill-opacity="0.5"/>
<path d="M427.575 583.8H253.425C249.916 583.812 246.444 584.516 243.207 585.87C239.97 587.224 237.031 589.203 234.559 591.693C232.087 594.183 230.129 597.135 228.798 600.382C227.467 603.628 226.788 607.105 226.8 610.614V784.386C226.788 787.895 227.467 791.372 228.798 794.618C230.129 797.865 232.087 800.817 234.559 803.307C237.031 805.797 239.97 807.776 243.207 809.13C246.444 810.484 249.916 811.188 253.425 811.2H400.761L393.939 787.133L410.52 804.473L426.249 818.969L454.2 843.699V610.614C454.213 607.105 453.534 603.628 452.203 600.382C450.871 597.135 448.914 594.183 446.441 591.693C443.969 589.203 441.03 587.224 437.793 585.87C434.556 584.516 431.084 583.812 427.575 583.8ZM377.358 753.497C377.358 753.497 372.715 747.907 368.83 742.98C378.241 740.768 386.565 735.297 392.328 727.536C387.642 730.647 382.62 733.221 377.358 735.21C371.284 737.814 364.923 739.691 358.408 740.801C347.262 742.902 335.823 742.902 324.677 740.801C318.201 739.525 311.858 737.654 305.727 735.21C302.464 733.998 299.296 732.541 296.252 730.852L295.02 730.189H294.546C292.178 728.862 290.851 727.915 290.851 727.915C296.412 735.524 304.455 740.952 313.591 743.264L304.969 754.066C297.246 754.267 289.592 752.576 282.672 749.141C275.752 745.706 269.778 740.631 265.269 734.358C265.75 707.98 272.23 682.058 284.219 658.558C294.67 650.339 307.418 645.571 320.697 644.914L322.024 646.524C309.517 649.602 297.839 655.392 287.819 663.485C287.819 663.485 290.662 661.969 295.494 659.695C304.831 655.456 314.774 652.707 324.961 651.546H327.235C335.952 650.497 344.764 650.497 353.481 651.546C367.207 653.102 380.499 657.318 392.613 663.958C383.096 656.237 372.053 650.618 360.208 647.472L362.008 645.388C375.316 646.05 388.092 650.816 398.582 659.031C410.549 682.54 417.028 708.457 417.532 734.831C412.863 740.981 406.763 745.896 399.761 749.149C392.759 752.402 385.068 753.895 377.358 753.497Z" fill="#29293A"/>
<path d="M364.377 721.661C371.703 721.661 377.642 715.213 377.642 707.259C377.642 699.305 371.703 692.857 364.377 692.857C357.051 692.857 351.112 699.305 351.112 707.259C351.112 715.213 357.051 721.661 364.377 721.661Z" fill="#29293A"/>
<path d="M317.002 692.857C314.079 692.609 311.15 693.253 308.601 694.705C306.051 696.156 304.003 698.347 302.725 700.988C301.447 703.628 301.001 706.594 301.444 709.494C301.888 712.394 303.201 715.091 305.209 717.229C307.218 719.367 309.828 720.845 312.695 721.468C315.561 722.091 318.549 721.83 321.264 720.719C323.979 719.608 326.293 717.699 327.901 715.246C329.508 712.792 330.333 709.908 330.267 706.975C330.345 703.354 328.999 699.847 326.518 697.207C324.038 694.567 320.621 693.005 317.002 692.857Z" fill="#29293A"/>
<path fill-rule="evenodd" clip-rule="evenodd" d="M937.74 841.489C937.74 841.489 935.529 825.805 928.757 818.9C920.161 809.832 910.528 809.789 906.114 809.263C874.488 806.959 827.049 806.959 827.049 806.959H826.951C826.951 806.959 779.512 806.959 747.886 809.263C743.465 809.789 733.839 809.832 725.236 818.9C718.464 825.807 716.26 841.489 716.26 841.489C716.26 841.489 714 859.912 714 878.325V895.595C714 914.016 716.26 932.431 716.26 932.431C716.26 932.431 718.464 948.115 725.236 955.021C733.839 964.089 745.131 963.805 750.16 964.751C768.24 966.501 827 967.041 827 967.041C827 967.041 874.488 966.97 906.114 964.666C910.528 964.133 920.161 964.091 928.757 955.022C935.529 948.115 937.74 932.433 937.74 932.433C937.74 932.433 940 914.018 940 895.595V878.325C940 859.912 937.74 841.489 937.74 841.489ZM803.666 916.521L803.658 852.572L864.721 884.657L803.666 916.521Z" fill="#29293A"/>
<rect width="1920" height="1080" fill="url(#paint0_linear)"/>
<rect x="301" y="240" width="1398" height="247" rx="50" fill="white" fill-opacity="0.98"/>
<rect x="615" y="466" width="984" height="221" rx="50" fill="#29293A" fill-opacity="0.98"/>
<path d="M363.047 424.8V304.8C363.047 301.467 363.847 298.867 365.447 297C367.18 295 369.38 294 372.047 294H405.447C426.647 294 442.714 299.333 453.647 310C464.714 320.667 470.247 337.467 470.247 360.4C470.247 409.467 449.314 434 407.447 434H373.247C366.447 434 363.047 430.933 363.047 424.8ZM401.447 332V391.8C401.447 394.6 401.647 396.4 402.047 397.2C402.447 397.867 403.647 398.2 405.647 398.2C412.98 398.2 418.514 395.467 422.247 390C426.114 384.533 428.047 375.467 428.047 362.8C428.047 350 426.047 341.667 422.047 337.8C418.18 333.933 411.98 332 403.447 332H401.447ZM508.489 399.6V328.4H494.289C492.022 328.4 490.422 325.533 489.489 319.8C489.089 317 488.889 314.133 488.889 311.2C488.889 308.267 489.089 305.4 489.489 302.6C490.422 296.867 492.022 294 494.289 294H561.489C563.756 294 565.289 296.867 566.089 302.6C566.622 305.4 566.889 308.267 566.889 311.2C566.889 314.133 566.622 317 566.089 319.8C565.289 325.533 563.756 328.4 561.489 328.4H548.089V399.6H562.089C564.356 399.6 565.956 402.467 566.889 408.2C567.422 411 567.689 413.867 567.689 416.8C567.689 419.733 567.422 422.6 566.889 425.4C565.956 431.133 564.356 434 562.089 434H494.689C492.422 434 490.889 431.133 490.089 425.4C489.556 422.6 489.289 419.733 489.289 416.8C489.289 413.867 489.556 411 490.089 408.2C490.889 402.467 492.422 399.6 494.689 399.6H508.489ZM595.231 385.2C597.765 387.2 602.098 389.933 608.231 393.4C614.498 396.867 620.431 398.6 626.031 398.6C631.765 398.6 634.631 396.4 634.631 392C634.631 390 633.831 388.267 632.231 386.8C630.631 385.2 627.698 383.4 623.431 381.4C619.165 379.4 615.965 377.867 613.831 376.8C611.698 375.6 608.831 373.733 605.231 371.2C601.765 368.533 599.098 365.8 597.231 363C591.898 355.4 589.231 345.733 589.231 334C589.231 322.267 593.565 312.4 602.231 304.4C611.031 296.267 622.498 292.2 636.631 292.2C646.231 292.2 655.098 293.267 663.231 295.4C671.365 297.4 675.565 300.067 675.831 303.4C675.831 303.8 675.831 304.2 675.831 304.6C675.831 309.267 674.365 315.2 671.431 322.4C668.498 329.467 666.431 333.4 665.231 334.2C656.698 329.8 649.031 327.6 642.231 327.6C635.565 327.6 632.231 330 632.231 334.8C632.231 337.733 634.698 340.333 639.631 342.6C640.698 343.133 642.231 343.867 644.231 344.8C646.231 345.733 648.498 346.867 651.031 348.2C653.698 349.4 656.498 351 659.431 353C662.498 354.867 665.765 357.4 669.231 360.6C676.298 367.267 679.831 376.067 679.831 387C679.831 401.267 675.898 412.933 668.031 422C660.165 431.067 648.031 435.733 631.631 436C623.631 436 616.365 435.333 609.831 434C603.431 432.667 597.831 430.067 593.031 426.2C588.231 422.333 585.831 417.667 585.831 412.2C585.831 406.733 586.831 401.333 588.831 396C590.831 390.533 592.965 386.933 595.231 385.2ZM762.481 292.2C772.215 292.2 780.748 293.6 788.081 296.4C795.548 299.067 799.281 302.733 799.281 307.4C799.281 312.067 797.481 317.867 793.881 324.8C790.415 331.6 787.481 335 785.081 335C784.415 335 783.615 334.667 782.681 334C781.881 333.2 779.881 332.4 776.681 331.6C773.615 330.667 770.948 330.2 768.681 330.2C760.948 330.2 754.681 332.933 749.881 338.4C745.215 343.867 742.881 352.267 742.881 363.6C742.881 374.8 745.281 383.133 750.081 388.6C755.015 394.067 761.215 396.8 768.681 396.8C771.748 396.8 775.148 396.4 778.881 395.6C782.748 394.667 785.481 393.4 787.081 391.8C787.348 391.533 787.881 391.4 788.681 391.4C789.481 391.4 790.948 392.933 793.081 396C795.348 398.933 797.415 402.867 799.281 407.8C801.148 412.6 802.081 416.333 802.081 419C802.081 424.2 798.081 428.333 790.081 431.4C782.081 434.467 772.615 436 761.681 436C744.081 436 729.615 429.8 718.281 417.4C706.948 405 701.281 387.533 701.281 365C701.281 342.333 707.081 324.533 718.681 311.6C730.415 298.667 745.015 292.2 762.481 292.2ZM885.791 436C867.124 436 851.857 429.867 839.991 417.6C828.257 405.333 822.391 387.467 822.391 364C822.391 340.4 828.324 322.533 840.191 310.4C852.191 298.267 867.591 292.2 886.391 292.2C905.324 292.2 920.591 298.2 932.191 310.2C943.791 322.067 949.591 340.133 949.591 364.4C949.591 388.533 943.657 406.533 931.791 418.4C919.924 430.133 904.591 436 885.791 436ZM885.991 330.6C879.591 330.6 874.191 333.533 869.791 339.4C865.524 345.267 863.391 353.533 863.391 364.2C863.391 374.733 865.457 382.867 869.591 388.6C873.724 394.2 879.124 397 885.791 397C892.591 397 898.057 394.133 902.191 388.4C906.457 382.667 908.591 374.467 908.591 363.8C908.591 353.133 906.391 344.933 901.991 339.2C897.724 333.467 892.391 330.6 885.991 330.6ZM1012.85 431.2C1012.85 433.333 1006.52 434.4 993.848 434.4C981.048 434.4 974.648 433.4 974.648 431.4V301C974.648 296.333 977.115 294 982.048 294H1020.25C1055.32 294 1072.85 307.667 1072.85 335C1072.85 343.267 1071.25 350.8 1068.05 357.6C1064.85 364.267 1060.32 369.6 1054.45 373.6L1079.65 415.6C1078.58 418.8 1075.12 422.467 1069.25 426.6C1061.25 432.333 1054.65 435.2 1049.45 435.2C1044.25 435.2 1040.38 433.333 1037.85 429.6L1019.05 385.8H1012.85V431.2ZM1012.85 329.4V359.4H1013.85C1026.52 359.4 1032.85 354.133 1032.85 343.6C1032.85 338.8 1031.58 335.267 1029.05 333C1026.65 330.6 1022.65 329.4 1017.05 329.4H1012.85ZM1101.62 424.8V304.8C1101.62 301.467 1102.42 298.867 1104.02 297C1105.75 295 1107.95 294 1110.62 294H1144.02C1165.22 294 1181.28 299.333 1192.22 310C1203.28 320.667 1208.82 337.467 1208.82 360.4C1208.82 409.467 1187.88 434 1146.02 434H1111.82C1105.02 434 1101.62 430.933 1101.62 424.8ZM1140.02 332V391.8C1140.02 394.6 1140.22 396.4 1140.62 397.2C1141.02 397.867 1142.22 398.2 1144.22 398.2C1151.55 398.2 1157.08 395.467 1160.82 390C1164.68 384.533 1166.62 375.467 1166.62 362.8C1166.62 350 1164.62 341.667 1160.62 337.8C1156.75 333.933 1150.55 332 1142.02 332H1140.02ZM1378.75 330.2C1378.75 344.067 1372.75 354.6 1360.75 361.8C1367.29 364.2 1372.75 368.333 1377.15 374.2C1381.55 380.067 1383.75 388.4 1383.75 399.2C1383.75 409.867 1379.75 418.333 1371.75 424.6C1363.89 430.867 1352.55 434 1337.75 434H1290.55C1288.29 434 1286.42 433.267 1284.95 431.8C1283.49 430.2 1282.75 428.133 1282.75 425.6V297.6C1282.75 296.133 1282.95 295.2 1283.35 294.8C1283.89 294.267 1284.89 294 1286.35 294H1331.95C1363.15 294 1378.75 306.067 1378.75 330.2ZM1321.15 326.4V352.6H1322.15C1334.95 352.6 1341.35 348.333 1341.35 339.8C1341.35 335.133 1340.09 331.733 1337.55 329.6C1335.15 327.467 1331.09 326.4 1325.35 326.4H1321.15ZM1321.15 376.2V402.2H1324.75C1330.49 402.2 1334.69 401.133 1337.35 399C1340.02 396.867 1341.35 393.467 1341.35 388.8C1341.35 384.133 1340.09 380.867 1337.55 379C1335.15 377.133 1331.09 376.2 1325.35 376.2H1321.15ZM1467.7 436C1449.04 436 1433.77 429.867 1421.9 417.6C1410.17 405.333 1404.3 387.467 1404.3 364C1404.3 340.4 1410.24 322.533 1422.1 310.4C1434.1 298.267 1449.5 292.2 1468.3 292.2C1487.24 292.2 1502.5 298.2 1514.1 310.2C1525.7 322.067 1531.5 340.133 1531.5 364.4C1531.5 388.533 1525.57 406.533 1513.7 418.4C1501.84 430.133 1486.5 436 1467.7 436ZM1467.9 330.6C1461.5 330.6 1456.1 333.533 1451.7 339.4C1447.44 345.267 1445.3 353.533 1445.3 364.2C1445.3 374.733 1447.37 382.867 1451.5 388.6C1455.64 394.2 1461.04 397 1467.7 397C1474.5 397 1479.97 394.133 1484.1 388.4C1488.37 382.667 1490.5 374.467 1490.5 363.8C1490.5 353.133 1488.3 344.933 1483.9 339.2C1479.64 333.467 1474.3 330.6 1467.9 330.6ZM1616.76 430.8C1616.76 433.467 1610.16 434.8 1596.96 434.8C1583.76 434.8 1577.16 433.467 1577.16 430.8V330.4H1553.16C1550.9 330.4 1549.3 327.333 1548.36 321.2C1547.96 318.267 1547.76 315.267 1547.76 312.2C1547.76 309.133 1547.96 306.133 1548.36 303.2C1549.3 297.067 1550.9 294 1553.16 294H1640.16C1642.43 294 1644.03 297.067 1644.96 303.2C1645.36 306.133 1645.56 309.133 1645.56 312.2C1645.56 315.267 1645.36 318.267 1644.96 321.2C1644.03 327.333 1642.43 330.4 1640.16 330.4H1616.76V430.8Z" fill="#29293A"/>
<path d="M696.732 619.6C698.972 608.32 701.132 597.32 703.212 586.6C704.012 582.12 704.852 577.44 705.732 572.56C706.692 567.6 707.572 562.76 708.372 558.04C709.172 553.24 709.892 548.64 710.532 544.24C711.252 539.76 711.812 535.68 712.212 532C714.692 531.84 717.092 531.68 719.412 531.52C721.492 531.36 723.612 531.24 725.772 531.16C727.932 531 729.852 530.84 731.532 530.68C732.572 536.84 733.492 542.72 734.292 548.32C734.692 550.72 735.092 553.24 735.492 555.88C735.972 558.44 736.412 560.92 736.812 563.32C737.212 565.72 737.612 568.04 738.012 570.28C738.412 572.44 738.812 574.36 739.212 576.04C739.532 574.36 739.892 572.44 740.292 570.28C740.692 568.04 741.132 565.72 741.612 563.32C742.092 560.84 742.572 558.32 743.052 555.76C743.612 553.2 744.132 550.72 744.612 548.32C745.812 542.72 747.052 536.88 748.332 530.8L762.972 529C760.252 541 757.852 552.36 755.772 563.08C754.812 567.72 753.852 572.4 752.892 577.12C752.012 581.84 751.172 586.4 750.372 590.8C749.572 595.2 748.892 599.28 748.332 603.04C747.772 606.72 747.332 609.84 747.012 612.4C746.772 612.4 745.812 612.6 744.132 613C742.532 613.32 740.652 613.72 738.492 614.2C736.412 614.68 734.292 615.2 732.132 615.76C730.052 616.24 728.492 616.64 727.452 616.96C726.892 610.48 726.292 604.32 725.652 598.48C725.412 596 725.132 593.44 724.812 590.8C724.492 588.16 724.172 585.64 723.852 583.24C723.612 580.84 723.332 578.6 723.012 576.52C722.772 574.36 722.532 572.56 722.292 571.12C722.052 572.56 721.732 574.32 721.332 576.4C720.932 578.48 720.532 580.72 720.132 583.12C719.732 585.44 719.332 587.88 718.932 590.44C718.532 592.92 718.092 595.36 717.612 597.76C716.572 603.44 715.452 609.36 714.252 615.52L696.732 619.6ZM822.987 554.08C822.987 560.64 822.267 566.84 820.827 572.68C819.467 578.44 817.627 583.76 815.307 588.64C812.987 593.44 810.267 597.76 807.147 601.6C804.107 605.36 800.907 608.6 797.547 611.32C794.187 613.96 790.787 616 787.347 617.44C783.907 618.8 780.627 619.48 777.507 619.48C774.867 619.48 772.467 619 770.307 618.04C768.147 617 766.267 615.52 764.667 613.6C763.067 611.6 761.787 609.08 760.827 606.04C759.947 602.92 759.507 599.2 759.507 594.88C759.507 590.4 760.067 585.68 761.187 580.72C762.307 575.76 763.827 570.84 765.747 565.96C767.667 561.08 770.027 556.44 772.827 552.04C775.627 547.64 778.707 543.76 782.067 540.4C785.427 536.96 789.027 534.24 792.867 532.24C796.707 530.24 800.707 529.24 804.867 529.24C808.467 529.24 811.427 530 813.747 531.52C816.147 532.96 817.987 534.88 819.267 537.28C820.627 539.6 821.587 542.24 822.147 545.2C822.707 548.16 822.987 551.12 822.987 554.08ZM777.387 591.76C777.387 592.64 777.547 593.56 777.867 594.52C778.187 595.48 778.627 596.32 779.187 597.04C779.747 597.76 780.427 598.4 781.227 598.96C782.107 599.44 783.027 599.68 783.987 599.68C787.587 599.68 790.787 598.44 793.587 595.96C796.387 593.48 798.707 590.44 800.547 586.84C802.387 583.24 803.787 579.4 804.747 575.32C805.787 571.24 806.307 567.52 806.307 564.16C806.307 563.2 806.227 562.16 806.067 561.04C805.987 559.92 805.747 558.88 805.347 557.92C805.027 556.96 804.467 556.16 803.667 555.52C802.947 554.8 801.947 554.44 800.667 554.44C798.107 554.44 795.747 555.08 793.587 556.36C791.427 557.64 789.467 559.36 787.707 561.52C786.027 563.6 784.547 566 783.267 568.72C781.987 571.36 780.867 574.08 779.907 576.88C779.027 579.6 778.387 582.28 777.987 584.92C777.587 587.56 777.387 589.84 777.387 591.76ZM881.446 557.68C881.446 561.84 880.846 566.28 879.646 571C878.446 575.64 876.766 580.28 874.606 584.92C872.446 589.48 869.766 593.88 866.566 598.12C863.446 602.28 859.886 605.96 855.886 609.16C851.886 612.28 847.486 614.8 842.686 616.72C837.966 618.64 832.926 619.6 827.566 619.6C826.446 619.6 825.326 619.52 824.206 619.36C823.086 619.28 821.966 619.16 820.846 619C823.006 607.96 825.126 597.2 827.206 586.72C828.006 582.32 828.846 577.76 829.726 573.04C830.606 568.24 831.446 563.52 832.246 558.88C833.046 554.24 833.806 549.8 834.526 545.56C835.326 541.32 835.966 537.48 836.446 534.04C839.886 533.4 843.366 532.8 846.886 532.24C850.406 531.68 854.006 531.4 857.686 531.4C862.006 531.4 865.646 532.08 868.606 533.44C871.646 534.8 874.086 536.68 875.926 539.08C877.846 541.48 879.246 544.28 880.126 547.48C881.006 550.68 881.446 554.08 881.446 557.68ZM853.126 548.32C852.246 553.04 851.326 557.56 850.366 561.88C849.406 566.2 848.446 570.56 847.486 574.96C846.526 579.36 845.566 583.96 844.606 588.76C843.646 593.56 842.726 598.8 841.846 604.48C843.766 603.2 845.606 601.48 847.366 599.32C849.206 597.08 850.926 594.52 852.526 591.64C854.126 588.76 855.566 585.72 856.846 582.52C858.206 579.32 859.366 576.2 860.326 573.16C861.286 570.12 862.006 567.28 862.486 564.64C863.046 562 863.326 559.72 863.326 557.8C863.326 554.84 862.486 552.52 860.806 550.84C859.206 549.16 856.646 548.32 853.126 548.32ZM879.695 619.12L895.415 533.8L933.335 530.56C932.775 532.32 932.295 534.12 931.895 535.96C931.495 537.48 931.095 539.08 930.695 540.76C930.375 542.36 930.095 543.8 929.855 545.08C929.055 545.16 927.895 545.24 926.375 545.32C924.935 545.32 923.375 545.36 921.695 545.44C920.015 545.44 918.295 545.44 916.535 545.44C914.855 545.44 913.375 545.44 912.095 545.44L907.895 566.92C910.375 566.76 912.695 566.64 914.855 566.56C916.615 566.48 918.415 566.44 920.255 566.44C922.095 566.44 923.455 566.4 924.335 566.32C924.015 568.56 923.695 570.76 923.375 572.92C923.135 575.08 922.815 577.28 922.415 579.52C921.615 579.6 920.295 579.68 918.455 579.76C916.695 579.76 914.895 579.8 913.055 579.88C910.975 579.96 908.695 580.04 906.215 580.12L902.135 602.2L919.655 599.44L918.455 613.12L879.695 619.12ZM959.354 587.08C958.634 590.6 957.754 594.28 956.714 598.12C955.674 601.88 954.274 605.32 952.514 608.44C950.834 611.48 948.754 614.04 946.274 616.12C943.874 618.12 940.994 619.12 937.634 619.12C935.394 619.12 932.954 618.64 930.314 617.68C927.754 616.72 924.914 615.08 921.794 612.76L930.074 594.28C930.474 595.08 931.234 595.8 932.354 596.44C933.554 597 934.834 597.28 936.194 597.28C937.154 597.28 937.994 596.48 938.714 594.88C939.514 593.28 940.194 591.44 940.754 589.36C941.314 587.2 941.754 585 942.074 582.76C942.394 580.52 942.634 578.72 942.794 577.36C944.314 569.6 945.754 561.88 947.114 554.2C948.474 546.44 950.074 538.72 951.914 531.04C955.514 530.72 959.034 530.24 962.474 529.6C965.994 528.88 969.514 528.04 973.034 527.08C971.834 531.16 970.594 535.8 969.314 541C968.034 546.2 966.794 551.52 965.594 556.96C964.394 562.4 963.234 567.76 962.114 573.04C961.074 578.24 960.154 582.92 959.354 587.08ZM1017.11 589.36C1017.11 593.84 1016.23 597.92 1014.47 601.6C1012.79 605.2 1010.47 608.32 1007.51 610.96C1004.63 613.6 1001.19 615.64 997.189 617.08C993.269 618.52 989.029 619.24 984.469 619.24C981.269 619.24 978.069 618.4 974.869 616.72C971.669 614.96 968.589 612.2 965.629 608.44L974.509 591.04C975.069 592.08 975.909 593.16 977.029 594.28C978.149 595.32 979.389 596.24 980.749 597.04C982.189 597.84 983.589 598.52 984.949 599.08C986.389 599.56 987.669 599.8 988.789 599.8C989.749 599.8 990.749 599.64 991.789 599.32C992.829 599 993.789 598.52 994.669 597.88C995.549 597.24 996.229 596.52 996.709 595.72C997.269 594.84 997.549 593.84 997.549 592.72C997.549 590.8 996.909 589.04 995.629 587.44C994.429 585.76 992.909 584.2 991.069 582.76C989.229 581.24 987.229 579.72 985.069 578.2C982.909 576.68 980.909 575.08 979.069 573.4C977.309 571.72 975.789 569.84 974.509 567.76C973.229 565.68 972.589 563.36 972.589 560.8C972.589 556.64 973.829 552.76 976.309 549.16C978.789 545.56 981.869 542.48 985.549 539.92C989.309 537.28 993.389 535.2 997.789 533.68C1002.19 532.16 1006.35 531.4 1010.27 531.4C1012.43 531.4 1014.47 531.68 1016.39 532.24C1018.31 532.72 1019.95 533.56 1021.31 534.76C1022.75 535.88 1023.87 537.32 1024.67 539.08C1025.55 540.84 1025.99 543.04 1025.99 545.68C1025.99 546.8 1025.87 547.92 1025.63 549.04C1025.47 550.16 1025.31 551.36 1025.15 552.64L1007.75 557.68C1007.91 557.04 1008.03 556.4 1008.11 555.76C1008.27 555.12 1008.35 554.48 1008.35 553.84C1008.35 551.44 1007.91 549.72 1007.03 548.68C1006.23 547.56 1005.15 547 1003.79 547C1003.15 547 1002.35 547.24 1001.39 547.72C1000.51 548.2 999.589 548.84 998.629 549.64C997.749 550.36 996.989 551.24 996.349 552.28C995.709 553.32 995.389 554.44 995.389 555.64C995.389 557.56 995.909 559.16 996.949 560.44C998.069 561.72 999.429 562.92 1001.03 564.04C1002.63 565.16 1004.35 566.32 1006.19 567.52C1008.11 568.64 1009.87 570.12 1011.47 571.96C1013.07 573.8 1014.39 576.12 1015.43 578.92C1016.55 581.64 1017.11 585.12 1017.11 589.36ZM1046.15 618.28C1049.67 607.64 1053.03 597.2 1056.23 586.96C1057.59 582.64 1058.99 578.12 1060.43 573.4C1061.87 568.68 1063.31 564 1064.75 559.36C1066.19 554.72 1067.51 550.24 1068.71 545.92C1069.99 541.6 1071.11 537.6 1072.07 533.92C1076.47 533.92 1080.63 533.68 1084.55 533.2C1088.47 532.72 1092.71 532.28 1097.27 531.88C1097.03 533.64 1096.75 535.64 1096.43 537.88C1096.19 540.04 1095.87 542.32 1095.47 544.72C1095.15 547.12 1094.79 549.6 1094.39 552.16C1093.99 554.72 1093.51 558 1092.95 562C1092.39 566 1091.63 571 1090.67 577H1092.23C1094.55 570.92 1096.47 565.88 1097.99 561.88C1099.51 557.8 1100.75 554.48 1101.71 551.92C1102.67 549.36 1103.63 546.88 1104.59 544.48C1105.63 542 1106.59 539.68 1107.47 537.52C1108.43 535.28 1109.31 533.32 1110.11 531.64C1112.11 531.48 1113.99 531.28 1115.75 531.04C1117.51 530.8 1119.27 530.56 1121.03 530.32C1122.79 530 1124.55 529.72 1126.31 529.48C1128.15 529.16 1130.15 528.8 1132.31 528.4C1131.51 533.04 1130.75 537.8 1130.03 542.68C1129.31 547.56 1128.67 552.44 1128.11 557.32C1127.55 562.12 1126.99 566.88 1126.43 571.6C1125.95 576.32 1125.51 580.8 1125.11 585.04C1124.15 594.96 1123.31 604.64 1122.59 614.08L1101.71 617.8C1101.71 617.4 1101.75 616.32 1101.83 614.56C1101.99 612.8 1102.15 610.64 1102.31 608.08C1102.55 605.52 1102.83 602.68 1103.15 599.56C1103.55 596.44 1103.91 593.32 1104.23 590.2C1104.63 587.08 1105.03 584.08 1105.43 581.2C1105.83 578.24 1106.23 575.72 1106.63 573.64H1105.55C1104.43 577 1103.19 580.56 1101.83 584.32C1100.47 588 1099.07 591.76 1097.63 595.6C1096.27 599.44 1094.91 603.2 1093.55 606.88C1092.19 610.56 1090.99 614.08 1089.95 617.44C1087.15 617.52 1084.75 617.64 1082.75 617.8C1080.75 617.88 1078.43 618 1075.79 618.16L1079.63 573.64H1077.83C1077.67 574.68 1077.27 576.44 1076.63 578.92C1075.99 581.32 1075.23 584.12 1074.35 587.32C1073.55 590.44 1072.67 593.72 1071.71 597.16C1070.75 600.52 1069.83 603.68 1068.95 606.64C1068.15 609.52 1067.47 611.92 1066.91 613.84C1066.35 615.68 1066.03 616.72 1065.95 616.96L1046.15 618.28ZM1179.37 595.6C1178.25 600.16 1176.65 604.04 1174.57 607.24C1172.57 610.44 1170.17 613.08 1167.37 615.16C1164.65 617.24 1161.73 618.76 1158.61 619.72C1155.49 620.68 1152.37 621.16 1149.25 621.16C1147.41 621.16 1145.53 620.84 1143.61 620.2C1141.69 619.64 1139.97 618.76 1138.45 617.56C1136.93 616.36 1135.65 614.84 1134.61 613C1133.65 611.16 1133.17 609 1133.17 606.52C1133.17 606.2 1133.17 605.88 1133.17 605.56C1133.17 605.24 1133.21 604.92 1133.29 604.6C1133.61 601.32 1134.13 597.36 1134.85 592.72C1135.57 588.08 1136.33 583.24 1137.13 578.2C1137.93 573.16 1138.81 568.12 1139.77 563.08C1140.73 557.96 1141.57 553.32 1142.29 549.16C1143.09 545 1143.77 541.56 1144.33 538.84C1144.89 536.04 1145.25 534.32 1145.41 533.68C1147.09 533.52 1149.09 533.32 1151.41 533.08C1153.73 532.84 1155.89 532.64 1157.89 532.48C1160.37 532.24 1162.81 532 1165.21 531.76C1163.13 541.44 1161.29 550.2 1159.69 558.04C1158.97 561.4 1158.25 564.76 1157.53 568.12C1156.89 571.48 1156.25 574.56 1155.61 577.36C1155.05 580.16 1154.53 582.6 1154.05 584.68C1153.65 586.68 1153.29 588.32 1152.97 589.6C1152.73 590.88 1152.41 592.52 1152.01 594.52C1151.69 596.44 1151.53 598.2 1151.53 599.8C1151.53 601.08 1151.85 602.16 1152.49 603.04C1153.13 603.84 1153.93 604.24 1154.89 604.24C1156.25 604.24 1157.37 603.72 1158.25 602.68C1159.13 601.56 1159.85 600.24 1160.41 598.72C1161.05 597.2 1161.49 595.68 1161.73 594.16C1162.05 592.56 1162.33 591.32 1162.57 590.44C1163.05 588.12 1163.57 585.56 1164.13 582.76C1164.77 579.88 1165.37 576.92 1165.93 573.88C1166.57 570.76 1167.17 567.6 1167.73 564.4C1168.37 561.2 1168.97 558.08 1169.53 555.04C1170.89 548 1172.21 540.72 1173.49 533.2L1191.73 532C1191.73 532 1191.53 533.04 1191.13 535.12C1190.73 537.2 1190.21 539.96 1189.57 543.4C1188.93 546.84 1188.21 550.76 1187.41 555.16C1186.69 559.56 1185.85 564.16 1184.89 568.96C1183.93 573.68 1182.97 578.36 1182.01 583C1181.13 587.56 1180.25 591.76 1179.37 595.6ZM1238.28 589.36C1238.28 593.84 1237.4 597.92 1235.64 601.6C1233.96 605.2 1231.64 608.32 1228.68 610.96C1225.8 613.6 1222.36 615.64 1218.36 617.08C1214.44 618.52 1210.2 619.24 1205.64 619.24C1202.44 619.24 1199.24 618.4 1196.04 616.72C1192.84 614.96 1189.76 612.2 1186.8 608.44L1195.68 591.04C1196.24 592.08 1197.08 593.16 1198.2 594.28C1199.32 595.32 1200.56 596.24 1201.92 597.04C1203.36 597.84 1204.76 598.52 1206.12 599.08C1207.56 599.56 1208.84 599.8 1209.96 599.8C1210.92 599.8 1211.92 599.64 1212.96 599.32C1214 599 1214.96 598.52 1215.84 597.88C1216.72 597.24 1217.4 596.52 1217.88 595.72C1218.44 594.84 1218.72 593.84 1218.72 592.72C1218.72 590.8 1218.08 589.04 1216.8 587.44C1215.6 585.76 1214.08 584.2 1212.24 582.76C1210.4 581.24 1208.4 579.72 1206.24 578.2C1204.08 576.68 1202.08 575.08 1200.24 573.4C1198.48 571.72 1196.96 569.84 1195.68 567.76C1194.4 565.68 1193.76 563.36 1193.76 560.8C1193.76 556.64 1195 552.76 1197.48 549.16C1199.96 545.56 1203.04 542.48 1206.72 539.92C1210.48 537.28 1214.56 535.2 1218.96 533.68C1223.36 532.16 1227.52 531.4 1231.44 531.4C1233.6 531.4 1235.64 531.68 1237.56 532.24C1239.48 532.72 1241.12 533.56 1242.48 534.76C1243.92 535.88 1245.04 537.32 1245.84 539.08C1246.72 540.84 1247.16 543.04 1247.16 545.68C1247.16 546.8 1247.04 547.92 1246.8 549.04C1246.64 550.16 1246.48 551.36 1246.32 552.64L1228.92 557.68C1229.08 557.04 1229.2 556.4 1229.28 555.76C1229.44 555.12 1229.52 554.48 1229.52 553.84C1229.52 551.44 1229.08 549.72 1228.2 548.68C1227.4 547.56 1226.32 547 1224.96 547C1224.32 547 1223.52 547.24 1222.56 547.72C1221.68 548.2 1220.76 548.84 1219.8 549.64C1218.92 550.36 1218.16 551.24 1217.52 552.28C1216.88 553.32 1216.56 554.44 1216.56 555.64C1216.56 557.56 1217.08 559.16 1218.12 560.44C1219.24 561.72 1220.6 562.92 1222.2 564.04C1223.8 565.16 1225.52 566.32 1227.36 567.52C1229.28 568.64 1231.04 570.12 1232.64 571.96C1234.24 573.8 1235.56 576.12 1236.6 578.92C1237.72 581.64 1238.28 585.12 1238.28 589.36ZM1261.04 616.6C1260.32 616.6 1258.92 616.72 1256.84 616.96C1254.76 617.12 1252.6 617.36 1250.36 617.68C1248.12 617.92 1246.08 618.16 1244.24 618.4C1242.48 618.64 1241.52 618.8 1241.36 618.88C1242.32 615.44 1243.28 611.64 1244.24 607.48C1245.2 603.24 1246.16 598.84 1247.12 594.28C1248.16 589.64 1249.12 584.96 1250 580.24C1250.96 575.52 1251.88 570.96 1252.76 566.56C1254.76 556.32 1256.72 545.8 1258.64 535L1277.36 532C1275.28 542.72 1273.2 553.24 1271.12 563.56C1270.24 567.96 1269.32 572.52 1268.36 577.24C1267.48 581.96 1266.6 586.64 1265.72 591.28C1264.92 595.92 1264.08 600.44 1263.2 604.84C1262.4 609.16 1261.68 613.08 1261.04 616.6ZM1322.75 593.2C1320.83 597.6 1318.67 601.44 1316.27 604.72C1313.95 607.92 1311.47 610.64 1308.83 612.88C1306.27 615.04 1303.67 616.64 1301.03 617.68C1298.39 618.72 1295.83 619.24 1293.35 619.24C1290.87 619.24 1288.59 618.68 1286.51 617.56C1284.51 616.44 1282.75 614.76 1281.23 612.52C1279.71 610.28 1278.47 607.52 1277.51 604.24C1276.63 600.96 1276.19 597.12 1276.19 592.72C1276.19 585.2 1277.23 577.8 1279.31 570.52C1281.39 563.16 1284.31 556.56 1288.07 550.72C1291.83 544.88 1296.27 540.2 1301.39 536.68C1306.59 533.08 1312.31 531.28 1318.55 531.28C1320.47 531.28 1322.31 531.68 1324.07 532.48C1325.83 533.28 1327.35 534.4 1328.63 535.84C1329.91 537.28 1330.91 539.04 1331.63 541.12C1332.43 543.2 1332.83 545.52 1332.83 548.08C1332.83 548.56 1332.83 549.08 1332.83 549.64C1332.83 550.12 1332.79 550.64 1332.71 551.2L1316.99 555.4C1316.03 553.4 1314.91 552.4 1313.63 552.4C1312.35 552.4 1310.99 553.16 1309.55 554.68C1308.19 556.12 1306.83 558.04 1305.47 560.44C1304.11 562.76 1302.79 565.4 1301.51 568.36C1300.23 571.24 1299.11 574.16 1298.15 577.12C1297.19 580.08 1296.39 582.92 1295.75 585.64C1295.19 588.28 1294.91 590.44 1294.91 592.12C1294.91 594.68 1295.23 596.48 1295.87 597.52C1296.59 598.56 1297.51 599.08 1298.63 599.08C1299.51 599.08 1300.51 598.76 1301.63 598.12C1302.75 597.4 1303.79 596.52 1304.75 595.48C1305.71 594.36 1306.59 593.12 1307.39 591.76C1308.19 590.4 1308.75 589.04 1309.07 587.68L1322.75 593.2ZM1409.67 588.88C1409.67 592.16 1408.99 595.2 1407.63 598C1406.27 600.8 1404.43 603.36 1402.11 605.68C1399.79 607.92 1397.07 609.92 1393.95 611.68C1390.91 613.36 1387.67 614.8 1384.23 616C1380.87 617.12 1377.39 618 1373.79 618.64C1370.27 619.2 1366.87 619.48 1363.59 619.48C1360.63 619.48 1357.87 619.24 1355.31 618.76C1359.15 604.76 1362.19 590.68 1364.43 576.52C1366.75 562.28 1368.95 547.96 1371.03 533.56C1375.19 532.68 1379.51 531.92 1383.99 531.28C1388.47 530.56 1393.11 530.2 1397.91 530.2C1399.91 530.2 1402.03 530.44 1404.27 530.92C1406.51 531.4 1408.55 532.28 1410.39 533.56C1412.23 534.84 1413.75 536.52 1414.95 538.6C1416.23 540.68 1416.87 543.32 1416.87 546.52C1416.87 549.56 1416.35 552.4 1415.31 555.04C1414.35 557.68 1413.07 560.08 1411.47 562.24C1409.95 564.4 1408.19 566.28 1406.19 567.88C1404.19 569.4 1402.15 570.56 1400.07 571.36C1401.11 571.92 1402.19 572.72 1403.31 573.76C1404.43 574.8 1405.47 576.04 1406.43 577.48C1407.39 578.84 1408.15 580.48 1408.71 582.4C1409.35 584.32 1409.67 586.48 1409.67 588.88ZM1382.19 576.4C1381.87 578.32 1381.55 580.04 1381.23 581.56C1380.99 583 1380.75 584.4 1380.51 585.76C1380.27 587.12 1379.99 588.56 1379.67 590.08C1379.43 591.52 1379.15 593.24 1378.83 595.24C1380.35 595.08 1382.07 594.8 1383.99 594.4C1385.91 594 1387.75 593.4 1389.51 592.6C1391.27 591.72 1392.75 590.6 1393.95 589.24C1395.15 587.8 1395.75 586.08 1395.75 584.08C1395.75 582.64 1395.35 581.44 1394.55 580.48C1393.83 579.52 1392.87 578.72 1391.67 578.08C1390.55 577.44 1389.31 577 1387.95 576.76C1386.59 576.44 1385.31 576.28 1384.11 576.28C1383.71 576.28 1383.35 576.28 1383.03 576.28C1382.79 576.28 1382.51 576.32 1382.19 576.4ZM1387.59 547.36C1387.43 548.24 1387.23 549.28 1386.99 550.48C1386.83 551.68 1386.63 552.96 1386.39 554.32C1386.15 555.6 1385.87 556.88 1385.55 558.16C1385.31 559.44 1385.11 560.56 1384.95 561.52C1386.71 561.2 1388.47 560.76 1390.23 560.2C1391.99 559.64 1393.55 559.04 1394.91 558.4C1396.35 557.68 1397.47 556.92 1398.27 556.12C1399.15 555.32 1399.59 554.44 1399.59 553.48C1399.59 552.28 1399.23 551.32 1398.51 550.6C1397.79 549.8 1396.83 549.16 1395.63 548.68C1394.51 548.2 1393.31 547.88 1392.03 547.72C1390.83 547.48 1389.75 547.36 1388.79 547.36H1387.59ZM1479.36 554.08C1479.36 560.64 1478.64 566.84 1477.2 572.68C1475.84 578.44 1474 583.76 1471.68 588.64C1469.36 593.44 1466.64 597.76 1463.52 601.6C1460.48 605.36 1457.28 608.6 1453.92 611.32C1450.56 613.96 1447.16 616 1443.72 617.44C1440.28 618.8 1437 619.48 1433.88 619.48C1431.24 619.48 1428.84 619 1426.68 618.04C1424.52 617 1422.64 615.52 1421.04 613.6C1419.44 611.6 1418.16 609.08 1417.2 606.04C1416.32 602.92 1415.88 599.2 1415.88 594.88C1415.88 590.4 1416.44 585.68 1417.56 580.72C1418.68 575.76 1420.2 570.84 1422.12 565.96C1424.04 561.08 1426.4 556.44 1429.2 552.04C1432 547.64 1435.08 543.76 1438.44 540.4C1441.8 536.96 1445.4 534.24 1449.24 532.24C1453.08 530.24 1457.08 529.24 1461.24 529.24C1464.84 529.24 1467.8 530 1470.12 531.52C1472.52 532.96 1474.36 534.88 1475.64 537.28C1477 539.6 1477.96 542.24 1478.52 545.2C1479.08 548.16 1479.36 551.12 1479.36 554.08ZM1433.76 591.76C1433.76 592.64 1433.92 593.56 1434.24 594.52C1434.56 595.48 1435 596.32 1435.56 597.04C1436.12 597.76 1436.8 598.4 1437.6 598.96C1438.48 599.44 1439.4 599.68 1440.36 599.68C1443.96 599.68 1447.16 598.44 1449.96 595.96C1452.76 593.48 1455.08 590.44 1456.92 586.84C1458.76 583.24 1460.16 579.4 1461.12 575.32C1462.16 571.24 1462.68 567.52 1462.68 564.16C1462.68 563.2 1462.6 562.16 1462.44 561.04C1462.36 559.92 1462.12 558.88 1461.72 557.92C1461.4 556.96 1460.84 556.16 1460.04 555.52C1459.32 554.8 1458.32 554.44 1457.04 554.44C1454.48 554.44 1452.12 555.08 1449.96 556.36C1447.8 557.64 1445.84 559.36 1444.08 561.52C1442.4 563.6 1440.92 566 1439.64 568.72C1438.36 571.36 1437.24 574.08 1436.28 576.88C1435.4 579.6 1434.76 582.28 1434.36 584.92C1433.96 587.56 1433.76 589.84 1433.76 591.76ZM1485.31 619.12C1487.15 610.32 1488.91 601.64 1490.59 593.08C1491.31 589.48 1492.03 585.72 1492.75 581.8C1493.47 577.88 1494.15 574.04 1494.79 570.28C1495.51 566.44 1496.11 562.76 1496.59 559.24C1497.15 555.64 1497.63 552.36 1498.03 549.4C1496.19 549.16 1494.31 549.08 1492.39 549.16C1490.55 549.24 1488.71 549 1486.87 548.44C1486.95 547.16 1486.99 545.68 1486.99 544C1486.99 542.32 1487.03 540.64 1487.11 538.96C1487.19 537.12 1487.27 535.16 1487.35 533.08C1489.43 533.24 1491.51 533.36 1493.59 533.44C1495.67 533.52 1497.75 533.56 1499.83 533.56C1503.91 533.56 1507.83 533.48 1511.59 533.32C1515.43 533.08 1518.95 532.84 1522.15 532.6C1525.43 532.28 1528.63 531.92 1531.75 531.52L1530.43 538C1530.03 539.84 1529.63 541.72 1529.23 543.64C1528.91 545.56 1528.59 547.2 1528.27 548.56C1526.51 549.04 1524.71 549.4 1522.87 549.64C1521.11 549.8 1519.35 550.04 1517.59 550.36C1517.03 553.08 1516.43 556.12 1515.79 559.48C1515.15 562.76 1514.51 566.2 1513.87 569.8C1513.31 573.32 1512.75 576.92 1512.19 580.6C1511.63 584.28 1511.07 587.8 1510.51 591.16C1509.23 599.08 1508.03 607.28 1506.91 615.76L1485.31 619.12Z" fill="white"/>
<rect x="1196" y="660" width="445" height="124" rx="50" fill="white" fill-opacity="0.98"/>
<path d="M1253.79 745.272C1252.45 745.512 1250.99 745.8 1249.4 746.136C1247.82 746.472 1246.43 746.784 1245.23 747.072C1245.8 745.008 1246.35 742.704 1246.88 740.16C1247.46 737.568 1248.01 734.856 1248.54 732.024C1249.11 729.192 1249.64 726.336 1250.12 723.456C1250.65 720.528 1251.15 717.72 1251.63 715.032C1252.64 708.648 1253.65 702.048 1254.66 695.232L1278.78 694.008L1276.69 702.864H1265.39L1263.15 715.68C1264.64 715.632 1266.06 715.608 1267.4 715.608C1268.51 715.608 1269.63 715.608 1270.79 715.608C1271.94 715.608 1272.83 715.584 1273.45 715.536C1273.31 716.88 1273.11 718.2 1272.87 719.496C1272.68 720.792 1272.49 722.088 1272.3 723.384C1271.67 723.384 1270.79 723.384 1269.63 723.384C1268.48 723.336 1267.28 723.288 1266.03 723.24C1264.83 723.192 1263.47 723.144 1261.93 723.096L1258.62 744.336C1256.99 744.624 1255.38 744.936 1253.79 745.272ZM1302.67 732.96C1302 735.696 1301.04 738.024 1299.79 739.944C1298.59 741.864 1297.15 743.448 1295.47 744.696C1293.84 745.944 1292.08 746.856 1290.21 747.432C1288.34 748.008 1286.47 748.296 1284.6 748.296C1283.49 748.296 1282.36 748.104 1281.21 747.72C1280.06 747.384 1279.03 746.856 1278.12 746.136C1277.2 745.416 1276.44 744.504 1275.81 743.4C1275.24 742.296 1274.95 741 1274.95 739.512C1274.95 739.32 1274.95 739.128 1274.95 738.936C1274.95 738.744 1274.97 738.552 1275.02 738.36C1275.21 736.392 1275.52 734.016 1275.96 731.232C1276.39 728.448 1276.84 725.544 1277.32 722.52C1277.8 719.496 1278.33 716.472 1278.91 713.448C1279.48 710.376 1279.99 707.592 1280.42 705.096C1280.9 702.6 1281.31 700.536 1281.64 698.904C1281.98 697.224 1282.2 696.192 1282.29 695.808C1283.3 695.712 1284.5 695.592 1285.89 695.448C1287.28 695.304 1288.58 695.184 1289.78 695.088C1291.27 694.944 1292.73 694.8 1294.17 694.656C1292.92 700.464 1291.82 705.72 1290.86 710.424C1290.43 712.44 1290 714.456 1289.56 716.472C1289.18 718.488 1288.8 720.336 1288.41 722.016C1288.08 723.696 1287.76 725.16 1287.48 726.408C1287.24 727.608 1287.02 728.592 1286.83 729.36C1286.68 730.128 1286.49 731.112 1286.25 732.312C1286.06 733.464 1285.96 734.52 1285.96 735.48C1285.96 736.248 1286.16 736.896 1286.54 737.424C1286.92 737.904 1287.4 738.144 1287.98 738.144C1288.8 738.144 1289.47 737.832 1290 737.208C1290.52 736.536 1290.96 735.744 1291.29 734.832C1291.68 733.92 1291.94 733.008 1292.08 732.096C1292.28 731.136 1292.44 730.392 1292.59 729.864C1292.88 728.472 1293.19 726.936 1293.52 725.256C1293.91 723.528 1294.27 721.752 1294.6 719.928C1294.99 718.056 1295.35 716.16 1295.68 714.24C1296.07 712.32 1296.43 710.448 1296.76 708.624C1297.58 704.4 1298.37 700.032 1299.14 695.52L1310.08 694.8C1310.08 694.8 1309.96 695.424 1309.72 696.672C1309.48 697.92 1309.17 699.576 1308.79 701.64C1308.4 703.704 1307.97 706.056 1307.49 708.696C1307.06 711.336 1306.56 714.096 1305.98 716.976C1305.4 719.808 1304.83 722.616 1304.25 725.4C1303.72 728.136 1303.2 730.656 1302.67 732.96ZM1325.99 744.696C1324.5 744.696 1322.92 744.744 1321.24 744.84C1319.61 744.936 1317.95 745.08 1316.27 745.272C1314.59 745.464 1312.94 745.728 1311.3 746.064C1309.72 746.352 1308.28 746.712 1306.98 747.144C1307.27 744.984 1307.61 742.584 1307.99 739.944C1308.38 737.304 1308.81 734.568 1309.29 731.736C1309.82 728.904 1310.32 726.048 1310.8 723.168C1311.33 720.288 1311.86 717.528 1312.38 714.888C1313.58 708.6 1314.86 702.192 1316.2 695.664L1328.8 694.008C1327.5 699.576 1326.26 705 1325.06 710.28C1324.53 712.536 1324 714.888 1323.47 717.336C1322.94 719.736 1322.44 722.088 1321.96 724.392C1321.48 726.696 1321.05 728.928 1320.66 731.088C1320.28 733.248 1319.97 735.168 1319.73 736.848C1320.93 736.752 1322.2 736.704 1323.54 736.704C1324.94 736.656 1326.16 736.632 1327.22 736.632C1327.26 737.544 1327.34 738.456 1327.43 739.368C1327.53 740.232 1327.62 741.024 1327.72 741.744C1327.86 742.464 1327.96 743.112 1328.01 743.688C1328.1 744.216 1328.18 744.576 1328.22 744.768C1327.84 744.768 1327.46 744.768 1327.07 744.768C1326.74 744.72 1326.38 744.696 1325.99 744.696ZM1350.54 744.696C1349.05 744.696 1347.47 744.744 1345.79 744.84C1344.15 744.936 1342.5 745.08 1340.82 745.272C1339.14 745.464 1337.48 745.728 1335.85 746.064C1334.27 746.352 1332.83 746.712 1331.53 747.144C1331.82 744.984 1332.15 742.584 1332.54 739.944C1332.92 737.304 1333.35 734.568 1333.83 731.736C1334.36 728.904 1334.87 726.048 1335.35 723.168C1335.87 720.288 1336.4 717.528 1336.93 714.888C1338.13 708.6 1339.4 702.192 1340.75 695.664L1353.35 694.008C1352.05 699.576 1350.8 705 1349.6 710.28C1349.07 712.536 1348.55 714.888 1348.02 717.336C1347.49 719.736 1346.99 722.088 1346.51 724.392C1346.03 726.696 1345.59 728.928 1345.21 731.088C1344.83 733.248 1344.51 735.168 1344.27 736.848C1345.47 736.752 1346.75 736.704 1348.09 736.704C1349.48 736.656 1350.71 736.632 1351.76 736.632C1351.81 737.544 1351.88 738.456 1351.98 739.368C1352.07 740.232 1352.17 741.024 1352.27 741.744C1352.41 742.464 1352.51 743.112 1352.55 743.688C1352.65 744.216 1352.72 744.576 1352.77 744.768C1352.39 744.768 1352 744.768 1351.62 744.768C1351.28 744.72 1350.92 744.696 1350.54 744.696ZM1372.72 747.072C1374.16 740.592 1375.53 734.256 1376.82 728.064C1377.35 725.472 1377.9 722.736 1378.48 719.856C1379.05 716.976 1379.61 714.144 1380.13 711.36C1380.66 708.576 1381.17 705.888 1381.65 703.296C1382.13 700.704 1382.53 698.328 1382.87 696.168C1384.26 695.736 1385.63 695.376 1386.97 695.088C1388.32 694.752 1389.69 694.464 1391.08 694.224C1392.52 693.984 1393.86 693.864 1395.11 693.864C1397.27 693.864 1399.07 694.224 1400.51 694.944C1402 695.664 1403.2 696.648 1404.11 697.896C1405.02 699.096 1405.67 700.512 1406.05 702.144C1406.44 703.776 1406.63 705.528 1406.63 707.4C1406.63 710.088 1406.13 712.68 1405.12 715.176C1404.16 717.672 1402.84 719.904 1401.16 721.872C1399.53 723.792 1397.63 725.328 1395.47 726.48C1393.36 727.632 1391.15 728.208 1388.85 728.208H1388.05C1387.67 729.84 1387.31 731.616 1386.97 733.536C1386.64 735.456 1386.35 737.232 1386.11 738.864C1385.77 740.784 1385.46 742.704 1385.17 744.624L1372.72 747.072ZM1392.81 702.576C1392.28 705.744 1391.75 708.744 1391.22 711.576C1390.69 714.408 1390.12 717.432 1389.49 720.648C1390.26 720.456 1391.05 720.024 1391.87 719.352C1392.73 718.632 1393.53 717.72 1394.25 716.616C1394.97 715.464 1395.54 714.144 1395.97 712.656C1396.41 711.168 1396.62 709.608 1396.62 707.976C1396.62 706.2 1396.21 704.856 1395.4 703.944C1394.63 703.032 1393.77 702.576 1392.81 702.576ZM1403.74 747.072C1405.04 740.688 1406.29 734.448 1407.49 728.352C1407.92 725.76 1408.4 723.072 1408.93 720.288C1409.46 717.456 1409.94 714.672 1410.37 711.936C1410.85 709.152 1411.28 706.488 1411.66 703.944C1412.1 701.352 1412.43 699 1412.67 696.888C1415.41 696.024 1418.36 695.4 1421.53 695.016C1424.7 694.584 1427.84 694.368 1430.96 694.368C1432.83 694.368 1434.37 694.584 1435.57 695.016C1436.82 695.448 1437.78 696.072 1438.45 696.888C1439.17 697.656 1439.67 698.568 1439.96 699.624C1440.25 700.68 1440.39 701.856 1440.39 703.152C1440.39 705.072 1440.06 706.968 1439.38 708.84C1438.71 710.664 1437.8 712.416 1436.65 714.096C1435.54 715.728 1434.25 717.24 1432.76 718.632C1431.32 719.976 1429.76 721.08 1428.08 721.944C1428.94 723.864 1429.86 725.976 1430.82 728.28C1431.82 730.536 1432.76 732.696 1433.62 734.76C1434.58 737.16 1435.57 739.56 1436.58 741.96L1425.42 745.848C1424.46 742.536 1423.59 739.416 1422.82 736.488C1422.49 735.288 1422.15 734.064 1421.82 732.816C1421.48 731.52 1421.17 730.32 1420.88 729.216C1420.59 728.064 1420.35 727.056 1420.16 726.192C1419.97 725.328 1419.85 724.656 1419.8 724.176L1418.86 724.464C1418.58 726 1418.22 727.872 1417.78 730.08C1417.4 732.288 1417.04 734.424 1416.7 736.488C1416.27 738.936 1415.84 741.456 1415.41 744.048L1403.74 747.072ZM1420.66 715.824C1421.58 715.728 1422.68 715.344 1423.98 714.672C1425.32 714 1426.59 713.208 1427.79 712.296C1428.99 711.336 1430.02 710.352 1430.89 709.344C1431.75 708.336 1432.18 707.448 1432.18 706.68C1432.18 706.152 1432.02 705.744 1431.68 705.456C1431.34 705.12 1430.86 704.88 1430.24 704.736C1429.66 704.544 1429.02 704.424 1428.3 704.376C1427.58 704.328 1426.83 704.304 1426.06 704.304C1425.54 704.304 1424.98 704.328 1424.41 704.376C1423.88 704.376 1423.4 704.376 1422.97 704.376L1420.66 715.824ZM1477.25 708.048C1477.25 711.984 1476.82 715.704 1475.95 719.208C1475.14 722.664 1474.03 725.856 1472.64 728.784C1471.25 731.664 1469.62 734.256 1467.75 736.56C1465.92 738.816 1464 740.76 1461.99 742.392C1459.97 743.976 1457.93 745.2 1455.87 746.064C1453.8 746.88 1451.83 747.288 1449.96 747.288C1448.38 747.288 1446.94 747 1445.64 746.424C1444.35 745.8 1443.22 744.912 1442.26 743.76C1441.3 742.56 1440.53 741.048 1439.95 739.224C1439.43 737.352 1439.16 735.12 1439.16 732.528C1439.16 729.84 1439.5 727.008 1440.17 724.032C1440.84 721.056 1441.75 718.104 1442.91 715.176C1444.06 712.248 1445.47 709.464 1447.15 706.824C1448.83 704.184 1450.68 701.856 1452.7 699.84C1454.71 697.776 1456.87 696.144 1459.18 694.944C1461.48 693.744 1463.88 693.144 1466.38 693.144C1468.54 693.144 1470.31 693.6 1471.71 694.512C1473.15 695.376 1474.25 696.528 1475.02 697.968C1475.83 699.36 1476.41 700.944 1476.75 702.72C1477.08 704.496 1477.25 706.272 1477.25 708.048ZM1449.89 730.656C1449.89 731.184 1449.99 731.736 1450.18 732.312C1450.37 732.888 1450.63 733.392 1450.97 733.824C1451.31 734.256 1451.71 734.64 1452.19 734.976C1452.72 735.264 1453.27 735.408 1453.85 735.408C1456.01 735.408 1457.93 734.664 1459.61 733.176C1461.29 731.688 1462.68 729.864 1463.79 727.704C1464.89 725.544 1465.73 723.24 1466.31 720.792C1466.93 718.344 1467.24 716.112 1467.24 714.096C1467.24 713.52 1467.19 712.896 1467.1 712.224C1467.05 711.552 1466.91 710.928 1466.67 710.352C1466.47 709.776 1466.14 709.296 1465.66 708.912C1465.23 708.48 1464.63 708.264 1463.86 708.264C1462.32 708.264 1460.91 708.648 1459.61 709.416C1458.31 710.184 1457.14 711.216 1456.08 712.512C1455.07 713.76 1454.19 715.2 1453.42 716.832C1452.65 718.416 1451.98 720.048 1451.4 721.728C1450.87 723.36 1450.49 724.968 1450.25 726.552C1450.01 728.136 1449.89 729.504 1449.89 730.656ZM1493.81 727.848C1493.38 729.96 1492.85 732.168 1492.23 734.472C1491.6 736.728 1490.76 738.792 1489.71 740.664C1488.7 742.488 1487.45 744.024 1485.96 745.272C1484.52 746.472 1482.79 747.072 1480.78 747.072C1479.43 747.072 1477.97 746.784 1476.39 746.208C1474.85 745.632 1473.15 744.648 1471.27 743.256L1476.24 732.168C1476.48 732.648 1476.94 733.08 1477.61 733.464C1478.33 733.8 1479.1 733.968 1479.91 733.968C1480.49 733.968 1480.99 733.488 1481.43 732.528C1481.91 731.568 1482.31 730.464 1482.65 729.216C1482.99 727.92 1483.25 726.6 1483.44 725.256C1483.63 723.912 1483.78 722.832 1483.87 722.016C1484.79 717.36 1485.65 712.728 1486.47 708.12C1487.28 703.464 1488.24 698.832 1489.35 694.224C1491.51 694.032 1493.62 693.744 1495.68 693.36C1497.79 692.928 1499.91 692.424 1502.02 691.848C1501.3 694.296 1500.55 697.08 1499.79 700.2C1499.02 703.32 1498.27 706.512 1497.55 709.776C1496.83 713.04 1496.14 716.256 1495.47 719.424C1494.84 722.544 1494.29 725.352 1493.81 727.848ZM1497.14 747.072L1506.57 695.88L1529.33 693.936C1528.99 694.992 1528.7 696.072 1528.46 697.176C1528.22 698.088 1527.98 699.048 1527.74 700.056C1527.55 701.016 1527.38 701.88 1527.24 702.648C1526.76 702.696 1526.06 702.744 1525.15 702.792C1524.29 702.792 1523.35 702.816 1522.34 702.864C1521.33 702.864 1520.3 702.864 1519.25 702.864C1518.24 702.864 1517.35 702.864 1516.58 702.864L1514.06 715.752C1515.55 715.656 1516.94 715.584 1518.24 715.536C1519.29 715.488 1520.37 715.464 1521.48 715.464C1522.58 715.464 1523.4 715.44 1523.93 715.392C1523.73 716.736 1523.54 718.056 1523.35 719.352C1523.21 720.648 1523.01 721.968 1522.77 723.312C1522.29 723.36 1521.5 723.408 1520.4 723.456C1519.34 723.456 1518.26 723.48 1517.16 723.528C1515.91 723.576 1514.54 723.624 1513.05 723.672L1510.61 736.92L1521.12 735.264L1520.4 743.472L1497.14 747.072ZM1554.67 731.52C1553.52 734.16 1552.22 736.464 1550.78 738.432C1549.39 740.352 1547.9 741.984 1546.32 743.328C1544.78 744.624 1543.22 745.584 1541.64 746.208C1540.05 746.832 1538.52 747.144 1537.03 747.144C1535.54 747.144 1534.17 746.808 1532.92 746.136C1531.72 745.464 1530.67 744.456 1529.76 743.112C1528.84 741.768 1528.1 740.112 1527.52 738.144C1527 736.176 1526.73 733.872 1526.73 731.232C1526.73 726.72 1527.36 722.28 1528.6 717.912C1529.85 713.496 1531.6 709.536 1533.86 706.032C1536.12 702.528 1538.78 699.72 1541.85 697.608C1544.97 695.448 1548.4 694.368 1552.15 694.368C1553.3 694.368 1554.4 694.608 1555.46 695.088C1556.52 695.568 1557.43 696.24 1558.2 697.104C1558.96 697.968 1559.56 699.024 1560 700.272C1560.48 701.52 1560.72 702.912 1560.72 704.448C1560.72 704.736 1560.72 705.048 1560.72 705.384C1560.72 705.672 1560.69 705.984 1560.64 706.32L1551.21 708.84C1550.64 707.64 1549.96 707.04 1549.2 707.04C1548.43 707.04 1547.61 707.496 1546.75 708.408C1545.93 709.272 1545.12 710.424 1544.3 711.864C1543.48 713.256 1542.69 714.84 1541.92 716.616C1541.16 718.344 1540.48 720.096 1539.91 721.872C1539.33 723.648 1538.85 725.352 1538.47 726.984C1538.13 728.568 1537.96 729.864 1537.96 730.872C1537.96 732.408 1538.16 733.488 1538.54 734.112C1538.97 734.736 1539.52 735.048 1540.2 735.048C1540.72 735.048 1541.32 734.856 1542 734.472C1542.67 734.04 1543.29 733.512 1543.87 732.888C1544.44 732.216 1544.97 731.472 1545.45 730.656C1545.93 729.84 1546.27 729.024 1546.46 728.208L1554.67 731.52ZM1563.46 747.072C1564.56 741.792 1565.62 736.584 1566.62 731.448C1567.06 729.288 1567.49 727.032 1567.92 724.68C1568.35 722.328 1568.76 720.024 1569.14 717.768C1569.58 715.464 1569.94 713.256 1570.22 711.144C1570.56 708.984 1570.85 707.016 1571.09 705.24C1569.98 705.096 1568.86 705.048 1567.7 705.096C1566.6 705.144 1565.5 705 1564.39 704.664C1564.44 703.896 1564.46 703.008 1564.46 702C1564.46 700.992 1564.49 699.984 1564.54 698.976C1564.58 697.872 1564.63 696.696 1564.68 695.448C1565.93 695.544 1567.18 695.616 1568.42 695.664C1569.67 695.712 1570.92 695.736 1572.17 695.736C1574.62 695.736 1576.97 695.688 1579.22 695.592C1581.53 695.448 1583.64 695.304 1585.56 695.16C1587.53 694.968 1589.45 694.752 1591.32 694.512L1590.53 698.4C1590.29 699.504 1590.05 700.632 1589.81 701.784C1589.62 702.936 1589.42 703.92 1589.23 704.736C1588.18 705.024 1587.1 705.24 1585.99 705.384C1584.94 705.48 1583.88 705.624 1582.82 705.816C1582.49 707.448 1582.13 709.272 1581.74 711.288C1581.36 713.256 1580.98 715.32 1580.59 717.48C1580.26 719.592 1579.92 721.752 1579.58 723.96C1579.25 726.168 1578.91 728.28 1578.58 730.296C1577.81 735.048 1577.09 739.968 1576.42 745.056L1563.46 747.072Z" fill="#29293A"/>
</g>
<defs>
<linearGradient id="paint0_linear" x1="0" y1="540" x2="1920" y2="540" gradientUnits="userSpaceOnUse">
<stop stop-color="#7289DA" stop-opacity="0.99"/>
<stop offset="1" stop-color="#7289DA" stop-opacity="0.75"/>
</linearGradient>
<clipPath id="clip0">
<rect width="1920" height="1080" fill="white"/>
</clipPath>
</defs>
</svg>
