<svg width="1920" height="1080" viewBox="0 0 1920 1080" fill="none" xmlns="http://www.w3.org/2000/svg">
<g clip-path="url(#clip0)">
<rect width="1920" height="1080" fill="white"/>
<path d="M1919.5 1080C1919.5 1080 2155.85 423.952 1919.5 465.5C1770.19 491.747 1789.01 673.23 1662 756C1536.8 837.587 1426.5 840 1298 874C1169.5 908 1129 1012.5 1129 1080C1129 1388.71 1919.5 1080 1919.5 1080Z" fill="#7289DA" fill-opacity="0.5"/>
<path d="M-2.95413 2.20427C-2.95413 2.20427 -239.307 658.253 -2.95413 616.704C146.357 590.457 127.535 408.974 254.546 326.204C379.741 244.617 490.046 242.204 618.546 208.204C747.046 174.204 787.546 69.7043 787.546 2.20427C787.546 -306.505 -2.95413 2.20427 -2.95413 2.20427Z" fill="black"/>
<path d="M26.3718 -35.0533C26.3718 -35.0533 -282.729 590.022 -43.1916 575.497C108.131 566.321 109.975 383.874 245.539 316.014C379.165 249.124 489.034 259.213 620.557 239.978C752.08 220.744 804.149 121.5 811.79 54.4339C846.737 -252.291 26.3718 -35.0533 26.3718 -35.0533Z" fill="black"/>
<path d="M67.9522 -75.976C67.9522 -75.976 -325.134 499.998 -85.9063 518.951C65.2203 530.924 92.438 350.51 236.127 302.177C377.763 254.535 485.158 279.817 618.078 279.074C750.998 278.33 816.372 187.299 833.273 121.949C910.568 -176.927 67.9522 -75.976 67.9522 -75.976Z" fill="black"/>
<path d="M1944.42 1039.66C1944.42 1039.66 2104.99 361.075 1874.86 429.112C1729.48 472.093 1768.72 650.279 1651.9 746.895C1536.74 842.13 1427.42 857.014 1303.6 905.342C1179.77 953.67 1151.36 1062.08 1159 1129.15C1193.95 1435.87 1944.42 1039.66 1944.42 1039.66Z" fill="#7289DA" fill-opacity="0.5"/>
<path d="M1963.23 1000.14C1963.23 1000.14 2051.99 308.487 1830.23 400.207C1690.14 458.149 1747.8 631.256 1641.71 739.554C1537.14 846.305 1429.97 872.535 1311.88 933.541C1193.78 994.548 1176.86 1105.34 1191.47 1171.24C1258.29 1472.63 1963.23 1000.14 1963.23 1000.14Z" fill="#7289DA" fill-opacity="0.5"/>
<path d="M427.575 583.8H253.425C249.916 583.812 246.444 584.516 243.207 585.87C239.97 587.224 237.031 589.203 234.559 591.693C232.087 594.183 230.129 597.135 228.798 600.382C227.466 603.628 226.788 607.105 226.8 610.614V784.386C226.788 787.895 227.466 791.372 228.798 794.618C230.129 797.865 232.087 800.817 234.559 803.307C237.031 805.797 239.97 807.776 243.207 809.13C246.444 810.484 249.916 811.188 253.425 811.2H400.761L393.939 787.134L410.52 804.473L426.249 818.97L454.2 843.699V610.614C454.213 607.105 453.534 603.628 452.203 600.382C450.871 597.135 448.914 594.183 446.441 591.693C443.969 589.203 441.03 587.224 437.793 585.87C434.556 584.516 431.084 583.812 427.575 583.8V583.8ZM377.358 753.497C377.358 753.497 372.715 747.907 368.83 742.98C378.241 740.768 386.565 735.297 392.328 727.536C387.642 730.647 382.62 733.221 377.358 735.211C371.284 737.814 364.923 739.691 358.408 740.801C347.262 742.902 335.822 742.902 324.677 740.801C318.201 739.525 311.858 737.654 305.727 735.211C302.464 733.998 299.296 732.541 296.252 730.852L295.02 730.189H294.546C292.178 728.862 290.851 727.915 290.851 727.915C296.412 735.524 304.455 740.952 313.591 743.264L304.969 754.066C297.246 754.267 289.591 752.576 282.672 749.141C275.752 745.706 269.778 740.631 265.269 734.358C265.749 707.98 272.23 682.058 284.219 658.558C294.67 650.339 307.418 645.571 320.697 644.914L322.024 646.525C309.517 649.602 297.839 655.392 287.819 663.485C287.819 663.485 290.662 661.969 295.494 659.695C304.83 655.456 314.773 652.707 324.961 651.546H327.235C335.952 650.497 344.764 650.497 353.481 651.546C367.207 653.102 380.499 657.318 392.613 663.959C383.096 656.237 372.052 650.618 360.208 647.472L362.008 645.388C375.316 646.05 388.092 650.817 398.582 659.032C410.549 682.54 417.028 708.457 417.532 734.832C412.863 740.981 406.763 745.896 399.761 749.149C392.759 752.402 385.068 753.895 377.358 753.497V753.497Z" fill="#29293A"/>
<path d="M364.377 721.661C371.703 721.661 377.642 715.213 377.642 707.259C377.642 699.305 371.703 692.857 364.377 692.857C357.051 692.857 351.112 699.305 351.112 707.259C351.112 715.213 357.051 721.661 364.377 721.661Z" fill="#29293A"/>
<path d="M317.002 692.857C314.079 692.609 311.15 693.253 308.6 694.705C306.051 696.156 304.003 698.347 302.725 700.988C301.447 703.628 301 706.594 301.444 709.494C301.888 712.394 303.201 715.091 305.209 717.229C307.218 719.367 309.828 720.845 312.695 721.468C315.561 722.091 318.549 721.83 321.264 720.719C323.979 719.608 326.293 717.699 327.901 715.246C329.508 712.792 330.333 709.908 330.267 706.975C330.345 703.354 328.999 699.847 326.518 697.207C324.038 694.567 320.621 693.005 317.002 692.857V692.857Z" fill="#29293A"/>
<path fill-rule="evenodd" clip-rule="evenodd" d="M937.74 841.489C937.74 841.489 935.529 825.805 928.757 818.9C920.161 809.832 910.528 809.789 906.114 809.263C874.488 806.959 827.049 806.959 827.049 806.959H826.951C826.951 806.959 779.512 806.959 747.886 809.263C743.465 809.789 733.839 809.832 725.236 818.9C718.463 825.807 716.26 841.489 716.26 841.489C716.26 841.489 714 859.912 714 878.325V895.595C714 914.016 716.26 932.431 716.26 932.431C716.26 932.431 718.463 948.115 725.236 955.021C733.839 964.089 745.131 963.805 750.16 964.751C768.24 966.501 827 967.041 827 967.041C827 967.041 874.488 966.97 906.114 964.666C910.528 964.133 920.161 964.091 928.757 955.022C935.529 948.115 937.74 932.433 937.74 932.433C937.74 932.433 940 914.018 940 895.595V878.325C940 859.912 937.74 841.489 937.74 841.489ZM803.666 916.521L803.658 852.572L864.721 884.657L803.666 916.521Z" fill="#29293A"/>
<rect width="1920" height="1080" fill="url(#paint0_linear)"/>
<rect x="314" y="240" width="1398" height="247" rx="50" fill="white" fill-opacity="0.98"/>
<rect x="628" y="466" width="984" height="221" rx="50" fill="#29293A" fill-opacity="0.98"/>
<path d="M376.047 424.8V304.8C376.047 301.467 376.847 298.867 378.447 297C380.18 295 382.38 294 385.047 294H418.447C439.647 294 455.714 299.333 466.647 310C477.714 320.667 483.247 337.467 483.247 360.4C483.247 409.467 462.314 434 420.447 434H386.247C379.447 434 376.047 430.933 376.047 424.8ZM414.447 332V391.8C414.447 394.6 414.647 396.4 415.047 397.2C415.447 397.867 416.647 398.2 418.647 398.2C425.98 398.2 431.514 395.467 435.247 390C439.114 384.533 441.047 375.467 441.047 362.8C441.047 350 439.047 341.667 435.047 337.8C431.18 333.933 424.98 332 416.447 332H414.447ZM521.489 399.6V328.4H507.289C505.022 328.4 503.422 325.533 502.489 319.8C502.089 317 501.889 314.133 501.889 311.2C501.889 308.267 502.089 305.4 502.489 302.6C503.422 296.867 505.022 294 507.289 294H574.489C576.756 294 578.289 296.867 579.089 302.6C579.622 305.4 579.889 308.267 579.889 311.2C579.889 314.133 579.622 317 579.089 319.8C578.289 325.533 576.756 328.4 574.489 328.4H561.089V399.6H575.089C577.356 399.6 578.956 402.467 579.889 408.2C580.422 411 580.689 413.867 580.689 416.8C580.689 419.733 580.422 422.6 579.889 425.4C578.956 431.133 577.356 434 575.089 434H507.689C505.422 434 503.889 431.133 503.089 425.4C502.556 422.6 502.289 419.733 502.289 416.8C502.289 413.867 502.556 411 503.089 408.2C503.889 402.467 505.422 399.6 507.689 399.6H521.489ZM608.231 385.2C610.765 387.2 615.098 389.933 621.231 393.4C627.498 396.867 633.431 398.6 639.031 398.6C644.765 398.6 647.631 396.4 647.631 392C647.631 390 646.831 388.267 645.231 386.8C643.631 385.2 640.698 383.4 636.431 381.4C632.165 379.4 628.965 377.867 626.831 376.8C624.698 375.6 621.831 373.733 618.231 371.2C614.765 368.533 612.098 365.8 610.231 363C604.898 355.4 602.231 345.733 602.231 334C602.231 322.267 606.565 312.4 615.231 304.4C624.031 296.267 635.498 292.2 649.631 292.2C659.231 292.2 668.098 293.267 676.231 295.4C684.365 297.4 688.565 300.067 688.831 303.4C688.831 303.8 688.831 304.2 688.831 304.6C688.831 309.267 687.365 315.2 684.431 322.4C681.498 329.467 679.431 333.4 678.231 334.2C669.698 329.8 662.031 327.6 655.231 327.6C648.565 327.6 645.231 330 645.231 334.8C645.231 337.733 647.698 340.333 652.631 342.6C653.698 343.133 655.231 343.867 657.231 344.8C659.231 345.733 661.498 346.867 664.031 348.2C666.698 349.4 669.498 351 672.431 353C675.498 354.867 678.765 357.4 682.231 360.6C689.298 367.267 692.831 376.067 692.831 387C692.831 401.267 688.898 412.933 681.031 422C673.165 431.067 661.031 435.733 644.631 436C636.631 436 629.365 435.333 622.831 434C616.431 432.667 610.831 430.067 606.031 426.2C601.231 422.333 598.831 417.667 598.831 412.2C598.831 406.733 599.831 401.333 601.831 396C603.831 390.533 605.965 386.933 608.231 385.2ZM775.481 292.2C785.215 292.2 793.748 293.6 801.081 296.4C808.548 299.067 812.281 302.733 812.281 307.4C812.281 312.067 810.481 317.867 806.881 324.8C803.415 331.6 800.481 335 798.081 335C797.415 335 796.615 334.667 795.681 334C794.881 333.2 792.881 332.4 789.681 331.6C786.615 330.667 783.948 330.2 781.681 330.2C773.948 330.2 767.681 332.933 762.881 338.4C758.215 343.867 755.881 352.267 755.881 363.6C755.881 374.8 758.281 383.133 763.081 388.6C768.015 394.067 774.215 396.8 781.681 396.8C784.748 396.8 788.148 396.4 791.881 395.6C795.748 394.667 798.481 393.4 800.081 391.8C800.348 391.533 800.881 391.4 801.681 391.4C802.481 391.4 803.948 392.933 806.081 396C808.348 398.933 810.415 402.867 812.281 407.8C814.148 412.6 815.081 416.333 815.081 419C815.081 424.2 811.081 428.333 803.081 431.4C795.081 434.467 785.615 436 774.681 436C757.081 436 742.615 429.8 731.281 417.4C719.948 405 714.281 387.533 714.281 365C714.281 342.333 720.081 324.533 731.681 311.6C743.415 298.667 758.015 292.2 775.481 292.2ZM898.791 436C880.124 436 864.857 429.867 852.991 417.6C841.257 405.333 835.391 387.467 835.391 364C835.391 340.4 841.324 322.533 853.191 310.4C865.191 298.267 880.591 292.2 899.391 292.2C918.324 292.2 933.591 298.2 945.191 310.2C956.791 322.067 962.591 340.133 962.591 364.4C962.591 388.533 956.657 406.533 944.791 418.4C932.924 430.133 917.591 436 898.791 436ZM898.991 330.6C892.591 330.6 887.191 333.533 882.791 339.4C878.524 345.267 876.391 353.533 876.391 364.2C876.391 374.733 878.457 382.867 882.591 388.6C886.724 394.2 892.124 397 898.791 397C905.591 397 911.057 394.133 915.191 388.4C919.457 382.667 921.591 374.467 921.591 363.8C921.591 353.133 919.391 344.933 914.991 339.2C910.724 333.467 905.391 330.6 898.991 330.6ZM1025.85 431.2C1025.85 433.333 1019.52 434.4 1006.85 434.4C994.048 434.4 987.648 433.4 987.648 431.4V301C987.648 296.333 990.115 294 995.048 294H1033.25C1068.32 294 1085.85 307.667 1085.85 335C1085.85 343.267 1084.25 350.8 1081.05 357.6C1077.85 364.267 1073.32 369.6 1067.45 373.6L1092.65 415.6C1091.58 418.8 1088.12 422.467 1082.25 426.6C1074.25 432.333 1067.65 435.2 1062.45 435.2C1057.25 435.2 1053.38 433.333 1050.85 429.6L1032.05 385.8H1025.85V431.2ZM1025.85 329.4V359.4H1026.85C1039.52 359.4 1045.85 354.133 1045.85 343.6C1045.85 338.8 1044.58 335.267 1042.05 333C1039.65 330.6 1035.65 329.4 1030.05 329.4H1025.85ZM1114.62 424.8V304.8C1114.62 301.467 1115.42 298.867 1117.02 297C1118.75 295 1120.95 294 1123.62 294H1157.02C1178.22 294 1194.28 299.333 1205.22 310C1216.28 320.667 1221.82 337.467 1221.82 360.4C1221.82 409.467 1200.88 434 1159.02 434H1124.82C1118.02 434 1114.62 430.933 1114.62 424.8ZM1153.02 332V391.8C1153.02 394.6 1153.22 396.4 1153.62 397.2C1154.02 397.867 1155.22 398.2 1157.22 398.2C1164.55 398.2 1170.08 395.467 1173.82 390C1177.68 384.533 1179.62 375.467 1179.62 362.8C1179.62 350 1177.62 341.667 1173.62 337.8C1169.75 333.933 1163.55 332 1155.02 332H1153.02ZM1391.75 330.2C1391.75 344.067 1385.75 354.6 1373.75 361.8C1380.29 364.2 1385.75 368.333 1390.15 374.2C1394.55 380.067 1396.75 388.4 1396.75 399.2C1396.75 409.867 1392.75 418.333 1384.75 424.6C1376.89 430.867 1365.55 434 1350.75 434H1303.55C1301.29 434 1299.42 433.267 1297.95 431.8C1296.49 430.2 1295.75 428.133 1295.75 425.6V297.6C1295.75 296.133 1295.95 295.2 1296.35 294.8C1296.89 294.267 1297.89 294 1299.35 294H1344.95C1376.15 294 1391.75 306.067 1391.75 330.2ZM1334.15 326.4V352.6H1335.15C1347.95 352.6 1354.35 348.333 1354.35 339.8C1354.35 335.133 1353.09 331.733 1350.55 329.6C1348.15 327.467 1344.09 326.4 1338.35 326.4H1334.15ZM1334.15 376.2V402.2H1337.75C1343.49 402.2 1347.69 401.133 1350.35 399C1353.02 396.867 1354.35 393.467 1354.35 388.8C1354.35 384.133 1353.09 380.867 1350.55 379C1348.15 377.133 1344.09 376.2 1338.35 376.2H1334.15ZM1480.7 436C1462.04 436 1446.77 429.867 1434.9 417.6C1423.17 405.333 1417.3 387.467 1417.3 364C1417.3 340.4 1423.24 322.533 1435.1 310.4C1447.1 298.267 1462.5 292.2 1481.3 292.2C1500.24 292.2 1515.5 298.2 1527.1 310.2C1538.7 322.067 1544.5 340.133 1544.5 364.4C1544.5 388.533 1538.57 406.533 1526.7 418.4C1514.84 430.133 1499.5 436 1480.7 436ZM1480.9 330.6C1474.5 330.6 1469.1 333.533 1464.7 339.4C1460.44 345.267 1458.3 353.533 1458.3 364.2C1458.3 374.733 1460.37 382.867 1464.5 388.6C1468.64 394.2 1474.04 397 1480.7 397C1487.5 397 1492.97 394.133 1497.1 388.4C1501.37 382.667 1503.5 374.467 1503.5 363.8C1503.5 353.133 1501.3 344.933 1496.9 339.2C1492.64 333.467 1487.3 330.6 1480.9 330.6ZM1629.76 430.8C1629.76 433.467 1623.16 434.8 1609.96 434.8C1596.76 434.8 1590.16 433.467 1590.16 430.8V330.4H1566.16C1563.9 330.4 1562.3 327.333 1561.36 321.2C1560.96 318.267 1560.76 315.267 1560.76 312.2C1560.76 309.133 1560.96 306.133 1561.36 303.2C1562.3 297.067 1563.9 294 1566.16 294H1653.16C1655.43 294 1657.03 297.067 1657.96 303.2C1658.36 306.133 1658.56 309.133 1658.56 312.2C1658.56 315.267 1658.36 318.267 1657.96 321.2C1657.03 327.333 1655.43 330.4 1653.16 330.4H1629.76V430.8Z" fill="#29293A"/>
<path d="M709.732 619.6C711.972 608.32 714.132 597.32 716.212 586.6C717.012 582.12 717.852 577.44 718.732 572.56C719.692 567.6 720.572 562.76 721.372 558.04C722.172 553.24 722.892 548.64 723.532 544.24C724.252 539.76 724.812 535.68 725.212 532C727.692 531.84 730.092 531.68 732.412 531.52C734.492 531.36 736.612 531.24 738.772 531.16C740.932 531 742.852 530.84 744.532 530.68C745.572 536.84 746.492 542.72 747.292 548.32C747.692 550.72 748.092 553.24 748.492 555.88C748.972 558.44 749.412 560.92 749.812 563.32C750.212 565.72 750.612 568.04 751.012 570.28C751.412 572.44 751.812 574.36 752.212 576.04C752.532 574.36 752.892 572.44 753.292 570.28C753.692 568.04 754.132 565.72 754.612 563.32C755.092 560.84 755.572 558.32 756.052 555.76C756.612 553.2 757.132 550.72 757.612 548.32C758.812 542.72 760.052 536.88 761.332 530.8L775.972 529C773.252 541 770.852 552.36 768.772 563.08C767.812 567.72 766.852 572.4 765.892 577.12C765.012 581.84 764.172 586.4 763.372 590.8C762.572 595.2 761.892 599.28 761.332 603.04C760.772 606.72 760.332 609.84 760.012 612.4C759.772 612.4 758.812 612.6 757.132 613C755.532 613.32 753.652 613.72 751.492 614.2C749.412 614.68 747.292 615.2 745.132 615.76C743.052 616.24 741.492 616.64 740.452 616.96C739.892 610.48 739.292 604.32 738.652 598.48C738.412 596 738.132 593.44 737.812 590.8C737.492 588.16 737.172 585.64 736.852 583.24C736.612 580.84 736.332 578.6 736.012 576.52C735.772 574.36 735.532 572.56 735.292 571.12C735.052 572.56 734.732 574.32 734.332 576.4C733.932 578.48 733.532 580.72 733.132 583.12C732.732 585.44 732.332 587.88 731.932 590.44C731.532 592.92 731.092 595.36 730.612 597.76C729.572 603.44 728.452 609.36 727.252 615.52L709.732 619.6ZM835.987 554.08C835.987 560.64 835.267 566.84 833.827 572.68C832.467 578.44 830.627 583.76 828.307 588.64C825.987 593.44 823.267 597.76 820.147 601.6C817.107 605.36 813.907 608.6 810.547 611.32C807.187 613.96 803.787 616 800.347 617.44C796.907 618.8 793.627 619.48 790.507 619.48C787.867 619.48 785.467 619 783.307 618.04C781.147 617 779.267 615.52 777.667 613.6C776.067 611.6 774.787 609.08 773.827 606.04C772.947 602.92 772.507 599.2 772.507 594.88C772.507 590.4 773.067 585.68 774.187 580.72C775.307 575.76 776.827 570.84 778.747 565.96C780.667 561.08 783.027 556.44 785.827 552.04C788.627 547.64 791.707 543.76 795.067 540.4C798.427 536.96 802.027 534.24 805.867 532.24C809.707 530.24 813.707 529.24 817.867 529.24C821.467 529.24 824.427 530 826.747 531.52C829.147 532.96 830.987 534.88 832.267 537.28C833.627 539.6 834.587 542.24 835.147 545.2C835.707 548.16 835.987 551.12 835.987 554.08ZM790.387 591.76C790.387 592.64 790.547 593.56 790.867 594.52C791.187 595.48 791.627 596.32 792.187 597.04C792.747 597.76 793.427 598.4 794.227 598.96C795.107 599.44 796.027 599.68 796.987 599.68C800.587 599.68 803.787 598.44 806.587 595.96C809.387 593.48 811.707 590.44 813.547 586.84C815.387 583.24 816.787 579.4 817.747 575.32C818.787 571.24 819.307 567.52 819.307 564.16C819.307 563.2 819.227 562.16 819.067 561.04C818.987 559.92 818.747 558.88 818.347 557.92C818.027 556.96 817.467 556.16 816.667 555.52C815.947 554.8 814.947 554.44 813.667 554.44C811.107 554.44 808.747 555.08 806.587 556.36C804.427 557.64 802.467 559.36 800.707 561.52C799.027 563.6 797.547 566 796.267 568.72C794.987 571.36 793.867 574.08 792.907 576.88C792.027 579.6 791.387 582.28 790.987 584.92C790.587 587.56 790.387 589.84 790.387 591.76ZM894.446 557.68C894.446 561.84 893.846 566.28 892.646 571C891.446 575.64 889.766 580.28 887.606 584.92C885.446 589.48 882.766 593.88 879.566 598.12C876.446 602.28 872.886 605.96 868.886 609.16C864.886 612.28 860.486 614.8 855.686 616.72C850.966 618.64 845.926 619.6 840.566 619.6C839.446 619.6 838.326 619.52 837.206 619.36C836.086 619.28 834.966 619.16 833.846 619C836.006 607.96 838.126 597.2 840.206 586.72C841.006 582.32 841.846 577.76 842.726 573.04C843.606 568.24 844.446 563.52 845.246 558.88C846.046 554.24 846.806 549.8 847.526 545.56C848.326 541.32 848.966 537.48 849.446 534.04C852.886 533.4 856.366 532.8 859.886 532.24C863.406 531.68 867.006 531.4 870.686 531.4C875.006 531.4 878.646 532.08 881.606 533.44C884.646 534.8 887.086 536.68 888.926 539.08C890.846 541.48 892.246 544.28 893.126 547.48C894.006 550.68 894.446 554.08 894.446 557.68ZM866.126 548.32C865.246 553.04 864.326 557.56 863.366 561.88C862.406 566.2 861.446 570.56 860.486 574.96C859.526 579.36 858.566 583.96 857.606 588.76C856.646 593.56 855.726 598.8 854.846 604.48C856.766 603.2 858.606 601.48 860.366 599.32C862.206 597.08 863.926 594.52 865.526 591.64C867.126 588.76 868.566 585.72 869.846 582.52C871.206 579.32 872.366 576.2 873.326 573.16C874.286 570.12 875.006 567.28 875.486 564.64C876.046 562 876.326 559.72 876.326 557.8C876.326 554.84 875.486 552.52 873.806 550.84C872.206 549.16 869.646 548.32 866.126 548.32ZM892.695 619.12L908.415 533.8L946.335 530.56C945.775 532.32 945.295 534.12 944.895 535.96C944.495 537.48 944.095 539.08 943.695 540.76C943.375 542.36 943.095 543.8 942.855 545.08C942.055 545.16 940.895 545.24 939.375 545.32C937.935 545.32 936.375 545.36 934.695 545.44C933.015 545.44 931.295 545.44 929.535 545.44C927.855 545.44 926.375 545.44 925.095 545.44L920.895 566.92C923.375 566.76 925.695 566.64 927.855 566.56C929.615 566.48 931.415 566.44 933.255 566.44C935.095 566.44 936.455 566.4 937.335 566.32C937.015 568.56 936.695 570.76 936.375 572.92C936.135 575.08 935.815 577.28 935.415 579.52C934.615 579.6 933.295 579.68 931.455 579.76C929.695 579.76 927.895 579.8 926.055 579.88C923.975 579.96 921.695 580.04 919.215 580.12L915.135 602.2L932.655 599.44L931.455 613.12L892.695 619.12ZM972.354 587.08C971.634 590.6 970.754 594.28 969.714 598.12C968.674 601.88 967.274 605.32 965.514 608.44C963.834 611.48 961.754 614.04 959.274 616.12C956.874 618.12 953.994 619.12 950.634 619.12C948.394 619.12 945.954 618.64 943.314 617.68C940.754 616.72 937.914 615.08 934.794 612.76L943.074 594.28C943.474 595.08 944.234 595.8 945.354 596.44C946.554 597 947.834 597.28 949.194 597.28C950.154 597.28 950.994 596.48 951.714 594.88C952.514 593.28 953.194 591.44 953.754 589.36C954.314 587.2 954.754 585 955.074 582.76C955.394 580.52 955.634 578.72 955.794 577.36C957.314 569.6 958.754 561.88 960.114 554.2C961.474 546.44 963.074 538.72 964.914 531.04C968.514 530.72 972.034 530.24 975.474 529.6C978.994 528.88 982.514 528.04 986.034 527.08C984.834 531.16 983.594 535.8 982.314 541C981.034 546.2 979.794 551.52 978.594 556.96C977.394 562.4 976.234 567.76 975.114 573.04C974.074 578.24 973.154 582.92 972.354 587.08ZM1030.11 589.36C1030.11 593.84 1029.23 597.92 1027.47 601.6C1025.79 605.2 1023.47 608.32 1020.51 610.96C1017.63 613.6 1014.19 615.64 1010.19 617.08C1006.27 618.52 1002.03 619.24 997.469 619.24C994.269 619.24 991.069 618.4 987.869 616.72C984.669 614.96 981.589 612.2 978.629 608.44L987.509 591.04C988.069 592.08 988.909 593.16 990.029 594.28C991.149 595.32 992.389 596.24 993.749 597.04C995.189 597.84 996.589 598.52 997.949 599.08C999.389 599.56 1000.67 599.8 1001.79 599.8C1002.75 599.8 1003.75 599.64 1004.79 599.32C1005.83 599 1006.79 598.52 1007.67 597.88C1008.55 597.24 1009.23 596.52 1009.71 595.72C1010.27 594.84 1010.55 593.84 1010.55 592.72C1010.55 590.8 1009.91 589.04 1008.63 587.44C1007.43 585.76 1005.91 584.2 1004.07 582.76C1002.23 581.24 1000.23 579.72 998.069 578.2C995.909 576.68 993.909 575.08 992.069 573.4C990.309 571.72 988.789 569.84 987.509 567.76C986.229 565.68 985.589 563.36 985.589 560.8C985.589 556.64 986.829 552.76 989.309 549.16C991.789 545.56 994.869 542.48 998.549 539.92C1002.31 537.28 1006.39 535.2 1010.79 533.68C1015.19 532.16 1019.35 531.4 1023.27 531.4C1025.43 531.4 1027.47 531.68 1029.39 532.24C1031.31 532.72 1032.95 533.56 1034.31 534.76C1035.75 535.88 1036.87 537.32 1037.67 539.08C1038.55 540.84 1038.99 543.04 1038.99 545.68C1038.99 546.8 1038.87 547.92 1038.63 549.04C1038.47 550.16 1038.31 551.36 1038.15 552.64L1020.75 557.68C1020.91 557.04 1021.03 556.4 1021.11 555.76C1021.27 555.12 1021.35 554.48 1021.35 553.84C1021.35 551.44 1020.91 549.72 1020.03 548.68C1019.23 547.56 1018.15 547 1016.79 547C1016.15 547 1015.35 547.24 1014.39 547.72C1013.51 548.2 1012.59 548.84 1011.63 549.64C1010.75 550.36 1009.99 551.24 1009.35 552.28C1008.71 553.32 1008.39 554.44 1008.39 555.64C1008.39 557.56 1008.91 559.16 1009.95 560.44C1011.07 561.72 1012.43 562.92 1014.03 564.04C1015.63 565.16 1017.35 566.32 1019.19 567.52C1021.11 568.64 1022.87 570.12 1024.47 571.96C1026.07 573.8 1027.39 576.12 1028.43 578.92C1029.55 581.64 1030.11 585.12 1030.11 589.36ZM1059.15 618.28C1062.67 607.64 1066.03 597.2 1069.23 586.96C1070.59 582.64 1071.99 578.12 1073.43 573.4C1074.87 568.68 1076.31 564 1077.75 559.36C1079.19 554.72 1080.51 550.24 1081.71 545.92C1082.99 541.6 1084.11 537.6 1085.07 533.92C1089.47 533.92 1093.63 533.68 1097.55 533.2C1101.47 532.72 1105.71 532.28 1110.27 531.88C1110.03 533.64 1109.75 535.64 1109.43 537.88C1109.19 540.04 1108.87 542.32 1108.47 544.72C1108.15 547.12 1107.79 549.6 1107.39 552.16C1106.99 554.72 1106.51 558 1105.95 562C1105.39 566 1104.63 571 1103.67 577H1105.23C1107.55 570.92 1109.47 565.88 1110.99 561.88C1112.51 557.8 1113.75 554.48 1114.71 551.92C1115.67 549.36 1116.63 546.88 1117.59 544.48C1118.63 542 1119.59 539.68 1120.47 537.52C1121.43 535.28 1122.31 533.32 1123.11 531.64C1125.11 531.48 1126.99 531.28 1128.75 531.04C1130.51 530.8 1132.27 530.56 1134.03 530.32C1135.79 530 1137.55 529.72 1139.31 529.48C1141.15 529.16 1143.15 528.8 1145.31 528.4C1144.51 533.04 1143.75 537.8 1143.03 542.68C1142.31 547.56 1141.67 552.44 1141.11 557.32C1140.55 562.12 1139.99 566.88 1139.43 571.6C1138.95 576.32 1138.51 580.8 1138.11 585.04C1137.15 594.96 1136.31 604.64 1135.59 614.08L1114.71 617.8C1114.71 617.4 1114.75 616.32 1114.83 614.56C1114.99 612.8 1115.15 610.64 1115.31 608.08C1115.55 605.52 1115.83 602.68 1116.15 599.56C1116.55 596.44 1116.91 593.32 1117.23 590.2C1117.63 587.08 1118.03 584.08 1118.43 581.2C1118.83 578.24 1119.23 575.72 1119.63 573.64H1118.55C1117.43 577 1116.19 580.56 1114.83 584.32C1113.47 588 1112.07 591.76 1110.63 595.6C1109.27 599.44 1107.91 603.2 1106.55 606.88C1105.19 610.56 1103.99 614.08 1102.95 617.44C1100.15 617.52 1097.75 617.64 1095.75 617.8C1093.75 617.88 1091.43 618 1088.79 618.16L1092.63 573.64H1090.83C1090.67 574.68 1090.27 576.44 1089.63 578.92C1088.99 581.32 1088.23 584.12 1087.35 587.32C1086.55 590.44 1085.67 593.72 1084.71 597.16C1083.75 600.52 1082.83 603.68 1081.95 606.64C1081.15 609.52 1080.47 611.92 1079.91 613.84C1079.35 615.68 1079.03 616.72 1078.95 616.96L1059.15 618.28ZM1192.37 595.6C1191.25 600.16 1189.65 604.04 1187.57 607.24C1185.57 610.44 1183.17 613.08 1180.37 615.16C1177.65 617.24 1174.73 618.76 1171.61 619.72C1168.49 620.68 1165.37 621.16 1162.25 621.16C1160.41 621.16 1158.53 620.84 1156.61 620.2C1154.69 619.64 1152.97 618.76 1151.45 617.56C1149.93 616.36 1148.65 614.84 1147.61 613C1146.65 611.16 1146.17 609 1146.17 606.52C1146.17 606.2 1146.17 605.88 1146.17 605.56C1146.17 605.24 1146.21 604.92 1146.29 604.6C1146.61 601.32 1147.13 597.36 1147.85 592.72C1148.57 588.08 1149.33 583.24 1150.13 578.2C1150.93 573.16 1151.81 568.12 1152.77 563.08C1153.73 557.96 1154.57 553.32 1155.29 549.16C1156.09 545 1156.77 541.56 1157.33 538.84C1157.89 536.04 1158.25 534.32 1158.41 533.68C1160.09 533.52 1162.09 533.32 1164.41 533.08C1166.73 532.84 1168.89 532.64 1170.89 532.48C1173.37 532.24 1175.81 532 1178.21 531.76C1176.13 541.44 1174.29 550.2 1172.69 558.04C1171.97 561.4 1171.25 564.76 1170.53 568.12C1169.89 571.48 1169.25 574.56 1168.61 577.36C1168.05 580.16 1167.53 582.6 1167.05 584.68C1166.65 586.68 1166.29 588.32 1165.97 589.6C1165.73 590.88 1165.41 592.52 1165.01 594.52C1164.69 596.44 1164.53 598.2 1164.53 599.8C1164.53 601.08 1164.85 602.16 1165.49 603.04C1166.13 603.84 1166.93 604.24 1167.89 604.24C1169.25 604.24 1170.37 603.72 1171.25 602.68C1172.13 601.56 1172.85 600.24 1173.41 598.72C1174.05 597.2 1174.49 595.68 1174.73 594.16C1175.05 592.56 1175.33 591.32 1175.57 590.44C1176.05 588.12 1176.57 585.56 1177.13 582.76C1177.77 579.88 1178.37 576.92 1178.93 573.88C1179.57 570.76 1180.17 567.6 1180.73 564.4C1181.37 561.2 1181.97 558.08 1182.53 555.04C1183.89 548 1185.21 540.72 1186.49 533.2L1204.73 532C1204.73 532 1204.53 533.04 1204.13 535.12C1203.73 537.2 1203.21 539.96 1202.57 543.4C1201.93 546.84 1201.21 550.76 1200.41 555.16C1199.69 559.56 1198.85 564.16 1197.89 568.96C1196.93 573.68 1195.97 578.36 1195.01 583C1194.13 587.56 1193.25 591.76 1192.37 595.6ZM1251.28 589.36C1251.28 593.84 1250.4 597.92 1248.64 601.6C1246.96 605.2 1244.64 608.32 1241.68 610.96C1238.8 613.6 1235.36 615.64 1231.36 617.08C1227.44 618.52 1223.2 619.24 1218.64 619.24C1215.44 619.24 1212.24 618.4 1209.04 616.72C1205.84 614.96 1202.76 612.2 1199.8 608.44L1208.68 591.04C1209.24 592.08 1210.08 593.16 1211.2 594.28C1212.32 595.32 1213.56 596.24 1214.92 597.04C1216.36 597.84 1217.76 598.52 1219.12 599.08C1220.56 599.56 1221.84 599.8 1222.96 599.8C1223.92 599.8 1224.92 599.64 1225.96 599.32C1227 599 1227.96 598.52 1228.84 597.88C1229.72 597.24 1230.4 596.52 1230.88 595.72C1231.44 594.84 1231.72 593.84 1231.72 592.72C1231.72 590.8 1231.08 589.04 1229.8 587.44C1228.6 585.76 1227.08 584.2 1225.24 582.76C1223.4 581.24 1221.4 579.72 1219.24 578.2C1217.08 576.68 1215.08 575.08 1213.24 573.4C1211.48 571.72 1209.96 569.84 1208.68 567.76C1207.4 565.68 1206.76 563.36 1206.76 560.8C1206.76 556.64 1208 552.76 1210.48 549.16C1212.96 545.56 1216.04 542.48 1219.72 539.92C1223.48 537.28 1227.56 535.2 1231.96 533.68C1236.36 532.16 1240.52 531.4 1244.44 531.4C1246.6 531.4 1248.64 531.68 1250.56 532.24C1252.48 532.72 1254.12 533.56 1255.48 534.76C1256.92 535.88 1258.04 537.32 1258.84 539.08C1259.72 540.84 1260.16 543.04 1260.16 545.68C1260.16 546.8 1260.04 547.92 1259.8 549.04C1259.64 550.16 1259.48 551.36 1259.32 552.64L1241.92 557.68C1242.08 557.04 1242.2 556.4 1242.28 555.76C1242.44 555.12 1242.52 554.48 1242.52 553.84C1242.52 551.44 1242.08 549.72 1241.2 548.68C1240.4 547.56 1239.32 547 1237.96 547C1237.32 547 1236.52 547.24 1235.56 547.72C1234.68 548.2 1233.76 548.84 1232.8 549.64C1231.92 550.36 1231.16 551.24 1230.52 552.28C1229.88 553.32 1229.56 554.44 1229.56 555.64C1229.56 557.56 1230.08 559.16 1231.12 560.44C1232.24 561.72 1233.6 562.92 1235.2 564.04C1236.8 565.16 1238.52 566.32 1240.36 567.52C1242.28 568.64 1244.04 570.12 1245.64 571.96C1247.24 573.8 1248.56 576.12 1249.6 578.92C1250.72 581.64 1251.28 585.12 1251.28 589.36ZM1274.04 616.6C1273.32 616.6 1271.92 616.72 1269.84 616.96C1267.76 617.12 1265.6 617.36 1263.36 617.68C1261.12 617.92 1259.08 618.16 1257.24 618.4C1255.48 618.64 1254.52 618.8 1254.36 618.88C1255.32 615.44 1256.28 611.64 1257.24 607.48C1258.2 603.24 1259.16 598.84 1260.12 594.28C1261.16 589.64 1262.12 584.96 1263 580.24C1263.96 575.52 1264.88 570.96 1265.76 566.56C1267.76 556.32 1269.72 545.8 1271.64 535L1290.36 532C1288.28 542.72 1286.2 553.24 1284.12 563.56C1283.24 567.96 1282.32 572.52 1281.36 577.24C1280.48 581.96 1279.6 586.64 1278.72 591.28C1277.92 595.92 1277.08 600.44 1276.2 604.84C1275.4 609.16 1274.68 613.08 1274.04 616.6ZM1335.75 593.2C1333.83 597.6 1331.67 601.44 1329.27 604.72C1326.95 607.92 1324.47 610.64 1321.83 612.88C1319.27 615.04 1316.67 616.64 1314.03 617.68C1311.39 618.72 1308.83 619.24 1306.35 619.24C1303.87 619.24 1301.59 618.68 1299.51 617.56C1297.51 616.44 1295.75 614.76 1294.23 612.52C1292.71 610.28 1291.47 607.52 1290.51 604.24C1289.63 600.96 1289.19 597.12 1289.19 592.72C1289.19 585.2 1290.23 577.8 1292.31 570.52C1294.39 563.16 1297.31 556.56 1301.07 550.72C1304.83 544.88 1309.27 540.2 1314.39 536.68C1319.59 533.08 1325.31 531.28 1331.55 531.28C1333.47 531.28 1335.31 531.68 1337.07 532.48C1338.83 533.28 1340.35 534.4 1341.63 535.84C1342.91 537.28 1343.91 539.04 1344.63 541.12C1345.43 543.2 1345.83 545.52 1345.83 548.08C1345.83 548.56 1345.83 549.08 1345.83 549.64C1345.83 550.12 1345.79 550.64 1345.71 551.2L1329.99 555.4C1329.03 553.4 1327.91 552.4 1326.63 552.4C1325.35 552.4 1323.99 553.16 1322.55 554.68C1321.19 556.12 1319.83 558.04 1318.47 560.44C1317.11 562.76 1315.79 565.4 1314.51 568.36C1313.23 571.24 1312.11 574.16 1311.15 577.12C1310.19 580.08 1309.39 582.92 1308.75 585.64C1308.19 588.28 1307.91 590.44 1307.91 592.12C1307.91 594.68 1308.23 596.48 1308.87 597.52C1309.59 598.56 1310.51 599.08 1311.63 599.08C1312.51 599.08 1313.51 598.76 1314.63 598.12C1315.75 597.4 1316.79 596.52 1317.75 595.48C1318.71 594.36 1319.59 593.12 1320.39 591.76C1321.19 590.4 1321.75 589.04 1322.07 587.68L1335.75 593.2ZM1422.67 588.88C1422.67 592.16 1421.99 595.2 1420.63 598C1419.27 600.8 1417.43 603.36 1415.11 605.68C1412.79 607.92 1410.07 609.92 1406.95 611.68C1403.91 613.36 1400.67 614.8 1397.23 616C1393.87 617.12 1390.39 618 1386.79 618.64C1383.27 619.2 1379.87 619.48 1376.59 619.48C1373.63 619.48 1370.87 619.24 1368.31 618.76C1372.15 604.76 1375.19 590.68 1377.43 576.52C1379.75 562.28 1381.95 547.96 1384.03 533.56C1388.19 532.68 1392.51 531.92 1396.99 531.28C1401.47 530.56 1406.11 530.2 1410.91 530.2C1412.91 530.2 1415.03 530.44 1417.27 530.92C1419.51 531.4 1421.55 532.28 1423.39 533.56C1425.23 534.84 1426.75 536.52 1427.95 538.6C1429.23 540.68 1429.87 543.32 1429.87 546.52C1429.87 549.56 1429.35 552.4 1428.31 555.04C1427.35 557.68 1426.07 560.08 1424.47 562.24C1422.95 564.4 1421.19 566.28 1419.19 567.88C1417.19 569.4 1415.15 570.56 1413.07 571.36C1414.11 571.92 1415.19 572.72 1416.31 573.76C1417.43 574.8 1418.47 576.04 1419.43 577.48C1420.39 578.84 1421.15 580.48 1421.71 582.4C1422.35 584.32 1422.67 586.48 1422.67 588.88ZM1395.19 576.4C1394.87 578.32 1394.55 580.04 1394.23 581.56C1393.99 583 1393.75 584.4 1393.51 585.76C1393.27 587.12 1392.99 588.56 1392.67 590.08C1392.43 591.52 1392.15 593.24 1391.83 595.24C1393.35 595.08 1395.07 594.8 1396.99 594.4C1398.91 594 1400.75 593.4 1402.51 592.6C1404.27 591.72 1405.75 590.6 1406.95 589.24C1408.15 587.8 1408.75 586.08 1408.75 584.08C1408.75 582.64 1408.35 581.44 1407.55 580.48C1406.83 579.52 1405.87 578.72 1404.67 578.08C1403.55 577.44 1402.31 577 1400.95 576.76C1399.59 576.44 1398.31 576.28 1397.11 576.28C1396.71 576.28 1396.35 576.28 1396.03 576.28C1395.79 576.28 1395.51 576.32 1395.19 576.4ZM1400.59 547.36C1400.43 548.24 1400.23 549.28 1399.99 550.48C1399.83 551.68 1399.63 552.96 1399.39 554.32C1399.15 555.6 1398.87 556.88 1398.55 558.16C1398.31 559.44 1398.11 560.56 1397.95 561.52C1399.71 561.2 1401.47 560.76 1403.23 560.2C1404.99 559.64 1406.55 559.04 1407.91 558.4C1409.35 557.68 1410.47 556.92 1411.27 556.12C1412.15 555.32 1412.59 554.44 1412.59 553.48C1412.59 552.28 1412.23 551.32 1411.51 550.6C1410.79 549.8 1409.83 549.16 1408.63 548.68C1407.51 548.2 1406.31 547.88 1405.03 547.72C1403.83 547.48 1402.75 547.36 1401.79 547.36H1400.59ZM1492.36 554.08C1492.36 560.64 1491.64 566.84 1490.2 572.68C1488.84 578.44 1487 583.76 1484.68 588.64C1482.36 593.44 1479.64 597.76 1476.52 601.6C1473.48 605.36 1470.28 608.6 1466.92 611.32C1463.56 613.96 1460.16 616 1456.72 617.44C1453.28 618.8 1450 619.48 1446.88 619.48C1444.24 619.48 1441.84 619 1439.68 618.04C1437.52 617 1435.64 615.52 1434.04 613.6C1432.44 611.6 1431.16 609.08 1430.2 606.04C1429.32 602.92 1428.88 599.2 1428.88 594.88C1428.88 590.4 1429.44 585.68 1430.56 580.72C1431.68 575.76 1433.2 570.84 1435.12 565.96C1437.04 561.08 1439.4 556.44 1442.2 552.04C1445 547.64 1448.08 543.76 1451.44 540.4C1454.8 536.96 1458.4 534.24 1462.24 532.24C1466.08 530.24 1470.08 529.24 1474.24 529.24C1477.84 529.24 1480.8 530 1483.12 531.52C1485.52 532.96 1487.36 534.88 1488.64 537.28C1490 539.6 1490.96 542.24 1491.52 545.2C1492.08 548.16 1492.36 551.12 1492.36 554.08ZM1446.76 591.76C1446.76 592.64 1446.92 593.56 1447.24 594.52C1447.56 595.48 1448 596.32 1448.56 597.04C1449.12 597.76 1449.8 598.4 1450.6 598.96C1451.48 599.44 1452.4 599.68 1453.36 599.68C1456.96 599.68 1460.16 598.44 1462.96 595.96C1465.76 593.48 1468.08 590.44 1469.92 586.84C1471.76 583.24 1473.16 579.4 1474.12 575.32C1475.16 571.24 1475.68 567.52 1475.68 564.16C1475.68 563.2 1475.6 562.16 1475.44 561.04C1475.36 559.92 1475.12 558.88 1474.72 557.92C1474.4 556.96 1473.84 556.16 1473.04 555.52C1472.32 554.8 1471.32 554.44 1470.04 554.44C1467.48 554.44 1465.12 555.08 1462.96 556.36C1460.8 557.64 1458.84 559.36 1457.08 561.52C1455.4 563.6 1453.92 566 1452.64 568.72C1451.36 571.36 1450.24 574.08 1449.28 576.88C1448.4 579.6 1447.76 582.28 1447.36 584.92C1446.96 587.56 1446.76 589.84 1446.76 591.76ZM1498.31 619.12C1500.15 610.32 1501.91 601.64 1503.59 593.08C1504.31 589.48 1505.03 585.72 1505.75 581.8C1506.47 577.88 1507.15 574.04 1507.79 570.28C1508.51 566.44 1509.11 562.76 1509.59 559.24C1510.15 555.64 1510.63 552.36 1511.03 549.4C1509.19 549.16 1507.31 549.08 1505.39 549.16C1503.55 549.24 1501.71 549 1499.87 548.44C1499.95 547.16 1499.99 545.68 1499.99 544C1499.99 542.32 1500.03 540.64 1500.11 538.96C1500.19 537.12 1500.27 535.16 1500.35 533.08C1502.43 533.24 1504.51 533.36 1506.59 533.44C1508.67 533.52 1510.75 533.56 1512.83 533.56C1516.91 533.56 1520.83 533.48 1524.59 533.32C1528.43 533.08 1531.95 532.84 1535.15 532.6C1538.43 532.28 1541.63 531.92 1544.75 531.52L1543.43 538C1543.03 539.84 1542.63 541.72 1542.23 543.64C1541.91 545.56 1541.59 547.2 1541.27 548.56C1539.51 549.04 1537.71 549.4 1535.87 549.64C1534.11 549.8 1532.35 550.04 1530.59 550.36C1530.03 553.08 1529.43 556.12 1528.79 559.48C1528.15 562.76 1527.51 566.2 1526.87 569.8C1526.31 573.32 1525.75 576.92 1525.19 580.6C1524.63 584.28 1524.07 587.8 1523.51 591.16C1522.23 599.08 1521.03 607.28 1519.91 615.76L1498.31 619.12Z" fill="white"/>
</g>
<defs>
<linearGradient id="paint0_linear" x1="0" y1="540" x2="1920" y2="540" gradientUnits="userSpaceOnUse">
<stop stop-color="#7289DA" stop-opacity="0.99"/>
<stop offset="1" stop-color="#7289DA" stop-opacity="0.75"/>
</linearGradient>
<clipPath id="clip0">
<rect width="1920" height="1080" fill="white"/>
</clipPath>
</defs>
</svg>
