<svg width="748" height="1080" viewBox="0 0 748 1080" fill="none" xmlns="http://www.w3.org/2000/svg">
<g clip-path="url(#clip0)">
<rect width="748" height="1080" fill="white"/>
<path d="M-539.549 192.413C-539.549 192.413 -531.122 889.687 -324.298 767.98C-193.641 691.094 -274.841 527.702 -184.87 405.686C-96.1859 285.414 6.28471 244.516 114.734 167.658C223.182 90.8004 224.511 -21.2653 200.867 -84.4887C92.7303 -373.639 -539.549 192.413 -539.549 192.413Z" fill="black" fill-opacity="0.8"/>
<path d="M-525.132 147.243C-525.132 147.243 -595.693 840.989 -376.42 743.478C-237.9 681.877 -300.081 510.344 -196.877 399.297C-95.1469 289.837 11.2949 260.801 127.747 196.715C244.199 132.628 258.206 21.4328 241.871 -44.0608C167.162 -343.594 -525.132 147.243 -525.132 147.243Z" fill="black" fill-opacity="0.5"/>
<path d="M-500.52 94.3484C-500.52 94.3484 -666.946 771.523 -436.236 705.477C-290.49 663.754 -328.194 485.236 -210.539 389.633C-94.5652 295.396 14.8816 281.457 139.12 234.201C263.358 186.945 292.704 78.7817 285.642 11.6521C253.347 -295.364 -500.52 94.3484 -500.52 94.3484Z" fill="black" fill-opacity="0.5"/>
<path d="M1278.44 1080C1278.44 1080 1514.79 423.952 1278.44 465.5C1129.13 491.747 1147.95 673.23 1020.94 756C895.745 837.587 785.44 840 656.94 874C528.44 908 487.94 1012.5 487.94 1080C487.94 1388.71 1278.44 1080 1278.44 1080Z" fill="#7289DA" fill-opacity="0.5"/>
<path d="M1303.36 1039.66C1303.36 1039.66 1463.93 361.075 1233.8 429.112C1088.42 472.093 1127.66 650.279 1010.84 746.895C895.683 842.13 786.36 857.014 662.535 905.342C538.71 953.67 510.3 1062.08 517.941 1129.15C552.888 1435.87 1303.36 1039.66 1303.36 1039.66Z" fill="#7289DA" fill-opacity="0.5"/>
<path d="M1322.17 1000.14C1322.17 1000.14 1410.93 308.487 1189.17 400.207C1049.08 458.149 1106.74 631.256 1000.65 739.554C896.082 846.305 788.915 872.535 670.819 933.541C552.724 994.548 535.802 1105.34 550.412 1171.24C617.229 1472.63 1322.17 1000.14 1322.17 1000.14Z" fill="#7289DA" fill-opacity="0.5"/>
<g clip-path="url(#clip1)">
<path d="M217.809 523.97C214.046 523.97 211 527.016 211 530.775V564.813C211 568.576 214.046 571.622 217.809 571.622C221.568 571.622 224.614 568.576 224.614 564.813V530.775C224.614 527.016 221.568 523.97 217.809 523.97V523.97Z" fill="#29293A"/>
<path d="M251.87 496.094C248.111 496.094 245.061 499.145 245.061 502.904V597.157C245.061 600.919 248.111 603.966 251.87 603.966C255.629 603.966 258.68 600.919 258.68 597.157V502.904C258.68 499.145 255.629 496.094 251.87 496.094Z" fill="#29293A"/>
<path d="M285.885 449.085C282.126 449.085 279.076 452.131 279.076 455.89V646.507C279.076 650.266 282.126 653.316 285.885 653.316C289.644 653.316 292.694 650.266 292.694 646.507V455.89C292.694 452.131 289.644 449.085 285.885 449.085Z" fill="#29293A"/>
<path d="M319.923 483.123C316.164 483.123 313.114 486.169 313.114 489.932V605.66C313.114 609.419 316.164 612.469 319.923 612.469C323.682 612.469 326.732 609.419 326.732 605.66V489.932C326.732 486.169 323.682 483.123 319.923 483.123Z" fill="#29293A"/>
<path d="M422.703 466.641C418.944 466.641 415.898 469.688 415.898 473.451V626.613C415.898 630.373 418.944 633.419 422.703 633.419C426.462 633.419 429.512 630.373 429.512 626.613V473.451C429.512 469.688 426.462 466.641 422.703 466.641Z" fill="#29293A"/>
<path d="M490.117 476.314C486.357 476.314 483.307 479.364 483.307 483.123V619.275C483.307 623.037 486.357 626.084 490.117 626.084C493.876 626.084 496.922 623.037 496.922 619.275V483.123C496.922 479.364 493.876 476.314 490.117 476.314Z" fill="#29293A"/>
<path d="M524.154 510.352C520.395 510.352 517.345 513.402 517.345 517.161V585.237C517.345 588.996 520.395 592.046 524.154 592.046C527.914 592.046 530.96 588.996 530.96 585.237V517.161C530.96 513.402 527.914 510.352 524.154 510.352Z" fill="#29293A"/>
<path d="M456.079 421.852C452.316 421.852 449.27 424.902 449.27 428.661V673.736C449.27 677.499 452.316 680.545 456.079 680.545C459.838 680.545 462.884 677.499 462.884 673.736V428.661C462.884 424.902 459.838 421.852 456.079 421.852V421.852Z" fill="#29293A"/>
<path d="M353.961 530.775C350.202 530.775 347.156 533.825 347.156 537.584V564.813C347.156 568.576 350.202 571.622 353.961 571.622C357.72 571.622 360.77 568.576 360.77 564.813V537.584C360.77 533.825 357.72 530.775 353.961 530.775Z" fill="#29293A"/>
<path d="M558.192 528.496C554.433 528.496 551.383 531.543 551.383 535.302V564.759C551.383 568.518 554.433 571.568 558.192 571.568C561.952 571.568 565.002 568.518 565.002 564.759V535.302C565.002 531.543 561.952 528.496 558.192 528.496Z" fill="#29293A"/>
<path d="M387.36 515.517C383.597 515.517 380.551 518.563 380.551 522.322V577.738C380.551 581.497 383.597 584.547 387.36 584.547C391.119 584.547 394.165 581.497 394.165 577.738V522.322C394.165 518.563 391.119 515.517 387.36 515.517Z" fill="#29293A"/>
</g>
<path d="M608.196 135.2H453.804C450.693 135.211 447.615 135.835 444.745 137.035C441.876 138.236 439.271 139.99 437.079 142.197C434.887 144.405 433.151 147.022 431.971 149.901C430.791 152.779 430.189 155.861 430.2 158.972V313.028C430.189 316.139 430.791 319.221 431.971 322.099C433.151 324.978 434.887 327.595 437.079 329.803C439.271 332.01 441.876 333.764 444.745 334.965C447.615 336.165 450.693 336.789 453.804 336.8H584.424L578.376 315.464L593.076 330.836L607.02 343.688L631.8 365.612V158.972C631.811 155.861 631.209 152.779 630.029 149.901C628.849 147.022 627.113 144.405 624.921 142.197C622.73 139.99 620.124 138.236 617.255 137.035C614.385 135.835 611.307 135.211 608.196 135.2V135.2ZM563.676 285.644C563.676 285.644 559.56 280.688 556.116 276.32C564.459 274.359 571.839 269.509 576.948 262.628C572.793 265.386 568.341 267.669 563.676 269.432C558.291 271.74 552.652 273.404 546.876 274.388C536.995 276.25 526.853 276.25 516.972 274.388C511.231 273.257 505.607 271.598 500.172 269.432C497.279 268.357 494.471 267.065 491.772 265.568L490.68 264.98H490.26C488.16 263.804 486.984 262.964 486.984 262.964C491.914 269.71 499.044 274.522 507.144 276.572L499.5 286.148C492.654 286.326 485.867 284.827 479.733 281.782C473.598 278.737 468.302 274.237 464.304 268.676C464.73 245.291 470.476 222.31 481.104 201.476C490.37 194.19 501.671 189.963 513.444 189.38L514.62 190.808C503.532 193.536 493.179 198.669 484.296 205.844C484.296 205.844 486.816 204.5 491.1 202.484C499.377 198.726 508.192 196.289 517.224 195.26H519.24C526.968 194.33 534.78 194.33 542.508 195.26C554.677 196.639 566.461 200.377 577.2 206.264C568.763 199.418 558.973 194.437 548.472 191.648L550.068 189.8C561.866 190.388 573.192 194.613 582.492 201.896C593.101 222.738 598.845 245.714 599.292 269.096C595.153 274.548 589.745 278.905 583.537 281.789C577.33 284.673 570.512 285.997 563.676 285.644V285.644Z" fill="#29293A"/>
<path d="M552.168 257.42C558.663 257.42 563.928 251.704 563.928 244.652C563.928 237.601 558.663 231.884 552.168 231.884C545.673 231.884 540.408 237.601 540.408 244.652C540.408 251.704 545.673 257.42 552.168 257.42Z" fill="#29293A"/>
<path d="M510.168 231.884C507.577 231.664 504.98 232.235 502.72 233.522C500.46 234.809 498.643 236.751 497.511 239.092C496.378 241.433 495.982 244.063 496.375 246.633C496.768 249.204 497.932 251.595 499.713 253.49C501.494 255.386 503.808 256.696 506.349 257.249C508.891 257.801 511.54 257.57 513.947 256.585C516.354 255.6 518.405 253.908 519.83 251.732C521.255 249.557 521.987 247 521.928 244.4C521.997 241.19 520.804 238.08 518.605 235.74C516.406 233.4 513.377 232.015 510.168 231.884V231.884Z" fill="#29293A"/>
<path fill-rule="evenodd" clip-rule="evenodd" d="M351.74 803.489C351.74 803.489 349.529 787.805 342.757 780.9C334.161 771.832 324.528 771.789 320.114 771.263C288.488 768.959 241.049 768.959 241.049 768.959H240.951C240.951 768.959 193.512 768.959 161.886 771.263C157.465 771.789 147.839 771.832 139.236 780.9C132.463 787.807 130.26 803.489 130.26 803.489C130.26 803.489 128 821.912 128 840.325V857.595C128 876.016 130.26 894.431 130.26 894.431C130.26 894.431 132.463 910.115 139.236 917.021C147.839 926.089 159.131 925.805 164.16 926.751C182.24 928.501 241 929.041 241 929.041C241 929.041 288.488 928.97 320.114 926.666C324.528 926.133 334.161 926.091 342.757 917.022C349.529 910.115 351.74 894.433 351.74 894.433C351.74 894.433 354 876.018 354 857.595V840.325C354 821.912 351.74 803.489 351.74 803.489ZM217.666 878.521L217.658 814.572L278.721 846.657L217.666 878.521Z" fill="#29293A"/>
<rect width="1920" height="1080" fill="url(#paint0_linear)"/>
</g>
<defs>
<linearGradient id="paint0_linear" x1="0" y1="540" x2="1920" y2="540" gradientUnits="userSpaceOnUse">
<stop stop-color="#7289DA" stop-opacity="0.94"/>
<stop offset="1" stop-color="#7289DA" stop-opacity="0.68"/>
</linearGradient>
<clipPath id="clip0">
<rect width="748" height="1080" fill="white"/>
</clipPath>
<clipPath id="clip1">
<rect width="354" height="354" fill="white" transform="translate(211 374)"/>
</clipPath>
</defs>
</svg>
