<svg width="54" height="54" viewBox="0 0 54 54" fill="none" xmlns="http://www.w3.org/2000/svg">
<g opacity="0.9">
<path fill-rule="evenodd" clip-rule="evenodd" d="M26.5897 53.3541C41.2748 53.4506 53.2577 41.6243 53.3542 26.9392C53.4507 12.2541 41.6243 0.271291 26.9393 0.174769C12.2542 0.0782468 0.271363 11.9046 0.17484 26.5897C0.078318 41.2747 11.9047 53.2576 26.5897 53.3541ZM27.1448 25.2734C25.0676 25.2597 14.4057 19.1207 14.4057 19.1207L14.4119 18.173C14.4196 16.9988 15.3789 16.0521 16.5552 16.0598L37.8546 16.1998C39.032 16.2076 39.9787 17.1668 39.971 18.341L39.9469 19.4045C39.9469 19.4045 29.3219 25.2877 27.1448 25.2734ZM39.9261 22.5956C39.9261 22.5956 29.4028 28.2136 27.1257 28.1986C25.0485 28.1849 14.4 22.4278 14.4011 22.4278L14.3002 35.1908C14.2925 36.365 15.2402 37.3242 16.4155 37.3319L37.7149 37.4719C38.8923 37.4797 39.8515 36.5329 39.8592 35.3587L39.9261 22.5956Z" fill="white"/>
</g>
</svg>
