<svg width="54" height="54" viewBox="0 0 54 54" fill="none" xmlns="http://www.w3.org/2000/svg">
<path fill-rule="evenodd" clip-rule="evenodd" d="M0 26.59C0 11.9047 11.9047 0 26.59 0C41.2753 0 53.18 11.9047 53.18 26.59C53.18 41.2753 41.2753 53.18 26.59 53.18C11.9047 53.18 0 41.2753 0 26.59ZM30.7516 14.1634C30.3212 12.8367 28.8984 12.1106 27.5737 12.5419C26.2489 12.9729 25.5239 14.3978 25.9545 15.7243L26.7806 18.2696L21.4728 19.9973L20.6468 17.4514C20.2162 16.1249 18.7934 15.3988 17.4688 15.8299C16.1439 16.2609 15.4189 17.6858 15.8496 19.0125L16.6759 21.5587L14.0532 22.4123C12.8157 22.8606 12.1202 24.1994 12.4897 25.4846C12.8749 26.8251 14.2965 27.6422 15.6114 27.2145L18.2345 26.361L19.9602 31.6782L17.337 32.532C16.0995 32.9802 15.404 34.3191 15.7733 35.6042C16.1587 36.9447 17.5803 37.7619 18.895 37.3341L21.5187 36.4804L22.371 39.1063C22.8188 40.3457 24.1557 41.0422 25.439 40.6721C26.7776 40.2864 27.5936 38.8627 27.1664 37.5459L26.3144 34.9199L31.6238 33.1924L32.476 35.8181C32.9238 37.0574 34.2607 37.754 35.544 37.3841C36.8825 36.9982 37.6985 35.5745 37.2714 34.2579L36.4194 31.6319L38.9605 30.8051C40.2853 30.3741 41.0101 28.9492 40.5797 27.6225C40.1493 26.2959 38.7265 25.5699 37.4018 26.0009L34.8607 26.828L33.136 21.5122L35.6769 20.6855C37.0015 20.2545 37.7265 18.8296 37.2961 17.5028C36.8657 16.1763 35.4429 15.4502 34.118 15.8813L31.5773 16.7083L30.7516 14.1634ZM28.3395 23.0729L23.0311 24.8002L24.7562 30.1171L30.0649 28.3891L28.3395 23.0729Z" fill="white"/>
</svg>
